SplineFontDB: 3.0
FontName: Felipa-Regular
FullName: Felipa
FamilyName: Felipa
Weight: Book
Copyright: Copyright (c) 2011 Fontstage (info@fontstage.com), with Reserved Font Name "Felipa"
Version: 1.001
ItalicAngle: 0
UnderlinePosition: -50
UnderlineWidth: 50
Ascent: 800
Descent: 200
sfntRevision: 0x00010042
LayerCount: 2
Layer: 0 1 "Back"  1
Layer: 1 1 "Fore"  0
XUID: [1021 779 363144654 2478673]
FSType: 0
OS2Version: 2
OS2_WeightWidthSlopeOnly: 0
OS2_UseTypoMetrics: 1
CreationTime: 1328291181
ModificationTime: 1328312990
PfmFamily: 17
TTFWeight: 400
TTFWidth: 5
LineGap: 0
VLineGap: 0
Panose: 2 0 5 3 0 0 0 2 0 3
OS2TypoAscent: 166
OS2TypoAOffset: 1
OS2TypoDescent: -119
OS2TypoDOffset: 1
OS2TypoLinegap: 0
OS2WinAscent: 0
OS2WinAOffset: 1
OS2WinDescent: 0
OS2WinDOffset: 1
HheadAscent: 0
HheadAOffset: 1
HheadDescent: 0
HheadDOffset: 1
OS2SubXSize: 700
OS2SubYSize: 650
OS2SubXOff: 0
OS2SubYOff: 140
OS2SupXSize: 700
OS2SupYSize: 650
OS2SupXOff: 0
OS2SupYOff: 477
OS2StrikeYSize: 50
OS2StrikeYPos: 250
OS2Vendor: 'PYRS'
OS2CodePages: 20000001.00000000
OS2UnicodeRanges: 800000ef.4000204a.00000000.00000000
DEI: 91125
TtTable: prep
PUSHW_1
 511
SCANCTRL
PUSHB_1
 4
SCANTYPE
EndTTInstrs
ShortTable: maxp 16
  1
  0
  277
  112
  6
  0
  0
  2
  0
  1
  1
  0
  64
  0
  0
  0
EndShort
LangName: 1033 "" "" "" "Fontstage: Felipa: 2011" "" "Version 1.001" "" "Felipa is a trademark of Fontstage." "Fontstage" "Javier Alcaraz" "" "www.fontstage.com" "www.fontstage.com" "This Font Software is licensed under the SIL Open Font License, Version 1.1. This license is available with a FAQ at: http://scripts.sil.org/OFL" "http://scripts.sil.org/OFL" 
GaspTable: 1 65535 15 1
Encoding: UnicodeBmp
UnicodeInterp: none
NameList: Adobe Glyph List
DisplaySize: -24
AntiAlias: 1
FitToEm: 1
BeginChars: 65543 277

StartChar: exclam
Encoding: 33 33 4
Width: 358
GlyphClass: 2
Flags: W
LayerCount: 2
Fore
SplineSet
230 819 m 1,0,-1
 314 871 l 1,1,2
 290 699 290 699 276 614 c 128,-1,3
 262 529 262 529 229 410 c 128,-1,4
 196 291 196 291 144 172 c 1,5,-1
 119 182 l 1,6,7
 212 561 212 561 230 819 c 1,0,-1
40 49 m 1,8,-1
 112 118 l 1,9,10
 143 94 143 94 179 37 c 1,11,-1
 109 -27 l 1,12,13
 108 -26 108 -26 82.5 4 c 128,-1,14
 57 34 57 34 40 49 c 1,8,-1
EndSplineSet
EndChar

StartChar: quotedbl
Encoding: 34 34 5
Width: 370
GlyphClass: 2
Flags: W
LayerCount: 2
Fore
SplineSet
117 880 m 1,0,-1
 185 861 l 1,1,2
 170 802 170 802 141.5 733.5 c 128,-1,3
 113 665 113 665 107 649 c 1,4,-1
 93 664 l 1,5,6
 101 830 101 830 117 880 c 1,0,-1
287 880 m 1,7,-1
 355 861 l 1,8,9
 340 802 340 802 311.5 733.5 c 128,-1,10
 283 665 283 665 277 649 c 1,11,-1
 263 664 l 1,12,13
 271 830 271 830 287 880 c 1,7,-1
EndSplineSet
EndChar

StartChar: numbersign
Encoding: 35 35 6
Width: 630
GlyphClass: 2
Flags: W
LayerCount: 2
Fore
SplineSet
485 639 m 1,0,-1
 459 452 l 1,1,-1
 610 452 l 1,2,-1
 556 398 l 1,3,-1
 452 398 l 1,4,-1
 426 213 l 1,5,-1
 593 213 l 1,6,-1
 539 159 l 1,7,-1
 419 159 l 1,8,-1
 395 -18 l 1,9,-1
 337 -72 l 1,10,-1
 368 159 l 1,11,-1
 250 159 l 1,12,-1
 226 -18 l 1,13,-1
 167 -72 l 1,14,-1
 198 159 l 1,15,-1
 57 159 l 1,16,-1
 111 213 l 1,17,-1
 206 213 l 1,18,-1
 231 398 l 1,19,-1
 57 398 l 1,20,-1
 111 452 l 1,21,-1
 239 452 l 1,22,-1
 257 585 l 1,23,-1
 316 639 l 1,24,-1
 290 452 l 1,25,-1
 409 452 l 1,26,-1
 427 585 l 1,27,-1
 485 639 l 1,0,-1
283 398 m 1,28,-1
 257 213 l 1,29,-1
 376 213 l 1,30,-1
 401 398 l 1,31,-1
 283 398 l 1,28,-1
EndSplineSet
EndChar

StartChar: dollar
Encoding: 36 36 7
Width: 351
GlyphClass: 2
Flags: W
LayerCount: 2
Fore
SplineSet
252 504 m 0,0,1
 321 504 321 504 321 492 c 1,2,3
 296 457 296 457 246 435 c 1,4,5
 242 465 242 465 197 465 c 0,6,7
 170 465 170 465 140.5 454.5 c 128,-1,8
 111 444 111 444 99 430 c 1,9,10
 99 402 99 402 140.5 344.5 c 128,-1,11
 182 287 182 287 223 223 c 128,-1,12
 264 159 264 159 264 120 c 128,-1,13
 264 81 264 81 234.5 53 c 128,-1,14
 205 25 205 25 159 9 c 1,15,-1
 139 -117 l 1,16,-1
 92 -149 l 1,17,-1
 113 -2 l 1,18,19
 89 -4 89 -4 67.5 -4 c 128,-1,20
 46 -4 46 -4 15.5 8.5 c 128,-1,21
 -15 21 -15 21 -15 33 c 1,22,-1
 36 79 l 1,23,24
 79 42 79 42 132 42 c 0,25,26
 163 42 163 42 199 56 c 1,27,28
 199 109 199 109 175.5 161 c 128,-1,29
 152 213 152 213 124 246 c 0,30,31
 49 334 49 334 49 370 c 0,32,33
 49 467 49 467 175 496 c 1,34,-1
 192 606 l 1,35,-1
 239 638 l 1,36,-1
 220 503 l 1,37,38
 231 504 231 504 252 504 c 0,0,1
EndSplineSet
EndChar

StartChar: percent
Encoding: 37 37 8
Width: 805
GlyphClass: 2
Flags: W
LayerCount: 2
Fore
SplineSet
660 284 m 128,-1,1
 640 319 640 319 596.5 319 c 128,-1,2
 553 319 553 319 522.5 271.5 c 128,-1,3
 492 224 492 224 492 163 c 0,4,5
 492 52 492 52 566 52 c 0,6,7
 680 52 680 52 680 210 c 0,8,0
 680 249 680 249 660 284 c 128,-1,1
522 311.5 m 128,-1,10
 564 348 564 348 622 348 c 128,-1,11
 680 348 680 348 709 308 c 128,-1,12
 738 268 738 268 738 200 c 128,-1,13
 738 132 738 132 676.5 71 c 128,-1,14
 615 10 615 10 542 10 c 0,15,16
 500 10 500 10 470.5 45.5 c 128,-1,17
 441 81 441 81 441 132 c 128,-1,18
 441 183 441 183 460.5 229 c 128,-1,9
 480 275 480 275 522 311.5 c 128,-1,10
258 717 m 128,-1,20
 238 752 238 752 194.5 752 c 128,-1,21
 151 752 151 752 120.5 704.5 c 128,-1,22
 90 657 90 657 90 596 c 0,23,24
 90 485 90 485 164 485 c 0,25,26
 278 485 278 485 278 643 c 0,27,19
 278 682 278 682 258 717 c 128,-1,20
120 744.5 m 128,-1,29
 162 781 162 781 220 781 c 128,-1,30
 278 781 278 781 307 741 c 128,-1,31
 336 701 336 701 336 633 c 128,-1,32
 336 565 336 565 274.5 504 c 128,-1,33
 213 443 213 443 140 443 c 0,34,35
 98 443 98 443 68.5 478.5 c 128,-1,36
 39 514 39 514 39 565 c 128,-1,37
 39 616 39 616 58.5 662 c 128,-1,28
 78 708 78 708 120 744.5 c 128,-1,29
639 818 m 1,38,-1
 688 768 l 1,39,40
 610 639 610 639 420.5 402.5 c 128,-1,41
 231 166 231 166 81 6 c 1,42,-1
 62 27 l 1,43,44
 77 47 77 47 221 231 c 128,-1,45
 365 415 365 415 458.5 546 c 128,-1,46
 552 677 552 677 639 818 c 1,38,-1
EndSplineSet
EndChar

StartChar: ampersand
Encoding: 38 38 9
Width: 698
GlyphClass: 2
Flags: W
LayerCount: 2
Fore
SplineSet
71 449 m 128,-1,1
 104 540 104 540 153.5 605 c 128,-1,2
 203 670 203 670 260 710.5 c 128,-1,3
 317 751 317 751 358.5 751 c 128,-1,4
 400 751 400 751 422.5 731 c 128,-1,5
 445 711 445 711 445 673 c 0,6,7
 445 600 445 600 276 497 c 1,8,9
 420 510 420 510 543 510 c 0,10,11
 548 510 548 510 677 507 c 1,12,-1
 616 449 l 1,13,14
 590 451 590 451 479 451 c 1,15,16
 476 434 476 434 463 378 c 0,17,18
 435 257 435 257 435 193 c 0,19,20
 435 68 435 68 516 52 c 1,21,22
 565 86 565 86 631.5 158.5 c 128,-1,23
 698 231 698 231 757 311 c 1,24,-1
 766 305 l 1,25,26
 686 193 686 193 603 102.5 c 128,-1,27
 520 12 520 12 465 -10 c 1,28,29
 440 -10 440 -10 410.5 19.5 c 128,-1,30
 381 49 381 49 371 110 c 1,31,32
 290 13 290 13 230 -8 c 1,33,34
 176 -8 176 -8 137 15 c 128,-1,35
 98 38 98 38 78 78 c 0,36,37
 38 157 38 157 38 257.5 c 128,-1,0
 38 358 38 358 71 449 c 128,-1,1
368 157 m 2,38,39
 368 315 368 315 422 450 c 1,40,41
 269 450 269 450 136 421 c 0,42,43
 131 419 131 419 123 415 c 1,44,45
 109 356 109 356 109 299 c 0,46,47
 109 179 109 179 146 123 c 128,-1,48
 183 67 183 67 253 55 c 1,49,50
 297 65 297 65 368 135 c 1,51,-1
 368 157 l 2,38,39
133 451 m 1,52,53
 200 482 200 482 208 490 c 1,54,-1
 209 490 l 1,55,56
 367 579 367 579 370 641 c 1,57,58
 370 665 370 665 356.5 679 c 128,-1,59
 343 693 343 693 317 693 c 0,60,61
 273 693 273 693 218.5 621.5 c 128,-1,62
 164 550 164 550 133 451 c 1,52,53
EndSplineSet
EndChar

StartChar: quotesingle
Encoding: 39 39 10
Width: 220
GlyphClass: 2
Flags: W
LayerCount: 2
Fore
SplineSet
143 880 m 1,0,-1
 211 861 l 1,1,2
 196 802 196 802 167.5 733.5 c 128,-1,3
 139 665 139 665 133 649 c 1,4,-1
 119 664 l 1,5,6
 127 830 127 830 143 880 c 1,0,-1
EndSplineSet
EndChar

StartChar: parenleft
Encoding: 40 40 11
Width: 414
GlyphClass: 2
Flags: W
LayerCount: 2
Fore
SplineSet
176 252 m 0,0,1
 176 18 176 18 301 -68 c 1,2,-1
 288 -83 l 1,3,4
 190 -24 190 -24 144 95 c 1,5,6
 109 182 109 182 109 285 c 0,7,8
 109 323 109 323 114 363 c 0,9,10
 131 502 131 502 204 629.5 c 128,-1,11
 277 757 277 757 378 816 c 1,12,-1
 389 802 l 1,13,14
 316 745 316 745 256 613 c 0,15,16
 176 435 176 435 176 252 c 0,0,1
EndSplineSet
EndChar

StartChar: parenright
Encoding: 41 41 12
Width: 385
GlyphClass: 2
Flags: W
LayerCount: 2
Fore
SplineSet
243 481 m 0,0,1
 243 715 243 715 118 801 c 1,2,-1
 131 816 l 1,3,4
 229 757 229 757 276 638 c 0,5,6
 310 551 310 551 310 448 c 0,7,8
 310 410 310 410 305 370 c 0,9,10
 288 231 288 231 215 103.5 c 128,-1,11
 142 -24 142 -24 41 -83 c 1,12,-1
 30 -69 l 1,13,14
 103 -12 103 -12 162 120 c 0,15,16
 243 298 243 298 243 481 c 0,0,1
EndSplineSet
EndChar

StartChar: asterisk
Encoding: 42 42 13
Width: 479
GlyphClass: 2
Flags: W
LayerCount: 2
Fore
SplineSet
316 769 m 1,0,-1
 279 644 l 1,1,-1
 286 637 l 1,2,3
 373 699 373 699 403 717 c 1,4,-1
 407 646 l 1,5,-1
 292 606 l 1,6,-1
 288 592 l 1,7,-1
 380 527 l 1,8,-1
 330 492 l 1,9,-1
 267 561 l 1,10,-1
 257 557 l 1,11,-1
 237 455 l 1,12,-1
 181 439 l 1,13,-1
 222 559 l 1,14,-1
 216 566 l 1,15,-1
 98 511 l 1,16,-1
 87 529 l 1,17,-1
 205 592 l 1,18,-1
 210 610 l 1,19,20
 177 633 177 633 104 692 c 1,21,-1
 164 721 l 1,22,-1
 235 639 l 1,23,-1
 246 645 l 1,24,-1
 256 744 l 1,25,-1
 316 769 l 1,0,-1
EndSplineSet
EndChar

StartChar: plus
Encoding: 43 43 14
Width: 621
GlyphClass: 2
Flags: W
LayerCount: 2
Fore
SplineSet
340 346 m 1,0,-1
 583 346 l 1,1,-1
 529 292 l 1,2,-1
 340 292 l 1,3,-1
 340 102 l 1,4,-1
 286 48 l 1,5,-1
 286 292 l 1,6,-1
 48 292 l 1,7,-1
 102 346 l 1,8,-1
 286 346 l 1,9,-1
 286 529 l 1,10,-1
 340 583 l 1,11,-1
 340 346 l 1,0,-1
EndSplineSet
EndChar

StartChar: comma
Encoding: 44 44 15
Width: 272
GlyphClass: 2
Flags: W
LayerCount: 2
Fore
SplineSet
60 66 m 1,0,1
 112 131 112 131 120 133 c 1,2,3
 141 116 141 116 161 89 c 128,-1,4
 181 62 181 62 187 50 c 1,5,6
 185 35 185 35 159 -12 c 128,-1,7
 133 -59 133 -59 89 -115 c 1,8,-1
 74 -104 l 1,9,10
 127 -33 127 -33 127 -17 c 1,11,12
 121 -7 121 -7 93.5 21.5 c 128,-1,13
 66 50 66 50 60 66 c 1,0,1
EndSplineSet
EndChar

StartChar: hyphen
Encoding: 45 45 16
Width: 400
GlyphClass: 2
Flags: W
LayerCount: 2
Fore
SplineSet
81 346 m 0,0,1
 219 346 219 346 374 378 c 1,2,-1
 343 324 l 1,3,4
 205 293 205 293 54 293 c 0,5,6
 50 293 50 293 45 293 c 1,7,-1
 73 346 l 1,8,9
 77 346 77 346 81 346 c 0,0,1
EndSplineSet
EndChar

StartChar: period
Encoding: 46 46 17
Width: 270
GlyphClass: 2
Flags: W
LayerCount: 2
Fore
SplineSet
133 134 m 1,0,1
 164 110 164 110 200 53 c 1,2,-1
 130 -11 l 1,3,4
 129 -10 129 -10 103.5 20 c 128,-1,5
 78 50 78 50 61 65 c 1,6,-1
 133 134 l 1,0,1
EndSplineSet
EndChar

StartChar: slash
Encoding: 47 47 18
Width: 436
GlyphClass: 2
Flags: W
LayerCount: 2
Fore
SplineSet
375 838 m 1,0,-1
 424 788 l 1,1,2
 373 619 373 619 243 290 c 128,-1,3
 113 -39 113 -39 97 -83 c 1,4,-1
 56 -29 l 1,5,6
 76 23 76 23 148 200 c 0,7,8
 304 584 304 584 375 838 c 1,0,-1
EndSplineSet
EndChar

StartChar: zero
Encoding: 48 48 19
Width: 529
GlyphClass: 2
Flags: W
LayerCount: 2
Fore
SplineSet
384 426 m 128,-1,1
 342 477 342 477 273 477 c 128,-1,2
 204 477 204 477 146 400 c 128,-1,3
 88 323 88 323 88 238 c 128,-1,4
 88 153 88 153 131 104 c 128,-1,5
 174 55 174 55 237 53 c 1,6,7
 302 54 302 54 347 96 c 0,8,9
 426 171 426 171 426 308 c 0,10,0
 426 375 426 375 384 426 c 128,-1,1
317 520 m 0,11,12
 401 520 401 520 442 469 c 128,-1,13
 483 418 483 418 483 338 c 0,14,15
 483 202 483 202 394.5 102 c 128,-1,16
 306 2 306 2 188 2 c 0,17,18
 114 2 114 2 78 53.5 c 128,-1,19
 42 105 42 105 42 185 c 0,20,21
 42 321 42 321 122.5 420.5 c 128,-1,22
 203 520 203 520 317 520 c 0,11,12
EndSplineSet
EndChar

StartChar: one
Encoding: 49 49 20
Width: 318
GlyphClass: 2
Flags: W
LayerCount: 2
Fore
SplineSet
219 519 m 1,0,1
 234 519 234 519 234 487.5 c 128,-1,2
 234 456 234 456 225.5 402 c 128,-1,3
 217 348 217 348 196.5 227.5 c 128,-1,4
 176 107 176 107 167 45 c 1,5,-1
 118 -16 l 1,6,7
 111 -11 111 -11 111 6 c 0,8,9
 111 89 111 89 139 246.5 c 128,-1,10
 167 404 167 404 173 453 c 1,11,12
 150 441 150 441 72 384 c 1,13,-1
 64 396 l 1,14,15
 89 423 89 423 137.5 461 c 128,-1,16
 186 499 186 499 219 519 c 1,0,1
EndSplineSet
EndChar

StartChar: two
Encoding: 50 50 21
Width: 440
GlyphClass: 2
Flags: W
LayerCount: 2
Fore
SplineSet
242 513 m 0,0,1
 289 513 289 513 321 488 c 128,-1,2
 353 463 353 463 353 410 c 0,3,4
 353 326 353 326 282 236.5 c 128,-1,5
 211 147 211 147 109 69 c 1,6,-1
 111 63 l 1,7,-1
 285 63 l 2,8,9
 363 63 363 63 418 102 c 1,10,-1
 426 87 l 1,11,12
 361 32 361 32 317 -1 c 1,13,-1
 -7 0 l 1,14,-1
 -14 15 l 1,15,16
 18 32 18 32 74 79 c 0,17,18
 185 174 185 174 241.5 245.5 c 128,-1,19
 298 317 298 317 298 374 c 0,20,21
 298 461 298 461 209 461 c 0,22,23
 142 461 142 461 66 421 c 1,24,-1
 55 437 l 1,25,26
 156 513 156 513 242 513 c 0,0,1
EndSplineSet
EndChar

StartChar: three
Encoding: 51 51 22
Width: 423
GlyphClass: 2
Flags: W
LayerCount: 2
Fore
SplineSet
42 440 m 1,0,1
 167 514 167 514 219.5 514 c 128,-1,2
 272 514 272 514 304.5 483 c 128,-1,3
 337 452 337 452 337 391 c 0,4,5
 337 349 337 349 303 302.5 c 128,-1,6
 269 256 269 256 220 223 c 1,7,-1
 221 220 l 1,8,9
 226 221 226 221 235 221 c 0,10,11
 283 221 283 221 311.5 187 c 128,-1,12
 340 153 340 153 340 112 c 0,13,14
 340 40 340 40 300.5 -14 c 128,-1,15
 261 -68 261 -68 209 -91.5 c 128,-1,16
 157 -115 157 -115 106 -115 c 0,17,18
 5 -115 5 -115 -60 -75 c 1,19,-1
 -24 -12 l 1,20,21
 70 -60 70 -60 138 -60 c 128,-1,22
 206 -60 206 -60 234 -44 c 1,23,24
 279 3 279 3 279 58.5 c 128,-1,25
 279 114 279 114 246.5 148.5 c 128,-1,26
 214 183 214 183 153 186 c 1,27,-1
 143 203 l 1,28,-1
 178 226 l 2,29,30
 208 246 208 246 226 260 c 128,-1,31
 244 274 244 274 262 300 c 128,-1,32
 280 326 280 326 280 362.5 c 128,-1,33
 280 399 280 399 253.5 432.5 c 128,-1,34
 227 466 227 466 179.5 466 c 128,-1,35
 132 466 132 466 53 421 c 1,36,-1
 42 440 l 1,0,1
EndSplineSet
EndChar

StartChar: four
Encoding: 52 52 23
Width: 461
GlyphClass: 2
Flags: W
LayerCount: 2
Fore
SplineSet
119 62 m 2,0,-1
 172 61 l 2,1,2
 206 61 206 61 231 62 c 1,3,4
 287 393 287 393 293 441 c 1,5,-1
 291 444 l 1,6,7
 256 357 256 357 179 242.5 c 128,-1,8
 102 128 102 128 38 62 c 1,9,-1
 41 59 l 1,10,11
 72 62 72 62 119 62 c 2,0,-1
211 -172 m 1,12,13
 203 -166 203 -166 203 -149.5 c 128,-1,14
 203 -133 203 -133 224 17 c 1,15,-1
 23 17 l 2,16,17
 -1 17 -1 17 -33 12 c 1,18,-1
 -40 26 l 1,19,20
 6 61 6 61 114.5 212.5 c 128,-1,21
 223 364 223 364 264 456 c 1,22,23
 295 494 295 494 337 519 c 1,24,25
 354 519 354 519 354 488 c 0,26,27
 354 377 354 377 290 64 c 1,28,29
 377 64 377 64 444 77 c 1,30,-1
 449 62 l 1,31,32
 389 27 389 27 282 19 c 1,33,34
 270 -54 270 -54 259 -112 c 1,35,-1
 211 -172 l 1,12,13
EndSplineSet
EndChar

StartChar: five
Encoding: 53 53 24
Width: 463
GlyphClass: 2
Flags: W
LayerCount: 2
Fore
SplineSet
191 514 m 1,0,1
 191 514 191 514 317 515 c 0,2,3
 347 515 347 515 425 513 c 1,4,5
 397 487 397 487 365 452 c 1,6,7
 293 449 293 449 247.5 449 c 128,-1,8
 202 449 202 449 174 454 c 1,9,-1
 168 450 l 1,10,11
 134 315 134 315 118 181 c 1,12,-1
 121 176 l 1,13,14
 184 214 184 214 244.5 214 c 128,-1,15
 305 214 305 214 342.5 174 c 128,-1,16
 380 134 380 134 380 64.5 c 128,-1,17
 380 -5 380 -5 340.5 -59 c 128,-1,18
 301 -113 301 -113 249 -136 c 128,-1,19
 197 -159 197 -159 151.5 -159 c 128,-1,20
 106 -159 106 -159 61.5 -148 c 128,-1,21
 17 -137 17 -137 -12 -119 c 1,22,-1
 30 -58 l 1,23,24
 128 -105 128 -105 206 -105 c 0,25,26
 256 -105 256 -105 288.5 -76 c 128,-1,27
 321 -47 321 -47 321 22 c 0,28,29
 321 153 321 153 184 153 c 0,30,31
 142 153 142 153 83 136 c 1,32,-1
 75 148 l 1,33,34
 94 348 94 348 125 460 c 1,35,36
 136 474 136 474 156.5 491 c 128,-1,37
 177 508 177 508 191 514 c 1,0,1
EndSplineSet
EndChar

StartChar: six
Encoding: 54 54 25
Width: 503
GlyphClass: 2
Flags: W
LayerCount: 2
Fore
SplineSet
456 642 m 0,0,1
 488 642 488 642 511 633 c 1,2,-1
 453 565 l 1,3,4
 432 569 432 569 407 569 c 0,5,6
 263 569 263 569 184.5 474.5 c 128,-1,7
 106 380 106 380 106 231 c 0,8,9
 106 145 106 145 149 96.5 c 128,-1,10
 192 48 192 48 262 48 c 0,11,12
 315 48 315 48 345 92.5 c 128,-1,13
 375 137 375 137 375 193 c 0,14,15
 375 319 375 319 255 319 c 0,16,17
 212 319 212 319 156 286 c 1,18,-1
 149 303 l 1,19,20
 180 332 180 332 224.5 354 c 128,-1,21
 269 376 269 376 306 376 c 0,22,23
 365 376 365 376 395.5 337.5 c 128,-1,24
 426 299 426 299 426 238 c 0,25,26
 426 158 426 158 360.5 74.5 c 128,-1,27
 295 -9 295 -9 215 -9 c 128,-1,28
 135 -9 135 -9 91 49 c 128,-1,29
 47 107 47 107 47 188 c 128,-1,30
 47 269 47 269 77.5 347 c 128,-1,31
 108 425 108 425 160 491 c 128,-1,32
 212 557 212 557 290.5 599.5 c 128,-1,33
 369 642 369 642 456 642 c 0,0,1
EndSplineSet
EndChar

StartChar: seven
Encoding: 55 55 26
Width: 422
GlyphClass: 2
Flags: W
LayerCount: 2
Fore
SplineSet
59 508 m 1,0,1
 183 499 183 499 258.5 499 c 128,-1,2
 334 499 334 499 389 503 c 1,3,-1
 397 493 l 1,4,5
 321 348 321 348 256 171 c 128,-1,6
 191 -6 191 -6 170 -109 c 1,7,-1
 90 -153 l 1,8,-1
 81 -143 l 1,9,10
 186 218 186 218 330 426 c 1,11,-1
 324 439 l 1,12,13
 294 438 294 438 209.5 431.5 c 128,-1,14
 125 425 125 425 82.5 425 c 128,-1,15
 40 425 40 425 21 427 c 1,16,-1
 59 508 l 1,0,1
EndSplineSet
EndChar

StartChar: eight
Encoding: 56 56 27
Width: 481
GlyphClass: 2
Flags: W
LayerCount: 2
Fore
SplineSet
115 507 m 0,0,1
 115 563 115 563 178.5 607.5 c 128,-1,2
 242 652 242 652 308 652 c 0,3,4
 351 652 351 652 377 629 c 128,-1,5
 403 606 403 606 403 559 c 0,6,7
 403 532 403 532 383 499 c 128,-1,8
 363 466 363 466 344.5 447 c 128,-1,9
 326 428 326 428 285 387 c 1,10,11
 350 336 350 336 381.5 293 c 128,-1,12
 413 250 413 250 413 183.5 c 128,-1,13
 413 117 413 117 346.5 57.5 c 128,-1,14
 280 -2 280 -2 205 -2 c 128,-1,15
 130 -2 130 -2 83.5 40.5 c 128,-1,16
 37 83 37 83 37 145 c 128,-1,17
 37 207 37 207 79.5 257 c 128,-1,18
 122 307 122 307 202 365 c 1,19,20
 155 412 155 412 135 441.5 c 128,-1,21
 115 471 115 471 115 507 c 0,0,1
326 75 m 128,-1,23
 361 110 361 110 361 161 c 128,-1,24
 361 212 361 212 330.5 248.5 c 128,-1,25
 300 285 300 285 228 342 c 1,26,27
 168 297 168 297 136.5 256.5 c 128,-1,28
 105 216 105 216 105 162.5 c 128,-1,29
 105 109 105 109 140 74.5 c 128,-1,30
 175 40 175 40 233 40 c 128,-1,22
 291 40 291 40 326 75 c 128,-1,23
316.5 471.5 m 128,-1,32
 341 508 341 508 341 541 c 128,-1,33
 341 574 341 574 315.5 593.5 c 128,-1,34
 290 613 290 613 254.5 613 c 128,-1,35
 219 613 219 613 192 591.5 c 128,-1,36
 165 570 165 570 165 533 c 0,37,38
 165 487 165 487 259 409 c 1,39,31
 292 435 292 435 316.5 471.5 c 128,-1,32
EndSplineSet
EndChar

StartChar: nine
Encoding: 57 57 28
Width: 495
GlyphClass: 2
Flags: W
LayerCount: 2
Fore
SplineSet
279 526 m 0,0,1
 353 526 353 526 393 470.5 c 128,-1,2
 433 415 433 415 433 315 c 0,3,4
 433 190 433 190 372 82 c 0,5,6
 339 25 339 25 293 -19 c 128,-1,7
 247 -63 247 -63 178 -90 c 128,-1,8
 109 -117 109 -117 26 -117 c 1,9,-1
 83 -44 l 1,10,11
 161 -44 161 -44 219 -20 c 128,-1,12
 277 4 277 4 310 46 c 0,13,14
 374 129 374 129 374 259 c 0,15,16
 374 363 374 363 334 416 c 128,-1,17
 294 469 294 469 229.5 469 c 128,-1,18
 165 469 165 469 130 424.5 c 128,-1,19
 95 380 95 380 95 320.5 c 128,-1,20
 95 261 95 261 129.5 229 c 128,-1,21
 164 197 164 197 216 197 c 128,-1,22
 268 197 268 197 324 229 c 1,23,-1
 331 212 l 1,24,25
 302 180 302 180 259 159.5 c 128,-1,26
 216 139 216 139 179 139 c 0,27,28
 111 139 111 139 77.5 180 c 128,-1,29
 44 221 44 221 44 286 c 0,30,31
 44 380 44 380 114 453 c 128,-1,32
 184 526 184 526 279 526 c 0,0,1
EndSplineSet
EndChar

StartChar: colon
Encoding: 58 58 29
Width: 305
GlyphClass: 2
Flags: W
LayerCount: 2
Fore
SplineSet
60 65 m 1,0,-1
 132 134 l 1,1,2
 163 110 163 110 199 53 c 1,3,-1
 129 -11 l 1,4,5
 128 -10 128 -10 102.5 20 c 128,-1,6
 77 50 77 50 60 65 c 1,0,-1
98 440 m 1,7,-1
 170 509 l 1,8,9
 201 485 201 485 237 428 c 1,10,-1
 167 364 l 1,11,12
 166 365 166 365 140.5 395 c 128,-1,13
 115 425 115 425 98 440 c 1,7,-1
EndSplineSet
EndChar

StartChar: semicolon
Encoding: 59 59 30
Width: 312
GlyphClass: 2
Flags: W
LayerCount: 2
Fore
SplineSet
91 440 m 1,0,-1
 163 509 l 1,1,2
 194 485 194 485 230 428 c 1,3,-1
 160 364 l 1,4,5
 159 365 159 365 133.5 395 c 128,-1,6
 108 425 108 425 91 440 c 1,0,-1
60 66 m 1,7,8
 112 131 112 131 120 133 c 1,9,10
 141 116 141 116 161 89 c 128,-1,11
 181 62 181 62 187 50 c 1,12,13
 185 35 185 35 158 -12 c 128,-1,14
 131 -59 131 -59 86 -116 c 1,15,-1
 74 -104 l 1,16,17
 127 -33 127 -33 127 -17 c 1,18,19
 121 -7 121 -7 93.5 21.5 c 128,-1,20
 66 50 66 50 60 66 c 1,7,8
EndSplineSet
EndChar

StartChar: less
Encoding: 60 60 31
Width: 668
GlyphClass: 2
Flags: W
LayerCount: 2
Fore
SplineSet
532 481 m 1,0,-1
 571 441 l 1,1,2
 387 371 387 371 202 261 c 1,3,-1
 202 243 l 1,4,5
 391 128 391 128 583 41 c 1,6,-1
 548 11 l 1,7,8
 262 136 262 136 101 251 c 1,9,-1
 101 261 l 1,10,11
 314 401 314 401 532 481 c 1,0,-1
EndSplineSet
EndChar

StartChar: equal
Encoding: 61 61 32
Width: 632
GlyphClass: 2
Flags: W
LayerCount: 2
Fore
SplineSet
83 175 m 1,0,-1
 564 175 l 1,1,-1
 510 121 l 1,2,-1
 29 121 l 1,3,-1
 83 175 l 1,0,-1
120 363 m 1,4,-1
 601 363 l 1,5,-1
 547 309 l 1,6,-1
 66 309 l 1,7,-1
 120 363 l 1,4,-1
EndSplineSet
EndChar

StartChar: greater
Encoding: 62 62 33
Width: 627
GlyphClass: 2
Flags: W
LayerCount: 2
Fore
SplineSet
106 481 m 1,0,1
 324 401 324 401 537 261 c 1,2,-1
 537 251 l 1,3,4
 376 136 376 136 90 11 c 1,5,-1
 55 41 l 1,6,7
 247 128 247 128 436 243 c 1,8,-1
 436 261 l 1,9,10
 251 371 251 371 67 441 c 1,11,-1
 106 481 l 1,0,1
EndSplineSet
EndChar

StartChar: question
Encoding: 63 63 34
Width: 433
GlyphClass: 2
Flags: W
LayerCount: 2
Fore
SplineSet
159 742 m 1,0,1
 231 814 231 814 294 814 c 0,2,3
 418 814 418 814 418 705 c 0,4,5
 418 651 418 651 387.5 600.5 c 128,-1,6
 357 550 357 550 317 511 c 128,-1,7
 277 472 277 472 238 435 c 0,8,9
 144 347 144 347 144 291 c 128,-1,10
 144 235 144 235 161 207 c 1,11,12
 106 173 106 173 92 149 c 1,13,-1
 88 150 l 1,14,15
 71 195 71 195 71 249 c 0,16,17
 71 297 71 297 102 338 c 128,-1,18
 133 379 133 379 173 412.5 c 128,-1,19
 213 446 213 446 253 482 c 128,-1,20
 293 518 293 518 321 565.5 c 128,-1,21
 349 613 349 613 349 662.5 c 128,-1,22
 349 712 349 712 329 741.5 c 128,-1,23
 309 771 309 771 275 771 c 0,24,25
 214 771 214 771 162 727 c 1,26,-1
 159 742 l 1,0,1
70 49 m 1,27,-1
 142 118 l 1,28,29
 173 94 173 94 209 37 c 1,30,-1
 139 -27 l 1,31,32
 138 -26 138 -26 112.5 4 c 128,-1,33
 87 34 87 34 70 49 c 1,27,-1
EndSplineSet
EndChar

StartChar: at
Encoding: 64 64 35
Width: 892
GlyphClass: 2
Flags: W
LayerCount: 2
Fore
SplineSet
408 448 m 1,0,1
 374 419 374 419 358.5 355 c 128,-1,2
 343 291 343 291 343 229 c 1,3,4
 384 230 384 230 423.5 267.5 c 128,-1,5
 463 305 463 305 488.5 356.5 c 128,-1,6
 514 408 514 408 521 457 c 1,7,8
 446 457 446 457 408 448 c 1,0,1
530 698 m 0,9,10
 668 698 668 698 739 623.5 c 128,-1,11
 810 549 810 549 810 440 c 0,12,13
 810 363 810 363 776.5 292.5 c 128,-1,14
 743 222 743 222 677.5 175 c 128,-1,15
 612 128 612 128 529 128 c 0,16,17
 503 128 503 128 480 132 c 1,18,19
 482 152 482 152 494.5 222.5 c 128,-1,20
 507 293 507 293 507 333 c 1,21,22
 404 176 404 176 296 132 c 1,23,24
 284 157 284 157 284 234 c 2,25,-1
 284 239 l 2,26,27
 284 340 284 340 348 421 c 0,28,29
 381 463 381 463 425 480 c 1,30,31
 468 494 468 494 582 494 c 0,32,33
 602 494 602 494 602 478 c 1,34,35
 592 430 592 430 561.5 326 c 128,-1,36
 531 222 531 222 518 171 c 1,37,38
 637 189 637 189 696.5 252 c 128,-1,39
 756 315 756 315 756 398 c 0,40,41
 756 525 756 525 686.5 594.5 c 128,-1,42
 617 664 617 664 479 664 c 0,43,44
 376 664 376 664 297 608.5 c 128,-1,45
 218 553 218 553 179 469 c 128,-1,46
 140 385 140 385 140 291 c 0,47,48
 140 134 140 134 220 45.5 c 128,-1,49
 300 -43 300 -43 468 -43 c 0,50,51
 604 -43 604 -43 744 86 c 1,52,-1
 753 74 l 1,53,54
 617 -75 617 -75 444 -75 c 0,55,56
 350 -75 350 -75 277 -47.5 c 128,-1,57
 204 -20 204 -20 161 27 c 0,58,59
 75 121 75 121 75 249 c 0,60,61
 75 329 75 329 106.5 408.5 c 128,-1,62
 138 488 138 488 195 553 c 128,-1,63
 252 618 252 618 339.5 658 c 128,-1,64
 427 698 427 698 530 698 c 0,9,10
EndSplineSet
EndChar

StartChar: A
Encoding: 65 65 36
Width: 673
GlyphClass: 2
Flags: W
LayerCount: 2
Fore
SplineSet
456 696 m 1,0,-1
 350 699 l 1,1,2
 253 699 253 699 216 678 c 0,3,4
 200 669 200 669 181.5 651 c 128,-1,5
 163 633 163 633 153 607 c 0,6,7
 129 545 129 545 129 452 c 1,8,9
 98 431 98 431 60 398 c 1,10,11
 60 591 60 591 187 695 c 0,12,13
 261 755 261 755 392 755 c 0,14,15
 395 755 395 755 557 746 c 1,16,17
 528 688 528 688 528 424 c 0,18,19
 528 196 528 196 537.5 139.5 c 128,-1,20
 547 83 547 83 557.5 69 c 128,-1,21
 568 55 568 55 593 55 c 128,-1,22
 618 55 618 55 665 83 c 1,23,-1
 669 75 l 1,24,25
 615 27 615 27 552 -11 c 1,26,27
 507 -11 507 -11 490 23 c 0,28,29
 480 43 480 43 474 61 c 128,-1,30
 468 79 468 79 464 119 c 1,31,32
 460 173 460 173 458 275 c 1,33,-1
 276 275 l 1,34,35
 269 262 269 262 254 230 c 1,36,37
 222 167 222 167 205 144 c 0,38,39
 94 -8 94 -8 -33 -8 c 2,40,-1
 -95 -8 l 1,41,-1
 -48 56 l 1,42,43
 -12 47 -12 47 29.5 47 c 128,-1,44
 71 47 71 47 94.5 66 c 128,-1,45
 118 85 118 85 152 142 c 128,-1,46
 186 199 186 199 297 410 c 128,-1,47
 408 621 408 621 456 696 c 1,0,-1
457 324 m 1,48,49
 456 361 456 361 456 422 c 128,-1,50
 456 483 456 483 457 545.5 c 128,-1,51
 458 608 458 608 458 611 c 1,52,53
 428 557 428 557 376.5 457 c 128,-1,54
 325 357 325 357 307 324 c 1,55,-1
 457 324 l 1,48,49
EndSplineSet
EndChar

StartChar: B
Encoding: 66 66 37
Width: 671
GlyphClass: 2
Flags: W
LayerCount: 2
Fore
SplineSet
229.5 722.5 m 128,-1,1
 313 754 313 754 418 754 c 128,-1,2
 523 754 523 754 573 719 c 128,-1,3
 623 684 623 684 623 633 c 128,-1,4
 623 582 623 582 587 524.5 c 128,-1,5
 551 467 551 467 498 431 c 1,6,7
 569 419 569 419 603 383.5 c 128,-1,8
 637 348 637 348 637 289 c 128,-1,9
 637 230 637 230 588 160.5 c 128,-1,10
 539 91 539 91 460 45.5 c 128,-1,11
 381 0 381 0 302 0 c 2,12,-1
 84 0 l 1,13,-1
 80 8 l 1,14,15
 167 26 167 26 195 177 c 0,16,17
 213 271 213 271 230 380 c 128,-1,18
 247 489 247 489 256 539 c 0,19,20
 276 662 276 662 305 701 c 1,21,-1
 306 702 l 1,22,23
 196 700 196 700 126 625 c 128,-1,24
 56 550 56 550 56 404 c 1,25,-1
 -9 348 l 1,26,27
 -9 522 -9 522 94 635 c 0,28,0
 146 691 146 691 229.5 722.5 c 128,-1,1
446 439 m 0,29,30
 487 439 487 439 516 481 c 128,-1,31
 545 523 545 523 545 576.5 c 128,-1,32
 545 630 545 630 509.5 667.5 c 128,-1,33
 474 705 474 705 401 705 c 1,34,-1
 360 703 l 1,35,36
 352 687 352 687 347 660 c 0,37,38
 280 254 280 254 268 190 c 128,-1,39
 256 126 256 126 193 65 c 1,40,-1
 197 57 l 1,41,-1
 345 57 l 2,42,43
 448 57 448 57 507.5 112.5 c 128,-1,44
 567 168 567 168 567 236.5 c 128,-1,45
 567 305 567 305 521.5 349.5 c 128,-1,46
 476 394 476 394 391 396 c 1,47,-1
 369 396 l 1,48,-1
 398 433 l 1,49,-1
 409 446 l 1,50,51
 426 439 426 439 446 439 c 0,29,30
EndSplineSet
EndChar

StartChar: C
Encoding: 67 67 38
Width: 522
GlyphClass: 2
Flags: W
LayerCount: 2
Fore
SplineSet
412 751 m 0,0,1
 481 751 481 751 548 731 c 1,2,-1
 490 656 l 1,3,4
 435 695 435 695 377 708 c 1,5,6
 309 707 309 707 245 647 c 128,-1,7
 181 587 181 587 142.5 493 c 128,-1,8
 104 399 104 399 104 307.5 c 128,-1,9
 104 216 104 216 143.5 144.5 c 128,-1,10
 183 73 183 73 257 55 c 1,11,12
 325 67 325 67 433 148 c 1,13,-1
 442 140 l 1,14,15
 406 95 406 95 347 50 c 128,-1,16
 288 5 288 5 239 -8 c 1,17,18
 170 -8 170 -8 122 28 c 0,19,20
 36 94 36 94 36 226 c 0,21,22
 36 341 36 341 88.5 463 c 128,-1,23
 141 585 141 585 230 668 c 128,-1,24
 319 751 319 751 412 751 c 0,0,1
EndSplineSet
EndChar

StartChar: D
Encoding: 68 68 39
Width: 732
GlyphClass: 2
Flags: W
LayerCount: 2
Fore
SplineSet
266 733 m 0,0,1
 334 754 334 754 412.5 754 c 128,-1,2
 491 754 491 754 545.5 733 c 128,-1,3
 600 712 600 712 631 676 c 0,4,5
 692 604 692 604 692 494 c 0,6,7
 692 415 692 415 660 328.5 c 128,-1,8
 628 242 628 242 574 168.5 c 128,-1,9
 520 95 520 95 438.5 47.5 c 128,-1,10
 357 0 357 0 268 0 c 2,11,-1
 88 0 l 1,12,-1
 84 8 l 1,13,14
 171 26 171 26 199 177 c 0,15,16
 217 272 217 272 234 380.5 c 128,-1,17
 251 489 251 489 260 540 c 0,18,19
 280 662 280 662 309 702 c 1,20,21
 227 702 227 702 155 632 c 0,22,23
 120 598 120 598 98 538.5 c 128,-1,24
 76 479 76 479 76 404 c 1,25,-1
 11 348 l 1,26,27
 11 489 11 489 72 588 c 0,28,29
 136 693 136 693 266 733 c 0,0,1
339 57 m 2,30,31
 420 57 420 57 487 116 c 128,-1,32
 554 175 554 175 589 261.5 c 128,-1,33
 624 348 624 348 624 420.5 c 128,-1,34
 624 493 624 493 610.5 540 c 128,-1,35
 597 587 597 587 568 625 c 0,36,37
 508 705 508 705 366 705 c 1,38,39
 354 680 354 680 349 649.5 c 128,-1,40
 344 619 344 619 330 526 c 0,41,42
 306 374 306 374 273 186 c 0,43,44
 263 128 263 128 197 65 c 1,45,-1
 201 57 l 1,46,-1
 339 57 l 2,30,31
EndSplineSet
EndChar

StartChar: E
Encoding: 69 69 40
Width: 625
GlyphClass: 2
Flags: W
LayerCount: 2
Fore
SplineSet
422 381 m 2,0,-1
 288 383 l 1,1,2
 269 260 269 260 255 192.5 c 128,-1,3
 241 125 241 125 179 65 c 1,4,-1
 183 57 l 1,5,-1
 420 55 l 2,6,7
 428 54 428 54 437 54 c 0,8,9
 509 54 509 54 566 94 c 1,10,-1
 570 86 l 1,11,12
 489 24 489 24 453 -1 c 1,13,-1
 70 0 l 1,14,-1
 66 8 l 1,15,16
 153 26 153 26 181 177 c 0,17,18
 199 271 199 271 215 374.5 c 128,-1,19
 231 478 231 478 239 529 c 0,20,21
 259 654 259 654 283 694 c 1,22,-1
 242 694 l 2,23,24
 142 694 142 694 101.5 639.5 c 128,-1,25
 61 585 61 585 61 452 c 1,26,-1
 -8 398 l 1,27,28
 -8 512 -8 512 33 593 c 128,-1,29
 74 674 74 674 173 731 c 0,30,31
 208 751 208 751 322 751 c 2,32,-1
 479 751 l 2,33,34
 598 751 598 751 631 752 c 1,35,-1
 575 693 l 1,36,-1
 343 694 l 1,37,38
 336 675 336 675 333 660 c 2,39,-1
 299 445 l 1,40,-1
 313 445 l 1,41,-1
 431 441 l 1,42,43
 483 441 483 441 528 451 c 1,44,-1
 533 447 l 1,45,46
 515 421 515 421 485.5 401 c 128,-1,47
 456 381 456 381 422 381 c 2,0,-1
EndSplineSet
EndChar

StartChar: F
Encoding: 70 70 41
Width: 606
GlyphClass: 2
Flags: W
LayerCount: 2
Fore
SplineSet
429 381 m 2,0,-1
 295 383 l 1,1,2
 289 346 289 346 278.5 289 c 128,-1,3
 268 232 268 232 266 219 c 0,4,5
 246 104 246 104 189.5 47.5 c 128,-1,6
 133 -9 133 -9 51 -9 c 0,7,8
 48 -9 48 -9 45 -9 c 2,9,-1
 -9 -8 l 1,10,-1
 38 56 l 1,11,12
 74 47 74 47 107 47 c 128,-1,13
 140 47 140 47 156 63.5 c 128,-1,14
 172 80 172 80 182 129 c 0,15,16
 203 240 203 240 224 382 c 128,-1,17
 245 524 245 524 258.5 594.5 c 128,-1,18
 272 665 272 665 290 694 c 1,19,-1
 249 694 l 2,20,21
 149 694 149 694 108.5 639.5 c 128,-1,22
 68 585 68 585 68 452 c 1,23,-1
 -1 398 l 1,24,25
 -1 512 -1 512 40 593 c 128,-1,26
 81 674 81 674 180 731 c 0,27,28
 215 751 215 751 329 751 c 2,29,-1
 486 751 l 2,30,31
 605 751 605 751 638 752 c 1,32,-1
 582 693 l 1,33,-1
 350 694 l 1,34,35
 343 675 343 675 340 660 c 2,36,-1
 306 445 l 1,37,38
 314 445 314 445 324 445 c 2,39,-1
 438 441 l 1,40,41
 490 441 490 441 535 451 c 1,42,-1
 540 447 l 1,43,44
 522 421 522 421 492.5 401 c 128,-1,45
 463 381 463 381 429 381 c 2,0,-1
EndSplineSet
EndChar

StartChar: G
Encoding: 71 71 42
Width: 601
GlyphClass: 2
Flags: W
LayerCount: 2
Fore
SplineSet
67.5 427 m 128,-1,1
 100 514 100 514 156.5 589.5 c 128,-1,2
 213 665 213 665 285.5 712.5 c 128,-1,3
 358 760 358 760 427 760 c 0,4,5
 528 760 528 760 594 745 c 1,6,-1
 543 683 l 1,7,8
 474 711 474 711 396.5 711 c 128,-1,9
 319 711 319 711 248.5 642.5 c 128,-1,10
 178 574 178 574 140.5 474 c 128,-1,11
 103 374 103 374 103 281.5 c 128,-1,12
 103 189 103 189 141.5 130 c 128,-1,13
 180 71 180 71 257 53 c 1,14,15
 331 66 331 66 397 139 c 1,16,17
 403 169 403 169 412 226 c 0,18,19
 434 352 434 352 442 375 c 1,20,21
 330 375 330 375 294 358 c 1,22,-1
 283 366 l 1,23,-1
 366 428 l 1,24,25
 396 431 396 431 538 431 c 1,26,-1
 539 427 l 1,27,28
 525 419 525 419 510.5 396 c 128,-1,29
 496 373 496 373 491 340 c 0,30,31
 449 93 449 93 425.5 14.5 c 128,-1,32
 402 -64 402 -64 335 -137 c 1,33,-1
 339 -145 l 1,34,35
 386 -151 386 -151 433 -151 c 128,-1,36
 480 -151 480 -151 519 -146 c 1,37,-1
 523 -154 l 1,38,39
 477 -186 477 -186 456 -200 c 1,40,-1
 226 -202 l 1,41,-1
 222 -194 l 1,42,43
 285 -154 285 -154 324.5 -89 c 128,-1,44
 364 -24 364 -24 393 107 c 1,45,46
 333 17 333 17 238 -10 c 1,47,48
 108 -10 108 -10 60 106 c 0,49,50
 35 168 35 168 35 254 c 128,-1,0
 35 340 35 340 67.5 427 c 128,-1,1
EndSplineSet
EndChar

StartChar: H
Encoding: 72 72 43
Width: 801
GlyphClass: 2
Flags: W
LayerCount: 2
Fore
SplineSet
320 750 m 2,0,-1
 414 750 l 1,1,-1
 415 747 l 1,2,3
 405 740 405 740 391 717.5 c 128,-1,4
 377 695 377 695 364 650.5 c 128,-1,5
 351 606 351 606 330 442 c 1,6,-1
 632 441 l 1,7,8
 653 573 653 573 662.5 620 c 128,-1,9
 672 667 672 667 689 694 c 1,10,11
 668 695 668 695 629.5 695 c 128,-1,12
 591 695 591 695 543 688 c 1,13,-1
 542 690 l 1,14,15
 573 727 573 727 612 739 c 128,-1,16
 651 751 651 751 734 751 c 2,17,-1
 788 751 l 1,18,-1
 789 748 l 1,19,20
 751 724 751 724 740 660 c 0,21,22
 735 629 735 629 706.5 456.5 c 128,-1,23
 678 284 678 284 662 186 c 0,24,25
 652 128 652 128 586 65 c 1,26,-1
 590 57 l 1,27,-1
 651 57 l 2,28,29
 723 57 723 57 778 94 c 1,30,-1
 782 86 l 1,31,32
 749 59 749 59 737 48.5 c 128,-1,33
 725 38 725 38 714 29 c 128,-1,34
 703 20 703 20 697 16 c 128,-1,35
 691 12 691 12 684 8 c 0,36,37
 671 -1 671 -1 665 -1 c 0,38,39
 543 -1 543 -1 477 0 c 1,40,-1
 473 8 l 1,41,42
 560 26 560 26 588 177 c 0,43,44
 600 241 600 241 625 391 c 1,45,-1
 322 393 l 1,46,47
 305 281 305 281 294 219 c 0,48,49
 273 104 273 104 216.5 47.5 c 128,-1,50
 160 -9 160 -9 79 -9 c 0,51,52
 76 -9 76 -9 73 -9 c 2,53,-1
 19 -8 l 1,54,-1
 66 56 l 1,55,56
 102 47 102 47 134.5 47 c 128,-1,57
 167 47 167 47 182 63 c 128,-1,58
 197 79 197 79 207 129 c 0,59,60
 230 251 230 251 252 394 c 128,-1,61
 274 537 274 537 286.5 603 c 128,-1,62
 299 669 299 669 314 694 c 1,63,-1
 239 695 l 2,64,65
 237 695 237 695 236 695 c 0,66,67
 141 695 141 695 100.5 639.5 c 128,-1,68
 60 584 60 584 60 452 c 1,69,-1
 -9 398 l 1,70,71
 -9 512 -9 512 32 593 c 128,-1,72
 73 674 73 674 172 731 c 0,73,74
 205 750 205 750 320 750 c 2,0,-1
EndSplineSet
EndChar

StartChar: I
Encoding: 73 73 44
Width: 441
GlyphClass: 2
Flags: W
LayerCount: 2
Fore
SplineSet
309 -1 m 1,0,-1
 100 0 l 1,1,-1
 96 8 l 1,2,3
 183 26 183 26 211 177 c 0,4,5
 235 309 235 309 257 448.5 c 128,-1,6
 279 588 279 588 289.5 631 c 128,-1,7
 300 674 300 674 312 694 c 1,8,-1
 245 694 l 2,9,10
 145 694 145 694 104.5 639.5 c 128,-1,11
 64 585 64 585 64 452 c 1,12,-1
 -5 398 l 1,13,14
 -5 512 -5 512 36 593 c 128,-1,15
 77 674 77 674 176 731 c 0,16,17
 211 751 211 751 321 751 c 2,18,-1
 411 751 l 1,19,-1
 412 748 l 1,20,21
 374 724 374 724 363 660 c 0,22,23
 356 619 356 619 342 526 c 0,24,25
 318 374 318 374 285 186 c 1,26,27
 271 124 271 124 209 65 c 1,28,-1
 213 57 l 1,29,30
 237 56 237 56 270.5 56 c 128,-1,31
 304 56 304 56 343.5 61.5 c 128,-1,32
 383 67 383 67 422 94 c 1,33,-1
 426 86 l 1,34,35
 324 0 324 0 309 -1 c 1,0,-1
EndSplineSet
EndChar

StartChar: J
Encoding: 74 74 45
Width: 503
GlyphClass: 2
Flags: W
LayerCount: 2
Fore
SplineSet
396 751 m 2,0,-1
 486 751 l 1,1,-1
 487 748 l 1,2,3
 472 739 472 739 458 716 c 128,-1,4
 444 693 444 693 439 660 c 0,5,6
 394 356 394 356 328 11 c 0,7,8
 315 -55 315 -55 255 -118.5 c 128,-1,9
 195 -182 195 -182 113 -202 c 1,10,11
 54 -202 54 -202 -32 -136 c 0,12,13
 -53 -121 -53 -121 -54 -120 c 1,14,-1
 4 -81 l 1,15,16
 25 -101 25 -101 38 -111.5 c 128,-1,17
 51 -122 51 -122 77.5 -135 c 128,-1,18
 104 -148 104 -148 129 -148 c 0,19,20
 181 -148 181 -148 219.5 -104 c 128,-1,21
 258 -60 258 -60 270 26 c 0,22,23
 310 310 310 310 369 643 c 0,24,25
 375 676 375 676 390 694 c 1,26,-1
 321 694 l 2,27,28
 221 694 221 694 180.5 639.5 c 128,-1,29
 140 585 140 585 140 452 c 1,30,-1
 71 398 l 1,31,32
 71 512 71 512 112 593 c 128,-1,33
 153 674 153 674 252 731 c 0,34,35
 287 751 287 751 396 751 c 2,0,-1
EndSplineSet
EndChar

StartChar: K
Encoding: 75 75 46
Width: 724
GlyphClass: 2
Flags: W
LayerCount: 2
Fore
SplineSet
323 750 m 2,0,-1
 417 750 l 1,1,-1
 418 747 l 1,2,3
 408 740 408 740 394 717.5 c 128,-1,4
 380 695 380 695 369 657.5 c 128,-1,5
 358 620 358 620 343 531 c 128,-1,6
 328 442 328 442 315 344.5 c 128,-1,7
 302 247 302 247 297 219 c 0,8,9
 276 106 276 106 221 49 c 128,-1,10
 166 -8 166 -8 83 -8 c 2,11,-1
 22 -8 l 1,12,-1
 69 56 l 1,13,14
 105 47 105 47 137.5 47 c 128,-1,15
 170 47 170 47 185 63 c 128,-1,16
 200 79 200 79 210 129 c 0,17,18
 233 251 233 251 255 394 c 128,-1,19
 277 537 277 537 289.5 603.5 c 128,-1,20
 302 670 302 670 317 695 c 1,21,-1
 237 695 l 2,22,23
 142 695 142 695 102.5 638.5 c 128,-1,24
 63 582 63 582 63 452 c 1,25,-1
 -6 398 l 1,26,27
 -6 512 -6 512 35 593 c 128,-1,28
 76 674 76 674 175 731 c 0,29,30
 208 750 208 750 323 750 c 2,0,-1
743 716 m 1,31,-1
 668 666 l 1,32,33
 631 685 631 685 592 685 c 128,-1,34
 553 685 553 685 518.5 655.5 c 128,-1,35
 484 626 484 626 466 582 c 0,36,37
 429 495 429 495 429 419 c 1,38,39
 489 293 489 293 571.5 155 c 128,-1,40
 654 17 654 17 725 -78 c 1,41,-1
 690 -113 l 1,42,43
 524 67 524 67 360 339 c 1,44,45
 360 432 360 432 387.5 507.5 c 128,-1,46
 415 583 415 583 453.5 627 c 128,-1,47
 492 671 492 671 538 701 c 0,48,49
 615 752 615 752 665.5 752 c 128,-1,50
 716 752 716 752 743 716 c 1,31,-1
EndSplineSet
EndChar

StartChar: L
Encoding: 76 76 47
Width: 419
GlyphClass: 2
Flags: W
LayerCount: 2
Fore
SplineSet
527 -172 m 128,-1,1
 484 -195 484 -195 441 -195 c 128,-1,2
 398 -195 398 -195 353 -174 c 128,-1,3
 308 -153 308 -153 266 -123.5 c 128,-1,4
 224 -94 224 -94 182 -64 c 0,5,6
 83 8 83 8 15 8 c 0,7,8
 -14 8 -14 8 -46 0 c 1,9,-1
 -50 8 l 1,10,11
 37 26 37 26 65 177 c 1,12,13
 92 317 92 317 106.5 425 c 128,-1,14
 121 533 121 533 125 560 c 0,15,16
 137 634 137 634 210.5 693 c 128,-1,17
 284 752 284 752 365 752 c 0,18,19
 420 752 420 752 465 717 c 1,20,-1
 406 667 l 1,21,22
 345 713 345 713 299 713 c 0,23,24
 224 713 224 713 203 589 c 0,25,26
 187 498 187 498 166 357 c 128,-1,27
 145 216 145 216 139 186 c 0,28,29
 127 126 127 126 63 65 c 1,30,-1
 67 57 l 1,31,32
 141 57 141 57 239 -15 c 0,33,34
 280 -45 280 -45 320 -76 c 1,35,36
 417 -148 417 -148 485 -148 c 0,37,38
 537 -148 537 -148 581 -103 c 1,39,-1
 590 -111 l 1,40,0
 570 -149 570 -149 527 -172 c 128,-1,1
EndSplineSet
EndChar

StartChar: M
Encoding: 77 77 48
Width: 992
GlyphClass: 2
Flags: W
LayerCount: 2
Fore
SplineSet
432 697 m 1,0,-1
 327 700 l 1,1,2
 230 700 230 700 193 679 c 0,3,4
 177 670 177 670 158.5 652 c 128,-1,5
 140 634 140 634 130 608 c 0,6,7
 106 546 106 546 106 453 c 1,8,9
 75 432 75 432 37 399 c 1,10,11
 37 592 37 592 164 696 c 0,12,13
 238 756 238 756 369 756 c 0,14,15
 400 756 400 756 533 746 c 1,16,17
 551 556 551 556 551 294 c 2,18,-1
 551 182 l 1,19,20
 587 304 587 304 646.5 431.5 c 128,-1,21
 706 559 706 559 774.5 653.5 c 128,-1,22
 843 748 843 748 894 759 c 1,23,24
 857 429 857 429 857 247 c 0,25,26
 857 144 857 144 869 66 c 1,27,28
 909 66 909 66 956 94 c 1,29,-1
 960 86 l 1,30,31
 888 23 888 23 804 -16 c 1,32,33
 785 78 785 78 785 222 c 0,34,35
 785 440 785 440 821 611 c 1,36,37
 747 549 747 549 669 384 c 0,38,39
 624 288 624 288 568 161.5 c 128,-1,40
 512 35 512 35 488 -19 c 1,41,-1
 484 -18 l 1,42,-1
 485 34 l 1,43,44
 485 136 485 136 475 364 c 128,-1,45
 465 592 465 592 465 628 c 2,46,-1
 465 640 l 1,47,-1
 286 173 l 2,48,49
 256 95 256 95 189 44 c 128,-1,50
 122 -7 122 -7 32 -7 c 2,51,-1
 -29 -7 l 1,52,-1
 18 57 l 1,53,54
 54 48 54 48 88.5 48 c 128,-1,55
 123 48 123 48 146.5 56 c 128,-1,56
 170 64 170 64 185.5 83 c 128,-1,57
 201 102 201 102 208.5 116.5 c 128,-1,58
 216 131 216 131 227 161 c 2,59,-1
 418 674 l 2,60,61
 424 690 424 690 432 697 c 1,0,-1
EndSplineSet
EndChar

StartChar: N
Encoding: 78 78 49
Width: 809
GlyphClass: 2
Flags: W
LayerCount: 2
Fore
SplineSet
300 750 m 2,0,-1
 388 750 l 1,1,2
 508 423 508 423 581 113 c 1,3,4
 591 172 591 172 613 322.5 c 128,-1,5
 635 473 635 473 653 564.5 c 128,-1,6
 671 656 671 656 691 694 c 1,7,8
 670 695 670 695 631.5 695 c 128,-1,9
 593 695 593 695 545 688 c 1,10,-1
 544 690 l 1,11,12
 575 727 575 727 614 739 c 128,-1,13
 653 751 653 751 736 751 c 2,14,-1
 790 751 l 1,15,-1
 791 748 l 1,16,17
 753 724 753 724 742 660 c 2,18,-1
 666 218 l 2,19,20
 649 119 649 119 620.5 67.5 c 128,-1,21
 592 16 592 16 534 -10 c 1,22,-1
 530 -2 l 1,23,-1
 557 13 l 1,24,25
 516 138 516 138 449 329 c 128,-1,26
 382 520 382 520 338 655 c 1,27,28
 322 578 322 578 305 436.5 c 128,-1,29
 288 295 288 295 276 228 c 0,30,31
 255 113 255 113 198.5 56.5 c 128,-1,32
 142 0 142 0 61 0 c 0,33,34
 58 0 58 0 55 0 c 2,35,-1
 1 1 l 1,36,-1
 48 65 l 1,37,38
 84 56 84 56 116.5 56 c 128,-1,39
 149 56 149 56 164 72 c 128,-1,40
 179 88 179 88 189 138 c 0,41,42
 213 263 213 263 233.5 403 c 128,-1,43
 254 543 254 543 265.5 607.5 c 128,-1,44
 277 672 277 672 291 694 c 1,45,-1
 219 695 l 2,46,47
 217 695 217 695 216 695 c 0,48,49
 121 695 121 695 80.5 639.5 c 128,-1,50
 40 584 40 584 40 452 c 1,51,-1
 -29 398 l 1,52,53
 -29 512 -29 512 12 593 c 128,-1,54
 53 674 53 674 152 731 c 0,55,56
 185 750 185 750 300 750 c 2,0,-1
EndSplineSet
EndChar

StartChar: O
Encoding: 79 79 50
Width: 582
GlyphClass: 2
Flags: W
LayerCount: 2
Fore
SplineSet
507 660 m 128,-1,1
 544 589 544 589 544 487.5 c 128,-1,2
 544 386 544 386 499 281.5 c 128,-1,3
 454 177 454 177 373.5 98.5 c 128,-1,4
 293 20 293 20 198 -5 c 1,5,6
 117 16 117 16 76 81 c 128,-1,7
 35 146 35 146 35 237 c 0,8,9
 35 403 35 403 140.5 558.5 c 128,-1,10
 246 714 246 714 394 753 c 1,11,0
 470 731 470 731 507 660 c 128,-1,1
476 429 m 0,12,13
 476 523 476 523 443 595 c 128,-1,14
 410 667 410 667 342 697 c 1,15,16
 240 666 240 666 171.5 546.5 c 128,-1,17
 103 427 103 427 103 297 c 0,18,19
 103 210 103 210 139.5 144 c 128,-1,20
 176 78 176 78 250 51 c 1,21,22
 347 80 347 80 411.5 192.5 c 128,-1,23
 476 305 476 305 476 429 c 0,12,13
EndSplineSet
EndChar

StartChar: P
Encoding: 80 80 51
Width: 653
GlyphClass: 2
Flags: W
LayerCount: 2
Fore
SplineSet
229.5 722.5 m 128,-1,1
 313 754 313 754 422 754 c 128,-1,2
 531 754 531 754 589.5 715 c 128,-1,3
 648 676 648 676 648 611 c 0,4,5
 648 562 648 562 618 503.5 c 128,-1,6
 588 445 588 445 529 400 c 128,-1,7
 470 355 470 355 401 355 c 0,8,9
 386 355 386 355 379 356 c 1,10,-1
 419 406 l 1,11,12
 436 399 436 399 456 399 c 0,13,14
 513 399 513 399 543 444.5 c 128,-1,15
 573 490 573 490 573 553.5 c 128,-1,16
 573 617 573 617 524.5 661 c 128,-1,17
 476 705 476 705 388 705 c 2,18,-1
 369 705 l 1,19,20
 358 682 358 682 352.5 650.5 c 128,-1,21
 347 619 347 619 332 526 c 0,22,23
 309 374 309 374 276 186 c 0,24,25
 266 128 266 128 200 65 c 1,26,-1
 204 57 l 1,27,-1
 265 57 l 2,28,29
 337 57 337 57 392 94 c 1,30,-1
 396 86 l 1,31,32
 363 59 363 59 351 48.5 c 128,-1,33
 339 38 339 38 328 29 c 128,-1,34
 317 20 317 20 311 16 c 128,-1,35
 305 12 305 12 298 8 c 0,36,37
 285 -1 285 -1 279 -1 c 0,38,39
 157 -1 157 -1 91 0 c 1,40,-1
 87 8 l 1,41,42
 174 26 174 26 202 177 c 0,43,44
 229 325 229 325 250 457 c 128,-1,45
 271 589 271 589 283.5 634.5 c 128,-1,46
 296 680 296 680 313 702 c 1,47,48
 201 702 201 702 128.5 627.5 c 128,-1,49
 56 553 56 553 56 404 c 1,50,-1
 -9 348 l 1,51,52
 -9 522 -9 522 94 635 c 0,53,0
 146 691 146 691 229.5 722.5 c 128,-1,1
EndSplineSet
EndChar

StartChar: Q
Encoding: 81 81 52
Width: 649
GlyphClass: 2
Flags: W
LayerCount: 2
Fore
SplineSet
69 386 m 0,0,1
 69 537 69 537 175 645 c 128,-1,2
 281 753 281 753 445 753 c 1,3,4
 520 731 520 731 556.5 662.5 c 128,-1,5
 593 594 593 594 593 505 c 0,6,7
 593 374 593 374 490.5 244 c 128,-1,8
 388 114 388 114 251 47 c 1,9,10
 271 39 271 39 328 10 c 0,11,12
 439 -47 439 -47 508 -47 c 0,13,14
 553 -47 553 -47 623 -13 c 1,15,-1
 633 -24 l 1,16,17
 528 -104 528 -104 441 -104 c 0,18,19
 376 -104 376 -104 276 -38 c 1,20,21
 240 -13 240 -13 184 8 c 128,-1,22
 128 29 128 29 84.5 29 c 128,-1,23
 41 29 41 29 9 21 c 1,24,-1
 5 29 l 1,25,-1
 86 79 l 1,26,27
 124 64 124 64 161 64 c 0,28,29
 226 64 226 64 293.5 102.5 c 128,-1,30
 361 141 361 141 411.5 198.5 c 128,-1,31
 462 256 462 256 494 325 c 128,-1,32
 526 394 526 394 526 462.5 c 128,-1,33
 526 531 526 531 493 599.5 c 128,-1,34
 460 668 460 668 393 697 c 1,35,36
 137 697 137 697 137 428 c 0,37,38
 137 317 137 317 231 278 c 1,39,-1
 170 223 l 1,40,41
 124 239 124 239 96.5 282 c 128,-1,42
 69 325 69 325 69 386 c 0,0,1
EndSplineSet
EndChar

StartChar: R
Encoding: 82 82 53
Width: 721
GlyphClass: 2
Flags: W
LayerCount: 2
Fore
SplineSet
232.5 722.5 m 128,-1,1
 316 754 316 754 425 754 c 128,-1,2
 534 754 534 754 592.5 715 c 128,-1,3
 651 676 651 676 651 606.5 c 128,-1,4
 651 537 651 537 593.5 475.5 c 128,-1,5
 536 414 536 414 438 391 c 1,6,7
 593 89 593 89 728 -79 c 1,8,-1
 698 -113 l 1,9,10
 500 102 500 102 343 383 c 1,11,-1
 376 418 l 1,12,-1
 415 418 l 2,13,14
 491 418 491 418 533.5 458.5 c 128,-1,15
 576 499 576 499 576 558 c 128,-1,16
 576 617 576 617 527.5 661 c 128,-1,17
 479 705 479 705 391 705 c 2,18,-1
 372 705 l 1,19,20
 361 682 361 682 355.5 650.5 c 128,-1,21
 350 619 350 619 336 526 c 0,22,23
 312 374 312 374 279 186 c 0,24,25
 269 128 269 128 203 65 c 1,26,-1
 207 57 l 1,27,-1
 268 57 l 2,28,29
 340 57 340 57 395 94 c 1,30,-1
 399 86 l 1,31,32
 366 59 366 59 354 48.5 c 128,-1,33
 342 38 342 38 331 29 c 128,-1,34
 320 20 320 20 314 16 c 128,-1,35
 308 12 308 12 301 8 c 0,36,37
 288 -1 288 -1 282 -1 c 0,38,39
 160 -1 160 -1 94 0 c 1,40,-1
 90 8 l 1,41,42
 177 26 177 26 205 177 c 0,43,44
 232 325 232 325 253 457 c 128,-1,45
 274 589 274 589 286.5 634.5 c 128,-1,46
 299 680 299 680 316 702 c 1,47,48
 204 702 204 702 131.5 627.5 c 128,-1,49
 59 553 59 553 59 404 c 1,50,-1
 -6 348 l 1,51,52
 -6 522 -6 522 98 635 c 0,53,0
 149 691 149 691 232.5 722.5 c 128,-1,1
EndSplineSet
EndChar

StartChar: S
Encoding: 83 83 54
Width: 493
GlyphClass: 2
Flags: W
LayerCount: 2
Fore
SplineSet
178 707 m 128,-1,1
 246 760 246 760 329.5 760 c 128,-1,2
 413 760 413 760 483 734 c 1,3,-1
 426 668 l 1,4,5
 360 698 360 698 292 698 c 0,6,7
 165 698 165 698 165 641 c 0,8,9
 165 604 165 604 197.5 552.5 c 128,-1,10
 230 501 230 501 269 456.5 c 128,-1,11
 308 412 308 412 340.5 358.5 c 128,-1,12
 373 305 373 305 373 266 c 0,13,14
 373 155 373 155 301 73.5 c 128,-1,15
 229 -8 229 -8 131.5 -8 c 128,-1,16
 34 -8 34 -8 -25 38 c 1,17,-1
 32 102 l 1,18,19
 116 49 116 49 183 49 c 0,20,21
 231 49 231 49 271.5 92 c 128,-1,22
 312 135 312 135 312 180.5 c 128,-1,23
 312 226 312 226 280.5 281.5 c 128,-1,24
 249 337 249 337 211 381.5 c 128,-1,25
 173 426 173 426 141.5 480 c 128,-1,26
 110 534 110 534 110 576 c 0,27,0
 110 654 110 654 178 707 c 128,-1,1
EndSplineSet
EndChar

StartChar: T
Encoding: 84 84 55
Width: 574
GlyphClass: 2
Flags: W
LayerCount: 2
Fore
SplineSet
627 693 m 1,0,-1
 415 694 l 1,1,2
 408 675 408 675 405 660 c 0,3,4
 339 252 339 252 327 186 c 1,5,6
 313 124 313 124 251 65 c 1,7,-1
 255 57 l 1,8,-1
 309 54 l 1,9,10
 400 54 400 54 455 94 c 1,11,-1
 459 86 l 1,12,13
 378 24 378 24 342 -1 c 1,14,-1
 142 0 l 1,15,-1
 138 8 l 1,16,17
 225 26 225 26 253 177 c 0,18,19
 271 271 271 271 287 374.5 c 128,-1,20
 303 478 303 478 311 529 c 0,21,22
 331 654 331 654 355 694 c 1,23,-1
 244 694 l 2,24,25
 144 694 144 694 103.5 639.5 c 128,-1,26
 63 585 63 585 63 452 c 1,27,-1
 -6 398 l 1,28,29
 -6 512 -6 512 35 593 c 128,-1,30
 76 674 76 674 175 731 c 0,31,32
 202 747 202 747 254.5 749 c 128,-1,33
 307 751 307 751 394 751 c 2,34,-1
 551 751 l 2,35,36
 654 751 654 751 683 752 c 1,37,-1
 627 693 l 1,0,-1
EndSplineSet
EndChar

StartChar: U
Encoding: 85 85 56
Width: 803
GlyphClass: 2
Flags: W
LayerCount: 2
Fore
SplineSet
320 750 m 2,0,-1
 414 750 l 1,1,-1
 415 747 l 1,2,3
 405 740 405 740 391 717.5 c 128,-1,4
 377 695 377 695 369 666 c 1,5,6
 297 274 297 274 297 187 c 0,7,8
 297 65 297 65 377 65 c 0,9,10
 411 65 411 65 448.5 100.5 c 128,-1,11
 486 136 486 136 515 186 c 0,12,13
 577 295 577 295 593 371 c 2,14,-1
 657 694 l 1,15,16
 664 712 664 712 684 725 c 128,-1,17
 704 738 704 738 718.5 742 c 128,-1,18
 733 746 733 746 758 751 c 1,19,-1
 759 748 l 1,20,21
 721 724 721 724 710 660 c 0,22,23
 704 625 704 625 687 528 c 0,24,25
 630 201 630 201 630 155.5 c 128,-1,26
 630 110 630 110 650.5 88 c 128,-1,27
 671 66 671 66 705.5 66 c 128,-1,28
 740 66 740 66 787 94 c 1,29,-1
 791 86 l 1,30,31
 737 38 737 38 674 0 c 1,32,33
 571 1 571 1 571 141 c 0,34,35
 571 184 571 184 583 256 c 1,36,-1
 578 256 l 1,37,38
 543 160 543 160 462 79.5 c 128,-1,39
 381 -1 381 -1 319 -1 c 0,40,41
 224 -1 224 -1 224 159 c 0,42,43
 224 212 224 212 233 268.5 c 128,-1,44
 242 325 242 325 252 398 c 2,45,-1
 268 510 l 2,46,47
 283 612 283 612 293.5 645 c 128,-1,48
 304 678 304 678 314 695 c 1,49,-1
 234 695 l 2,50,51
 139 695 139 695 99.5 638.5 c 128,-1,52
 60 582 60 582 60 452 c 1,53,-1
 -9 398 l 1,54,55
 -9 512 -9 512 32 593 c 128,-1,56
 73 674 73 674 172 731 c 0,57,58
 205 750 205 750 320 750 c 2,0,-1
EndSplineSet
EndChar

StartChar: V
Encoding: 86 86 57
Width: 690
GlyphClass: 2
Flags: W
LayerCount: 2
Fore
SplineSet
278 757 m 0,0,1
 330 757 330 757 359 708 c 0,2,3
 391 653 391 653 400.5 591 c 128,-1,4
 410 529 410 529 414.5 485.5 c 128,-1,5
 419 442 419 442 422 378 c 0,6,7
 425 290 425 290 425 134 c 1,8,9
 434 165 434 165 454 204.5 c 128,-1,10
 474 244 474 244 536 360 c 0,11,12
 678 627 678 627 678 661 c 0,13,14
 678 684 678 684 642 684 c 2,15,-1
 585 684 l 1,16,-1
 584 688 l 1,17,-1
 657 733 l 1,18,-1
 696 733 l 2,19,20
 753 733 753 733 753 693 c 0,21,22
 753 667 753 667 705 575 c 128,-1,23
 657 483 657 483 630 433.5 c 128,-1,24
 603 384 603 384 573.5 331 c 128,-1,25
 544 278 544 278 501 200.5 c 128,-1,26
 458 123 458 123 414 28 c 1,27,-1
 347 -9 l 1,28,29
 358 74 358 74 358 184.5 c 128,-1,30
 358 295 358 295 351.5 376 c 128,-1,31
 345 457 345 457 331 533 c 128,-1,32
 317 609 317 609 289.5 654.5 c 128,-1,33
 262 700 262 700 225 700 c 0,34,35
 170 700 170 700 117 653 c 0,36,37
 89 628 89 628 71.5 576 c 128,-1,38
 54 524 54 524 54 453 c 1,39,40
 23 432 23 432 -15 399 c 1,41,42
 -15 543 -15 543 72 650 c 128,-1,43
 159 757 159 757 278 757 c 0,0,1
EndSplineSet
EndChar

StartChar: W
Encoding: 87 87 58
Width: 978
GlyphClass: 2
Flags: W
LayerCount: 2
Fore
SplineSet
278 757 m 0,0,1
 421 757 421 757 421 361 c 0,2,3
 421 259 421 259 412 153 c 1,4,5
 468 252 468 252 543 436 c 128,-1,6
 618 620 618 620 644 681 c 1,7,-1
 761 753 l 1,8,-1
 767 746 l 1,9,10
 694 660 694 660 694 492 c 0,11,12
 694 398 694 398 720 136 c 1,13,14
 771 204 771 204 847.5 379.5 c 128,-1,15
 924 555 924 555 924 637 c 0,16,17
 924 684 924 684 892 684 c 2,18,-1
 845 684 l 1,19,-1
 844 688 l 1,20,-1
 920 733 l 1,21,-1
 959 733 l 2,22,23
 1016 733 1016 733 1016 705 c 2,24,-1
 1016 701 l 1,25,26
 999 615 999 615 954.5 502.5 c 128,-1,27
 910 390 910 390 872 316 c 0,28,29
 816 204 816 204 720 25 c 1,30,-1
 684 -10 l 1,31,32
 654 144 654 144 642.5 241 c 128,-1,33
 631 338 631 338 631 482 c 2,34,-1
 631 537 l 1,35,36
 551 342 551 342 513 262 c 128,-1,37
 475 182 475 182 393 28 c 1,38,-1
 324 -9 l 1,39,-1
 331 48 l 2,40,41
 346 166 346 166 346 318 c 0,42,43
 346 700 346 700 225 700 c 0,44,45
 170 700 170 700 117 653 c 0,46,47
 89 628 89 628 71.5 576 c 128,-1,48
 54 524 54 524 54 453 c 1,49,50
 23 432 23 432 -15 399 c 1,51,52
 -15 543 -15 543 72 650 c 128,-1,53
 159 757 159 757 278 757 c 0,0,1
EndSplineSet
EndChar

StartChar: X
Encoding: 88 88 59
Width: 748
GlyphClass: 2
Flags: W
LayerCount: 2
Fore
SplineSet
669.5 743 m 128,-1,1
 699 757 699 757 741.5 757 c 128,-1,2
 784 757 784 757 821 737 c 1,3,-1
 772 676 l 1,4,5
 718 714 718 714 689 714 c 0,6,7
 650 714 650 714 615 655 c 0,8,9
 589 611 589 611 478 407 c 1,10,-1
 484 379 l 1,11,12
 505 274 505 274 550 164 c 128,-1,13
 595 54 595 54 630 54 c 0,14,15
 682 54 682 54 767 124 c 1,16,-1
 776 116 l 1,17,18
 743 77 743 77 695.5 41 c 128,-1,19
 648 5 648 5 600 -8 c 1,20,21
 510 -8 510 -8 423 309 c 1,22,23
 358 213 358 213 301 148 c 0,24,25
 211 44 211 44 115 13 c 0,26,27
 76 0 76 0 41 0 c 2,28,-1
 -20 0 l 1,29,-1
 27 65 l 1,30,31
 63 56 63 56 107 56 c 128,-1,32
 151 56 151 56 183 79.5 c 128,-1,33
 215 103 215 103 255.5 159.5 c 128,-1,34
 296 216 296 216 405 387 c 1,35,-1
 399 413 l 1,36,37
 356 608 356 608 321 668 c 0,38,39
 301 702 301 702 277 718 c 1,40,41
 205 718 205 718 170.5 667.5 c 128,-1,42
 136 617 136 617 136 508 c 1,43,-1
 67 454 l 1,44,45
 67 581 67 581 131 669 c 128,-1,46
 195 757 195 757 321 757 c 0,47,48
 361 757 361 757 386 714 c 0,49,50
 415 663 415 663 427 620 c 0,51,52
 443 558 443 558 456 498 c 2,53,-1
 461 475 l 1,54,55
 464 479 464 479 471.5 494 c 128,-1,56
 479 509 479 509 496.5 539 c 128,-1,57
 514 569 514 569 528.5 593.5 c 128,-1,58
 543 618 543 618 570.5 656.5 c 128,-1,59
 598 695 598 695 619 712 c 128,-1,0
 640 729 640 729 669.5 743 c 128,-1,1
EndSplineSet
EndChar

StartChar: Y
Encoding: 89 89 60
Width: 674
GlyphClass: 2
Flags: W
LayerCount: 2
Fore
SplineSet
230 757 m 0,0,1
 263 757 263 757 291.5 721.5 c 128,-1,2
 320 686 320 686 347 598 c 128,-1,3
 374 510 374 510 385 464 c 0,4,5
 416 338 416 338 436 236 c 1,6,7
 572 473 572 473 613.5 554.5 c 128,-1,8
 655 636 655 636 655 653.5 c 128,-1,9
 655 671 655 671 636.5 677.5 c 128,-1,10
 618 684 618 684 563 684 c 1,11,-1
 562 688 l 1,12,-1
 637 733 l 1,13,-1
 676 733 l 2,14,15
 731 733 731 733 731 693 c 0,16,17
 731 648 731 648 579 380 c 0,18,19
 514 266 514 266 512 262 c 0,20,21
 391 35 391 35 322 -51 c 128,-1,22
 253 -137 253 -137 152 -183 c 1,23,24
 77 -173 77 -173 -15 -101 c 1,25,-1
 43 -59 l 1,26,27
 108 -119 108 -119 170 -119 c 0,28,29
 218 -119 218 -119 264.5 -59.5 c 128,-1,30
 311 0 311 0 392 154 c 1,31,32
 385 179 385 179 362 271 c 128,-1,33
 339 363 339 363 325.5 413.5 c 128,-1,34
 312 464 312 464 291 536 c 0,35,36
 250 676 250 676 216 718 c 1,37,38
 149 718 149 718 117 667.5 c 128,-1,39
 85 617 85 617 85 508 c 1,40,-1
 16 454 l 1,41,42
 16 572 16 572 79 664.5 c 128,-1,43
 142 757 142 757 230 757 c 0,0,1
EndSplineSet
EndChar

StartChar: Z
Encoding: 90 90 61
Width: 537
GlyphClass: 2
Flags: W
LayerCount: 2
Fore
SplineSet
170 735 m 128,-1,1
 216 759 216 759 272 759 c 128,-1,2
 328 759 328 759 395 738.5 c 128,-1,3
 462 718 462 718 499 718 c 0,4,5
 562 718 562 718 644 755 c 1,6,-1
 651 748 l 1,7,8
 554 660 554 660 372 404 c 0,9,10
 307 312 307 312 230.5 223 c 128,-1,11
 154 134 154 134 98 98 c 1,12,-1
 102 90 l 1,13,14
 156 90 156 90 215 62.5 c 128,-1,15
 274 35 274 35 317 2.5 c 128,-1,16
 360 -30 360 -30 418 -57.5 c 128,-1,17
 476 -85 476 -85 527.5 -85 c 128,-1,18
 579 -85 579 -85 613 -31 c 1,19,-1
 625 -34 l 1,20,21
 612 -81 612 -81 564.5 -111.5 c 128,-1,22
 517 -142 517 -142 467 -142 c 128,-1,23
 417 -142 417 -142 358.5 -112 c 128,-1,24
 300 -82 300 -82 252 -45.5 c 128,-1,25
 204 -9 204 -9 144.5 21 c 128,-1,26
 85 51 85 51 48 51 c 128,-1,27
 11 51 11 51 -21 43 c 1,28,-1
 -25 51 l 1,29,30
 108 192 108 192 182 272.5 c 128,-1,31
 256 353 256 353 348.5 464.5 c 128,-1,32
 441 576 441 576 502 666 c 1,33,34
 476 663 476 663 456 663 c 0,35,36
 401 663 401 663 331 688.5 c 128,-1,37
 261 714 261 714 226 714 c 128,-1,38
 191 714 191 714 170 708 c 1,39,40
 120 662 120 662 120 539 c 1,41,-1
 51 485 l 1,42,43
 51 591 51 591 99 670 c 0,44,0
 124 711 124 711 170 735 c 128,-1,1
EndSplineSet
EndChar

StartChar: bracketleft
Encoding: 91 91 62
Width: 420
GlyphClass: 2
Flags: W
LayerCount: 2
Fore
SplineSet
235 820 m 1,0,-1
 442 820 l 1,1,-1
 424 797 l 1,2,-1
 296 797 l 1,3,4
 214 248 214 248 176 -64 c 1,5,-1
 323 -64 l 1,6,-1
 304 -88 l 1,7,-1
 113 -88 l 1,8,9
 156 284 156 284 235 820 c 1,0,-1
EndSplineSet
EndChar

StartChar: backslash
Encoding: 92 92 63
Width: 489
GlyphClass: 2
Flags: W
LayerCount: 2
Fore
SplineSet
114 838 m 1,0,1
 251 342 251 342 391 -29 c 1,2,-1
 350 -83 l 1,3,4
 229 248 229 248 65 788 c 1,5,-1
 114 838 l 1,0,1
EndSplineSet
EndChar

StartChar: bracketright
Encoding: 93 93 64
Width: 414
GlyphClass: 2
Flags: W
LayerCount: 2
Fore
SplineSet
135 820 m 1,0,-1
 327 820 l 1,1,2
 277 425 277 425 201 -88 c 1,3,-1
 -6 -88 l 1,4,-1
 13 -64 l 1,5,-1
 146 -64 l 1,6,7
 206 358 206 358 261 797 c 1,8,-1
 117 797 l 1,9,-1
 135 820 l 1,0,-1
EndSplineSet
EndChar

StartChar: asciicircum
Encoding: 94 94 65
Width: 672
GlyphClass: 2
Flags: W
LayerCount: 2
Fore
SplineSet
347 697 m 1,0,1
 528 447 528 447 591 336 c 1,2,-1
 546 292 l 1,3,4
 530 315 530 315 320 614 c 1,5,6
 235 494 235 494 66 304 c 1,7,-1
 54 318 l 1,8,9
 190 506 190 506 347 697 c 1,0,1
EndSplineSet
EndChar

StartChar: underscore
Encoding: 95 95 66
Width: 636
GlyphClass: 2
Flags: W
LayerCount: 2
Fore
SplineSet
115 -1 m 1,0,-1
 604 -1 l 1,1,-1
 550 -55 l 1,2,-1
 61 -55 l 1,3,-1
 115 -1 l 1,0,-1
EndSplineSet
EndChar

StartChar: grave
Encoding: 96 96 67
Width: 410
GlyphClass: 2
Flags: W
LayerCount: 2
Fore
SplineSet
93 758 m 0,0,1
 170 758 170 758 230 688 c 0,2,3
 256 657 256 657 301 594 c 1,4,-1
 286 576 l 1,5,6
 211 663 211 663 163 692 c 0,7,8
 146 702 146 702 124 710.5 c 128,-1,9
 102 719 102 719 100 719 c 1,10,-1
 85 758 l 1,11,12
 89 758 89 758 93 758 c 0,0,1
EndSplineSet
EndChar

StartChar: a
Encoding: 97 97 68
Width: 410
GlyphClass: 2
Flags: W
LayerCount: 2
Fore
SplineSet
254 500 m 0,0,1
 326 500 326 500 351 495 c 1,2,-1
 345 466 l 2,3,4
 336 420 336 420 320 328 c 1,5,6
 295 160 295 160 260 54 c 1,7,-1
 263 52 l 1,8,9
 350 115 350 115 473 286 c 1,10,-1
 483 279 l 1,11,12
 411 174 411 174 338 92.5 c 128,-1,13
 265 11 265 11 216 -10 c 1,14,15
 215 2 215 2 215 37.5 c 128,-1,16
 215 73 215 73 220 110.5 c 128,-1,17
 225 148 225 148 236.5 201 c 128,-1,18
 248 254 248 254 254 288 c 1,19,-1
 251 290 l 1,20,21
 189 185 189 185 137 115.5 c 128,-1,22
 85 46 85 46 16 -15 c 1,23,24
 3 30 3 30 3 116 c 128,-1,25
 3 202 3 202 29.5 298 c 128,-1,26
 56 394 56 394 108 447 c 128,-1,27
 160 500 160 500 254 500 c 0,0,1
113 418 m 128,-1,29
 89 387 89 387 77 289 c 128,-1,30
 65 191 65 191 65 138 c 128,-1,31
 65 85 65 85 71 67 c 1,32,33
 81 67 81 67 103 100.5 c 128,-1,34
 125 134 125 134 126 135 c 0,35,36
 164 182 164 182 221.5 290.5 c 128,-1,37
 279 399 279 399 279 443 c 1,38,39
 258 449 258 449 217 449 c 0,40,28
 137 449 137 449 113 418 c 128,-1,29
EndSplineSet
EndChar

StartChar: b
Encoding: 98 98 69
Width: 384
GlyphClass: 2
Flags: W
LayerCount: 2
Fore
SplineSet
117 42 m 0,0,1
 192 42 192 42 239.5 127 c 128,-1,2
 287 212 287 212 287 331 c 0,3,4
 287 382 287 382 272 420 c 1,5,6
 203 350 203 350 140.5 253 c 128,-1,7
 78 156 78 156 68 57 c 1,8,9
 68 42 68 42 117 42 c 0,0,1
323 851 m 0,10,11
 352 851 352 851 372 846 c 1,12,-1
 331 792 l 1,13,14
 303 798 303 798 274 798 c 128,-1,15
 245 798 245 798 226.5 788 c 128,-1,16
 208 778 208 778 195.5 758.5 c 128,-1,17
 183 739 183 739 174 719.5 c 128,-1,18
 165 700 165 700 159 669.5 c 128,-1,19
 153 639 153 639 150 620 c 0,20,21
 144 590 144 590 138 530 c 1,22,23
 133 498 133 498 119.5 372.5 c 128,-1,24
 106 247 106 247 103 229 c 1,25,26
 238 477 238 477 324 517 c 1,27,28
 333 510 333 510 340 484 c 128,-1,29
 347 458 347 458 347 416 c 128,-1,30
 347 374 347 374 337 315 c 128,-1,31
 327 256 327 256 303.5 196.5 c 128,-1,32
 280 137 280 137 244.5 92 c 128,-1,33
 209 47 209 47 153 19 c 128,-1,34
 97 -9 97 -9 28 -9 c 1,35,36
 17 11 17 11 17 51 c 1,37,38
 22 95 22 95 90 606 c 0,39,40
 102 697 102 697 172 774 c 128,-1,41
 242 851 242 851 323 851 c 0,10,11
EndSplineSet
EndChar

StartChar: c
Encoding: 99 99 70
Width: 311
GlyphClass: 2
Flags: W
LayerCount: 2
Fore
SplineSet
236 514 m 0,0,1
 285 514 285 514 314 487 c 1,2,-1
 270 435 l 1,3,4
 247 474 247 474 210 474 c 0,5,6
 155 474 155 474 114.5 388 c 128,-1,7
 74 302 74 302 74 190.5 c 128,-1,8
 74 79 74 79 140 43 c 1,9,10
 243 117 243 117 377 311 c 1,11,-1
 387 305 l 1,12,13
 312 193 312 193 233.5 102.5 c 128,-1,14
 155 12 155 12 102 -10 c 1,15,16
 75 -10 75 -10 45 22 c 0,17,18
 28 41 28 41 17 83 c 128,-1,19
 6 125 6 125 6 190.5 c 128,-1,20
 6 256 6 256 33 321 c 128,-1,21
 60 386 60 386 98.5 426.5 c 128,-1,22
 137 467 137 467 174.5 490.5 c 128,-1,23
 212 514 212 514 236 514 c 0,0,1
EndSplineSet
EndChar

StartChar: d
Encoding: 100 100 71
Width: 420
GlyphClass: 2
Flags: W
LayerCount: 2
Fore
SplineSet
537 851 m 0,0,1
 566 851 566 851 586 846 c 1,2,-1
 545 792 l 1,3,4
 517 798 517 798 486 798 c 128,-1,5
 455 798 455 798 434 783 c 128,-1,6
 413 768 413 768 401 748 c 128,-1,7
 389 728 389 728 379.5 694 c 128,-1,8
 370 660 370 660 366.5 637.5 c 128,-1,9
 363 615 363 615 358.5 577.5 c 128,-1,10
 354 540 354 540 349.5 514 c 128,-1,11
 345 488 345 488 331.5 375.5 c 128,-1,12
 318 263 318 263 304 184 c 128,-1,13
 290 105 290 105 269 54 c 1,14,-1
 272 52 l 1,15,16
 356 113 356 113 482 286 c 1,17,-1
 492 279 l 1,18,19
 420 174 420 174 347 92.5 c 128,-1,20
 274 11 274 11 225 -10 c 1,21,22
 223 14 223 14 223 44.5 c 128,-1,23
 223 75 223 75 237.5 155 c 128,-1,24
 252 235 252 235 254.5 257 c 128,-1,25
 257 279 257 279 262 288 c 1,26,-1
 259 290 l 1,27,28
 255 284 255 284 217 222 c 128,-1,29
 179 160 179 160 158 129 c 128,-1,30
 137 98 137 98 97.5 54.5 c 128,-1,31
 58 11 58 11 23 -8 c 1,32,33
 3 35 3 35 3 107.5 c 128,-1,34
 3 180 3 180 27 278 c 1,35,36
 61 390 61 390 113 445.5 c 128,-1,37
 165 501 165 501 251 501 c 0,38,39
 272 501 272 501 285 496 c 1,40,-1
 304 606 l 2,41,42
 320 698 320 698 388.5 774.5 c 128,-1,43
 457 851 457 851 537 851 c 0,0,1
214 450 m 0,44,45
 146 450 146 450 119.5 414.5 c 128,-1,46
 93 379 93 379 81.5 275 c 128,-1,47
 70 171 70 171 70 131.5 c 128,-1,48
 70 92 70 92 80 62 c 1,49,50
 214 204 214 204 278 440 c 1,51,52
 256 450 256 450 214 450 c 0,44,45
EndSplineSet
EndChar

StartChar: e
Encoding: 101 101 72
Width: 298
GlyphClass: 2
Flags: W
LayerCount: 2
Fore
SplineSet
209 474 m 0,0,1
 159 474 159 474 126 412 c 128,-1,2
 93 350 93 350 78 254 c 1,3,4
 140 294 140 294 188 351 c 128,-1,5
 236 408 236 408 236 441 c 128,-1,6
 236 474 236 474 209 474 c 0,0,1
137.5 465.5 m 128,-1,8
 193 514 193 514 243.5 514 c 128,-1,9
 294 514 294 514 294 474 c 0,10,11
 294 377 294 377 73 230 c 1,12,13
 72 219 72 219 72 202 c 0,14,15
 72 89 72 89 140 39 c 1,16,17
 239 115 239 115 362 286 c 1,18,-1
 372 279 l 1,19,20
 300 174 300 174 227 92.5 c 128,-1,21
 154 11 154 11 105 -10 c 1,22,23
 55 2 55 2 30 56.5 c 128,-1,24
 5 111 5 111 5 185 c 128,-1,25
 5 259 5 259 43.5 338 c 128,-1,7
 82 417 82 417 137.5 465.5 c 128,-1,8
EndSplineSet
EndChar

StartChar: f
Encoding: 102 102 73
Width: 224
GlyphClass: 2
Flags: W
LayerCount: 2
Fore
SplineSet
337 851 m 0,0,1
 379 851 379 851 406 836 c 1,2,-1
 365 782 l 1,3,4
 329 798 329 798 292 798 c 128,-1,5
 255 798 255 798 234 783 c 128,-1,6
 213 768 213 768 201 748 c 128,-1,7
 189 728 189 728 179.5 694 c 128,-1,8
 170 660 170 660 166.5 637.5 c 128,-1,9
 163 615 163 615 158.5 577.5 c 128,-1,10
 154 540 154 540 151 525.5 c 128,-1,11
 148 511 148 511 147 498 c 1,12,-1
 279 505 l 1,13,14
 268 476 268 476 267 476 c 0,15,16
 236 461 236 461 141 454 c 1,17,18
 112 210 112 210 92 70.5 c 128,-1,19
 72 -69 72 -69 10.5 -142 c 128,-1,20
 -51 -215 -51 -215 -146 -215 c 0,21,22
 -168 -215 -168 -215 -190 -209 c 1,23,-1
 -152 -154 l 1,24,25
 -122 -162 -122 -162 -91 -162 c 0,26,27
 4 -162 4 -162 24 -8 c 0,28,29
 27 16 27 16 86 450 c 1,30,-1
 -6 446 l 1,31,32
 21 492 21 492 22 492 c 0,33,34
 53 493 53 493 93 495 c 1,35,36
 99 545 99 545 103 570 c 0,37,38
 120 696 120 696 186 773.5 c 128,-1,39
 252 851 252 851 337 851 c 0,0,1
EndSplineSet
EndChar

StartChar: g
Encoding: 103 103 74
Width: 417
GlyphClass: 2
Flags: W
LayerCount: 2
Fore
SplineSet
232 450 m 0,0,1
 164 450 164 450 137.5 414.5 c 128,-1,2
 111 379 111 379 99.5 275 c 128,-1,3
 88 171 88 171 88 131.5 c 128,-1,4
 88 92 88 92 98 62 c 1,5,6
 232 204 232 204 296 440 c 1,7,8
 274 450 274 450 232 450 c 0,0,1
269 501 m 2,9,-1
 360 501 l 1,10,11
 353 450 353 450 336 309 c 128,-1,12
 319 168 319 168 306 75 c 0,13,14
 287 -64 287 -64 223.5 -139.5 c 128,-1,15
 160 -215 160 -215 51 -215 c 0,16,17
 10 -215 10 -215 -26 -206 c 1,18,-1
 13 -145 l 1,19,20
 56 -158 56 -158 94 -158 c 0,21,22
 165 -158 165 -158 195 -129.5 c 128,-1,23
 225 -101 225 -101 239 8 c 0,24,25
 273 276 273 276 280 288 c 1,26,-1
 277 290 l 1,27,28
 274 285 274 285 254 251 c 128,-1,29
 234 217 234 217 225 202.5 c 128,-1,30
 216 188 216 188 195.5 156 c 128,-1,31
 175 124 175 124 160 105 c 128,-1,32
 145 86 145 86 124 62 c 0,33,34
 84 14 84 14 41 -8 c 1,35,36
 21 35 21 35 21 106.5 c 128,-1,37
 21 178 21 178 45 278 c 0,38,39
 99 501 99 501 269 501 c 2,9,-1
EndSplineSet
EndChar

StartChar: h
Encoding: 104 104 75
Width: 445
GlyphClass: 2
Flags: W
LayerCount: 2
Fore
SplineSet
331 851 m 0,0,1
 360 851 360 851 380 846 c 1,2,-1
 339 792 l 1,3,4
 311 798 311 798 282 798 c 128,-1,5
 253 798 253 798 234.5 788.5 c 128,-1,6
 216 779 216 779 203 758.5 c 128,-1,7
 190 738 190 738 181.5 719.5 c 128,-1,8
 173 701 173 701 166.5 669.5 c 128,-1,9
 160 638 160 638 157 620.5 c 128,-1,10
 154 603 154 603 150.5 570 c 128,-1,11
 147 537 147 537 146 530 c 2,12,-1
 101 188 l 1,13,14
 258 470 258 470 351 514 c 1,15,16
 368 501 368 501 368 430 c 128,-1,17
 368 359 368 359 334 219 c 128,-1,18
 300 79 300 79 296 54 c 1,19,-1
 298 52 l 1,20,21
 385 115 385 115 508 286 c 1,22,-1
 518 279 l 1,23,24
 446 174 446 174 373 92.5 c 128,-1,25
 300 11 300 11 251 -10 c 1,26,27
 249 14 249 14 249 28 c 0,28,29
 249 91 249 91 272 221.5 c 128,-1,30
 295 352 295 352 295 423 c 1,31,32
 232 367 232 367 161.5 249.5 c 128,-1,33
 91 132 91 132 46 -10 c 1,34,35
 23 16 23 16 23 54 c 0,36,37
 23 61 23 61 25 73 c 2,38,-1
 98 606 l 2,39,40
 110 692 110 692 180.5 771.5 c 128,-1,41
 251 851 251 851 331 851 c 0,0,1
EndSplineSet
EndChar

StartChar: i
Encoding: 105 105 76
Width: 221
GlyphClass: 2
Flags: W
LayerCount: 2
Fore
SplineSet
29 -10 m 1,0,1
 27 14 27 14 27 47 c 128,-1,2
 27 80 27 80 35 137.5 c 128,-1,3
 43 195 43 195 61 292.5 c 128,-1,4
 79 390 79 390 89 453 c 1,5,-1
 19 402 l 1,6,-1
 21 413 l 1,7,8
 28 423 28 423 40.5 438.5 c 128,-1,9
 53 454 53 454 88 482 c 128,-1,10
 123 510 123 510 154 515 c 1,11,12
 148 476 148 476 133 364 c 0,13,14
 103 136 103 136 74 55 c 1,15,-1
 76 52 l 1,16,17
 162 113 162 113 286 286 c 1,18,-1
 297 279 l 1,19,20
 225 174 225 174 152 92.5 c 128,-1,21
 79 11 79 11 29 -10 c 1,0,1
176 735 m 1,22,23
 177 727 177 727 177 698 c 0,24,25
 177 632 177 632 111 598 c 1,26,27
 121 625 121 625 123 687 c 1,28,-1
 176 735 l 1,22,23
EndSplineSet
EndChar

StartChar: j
Encoding: 106 106 77
Width: 199
GlyphClass: 2
Flags: W
LayerCount: 2
Fore
SplineSet
-154 -216 m 0,0,1
 -183 -216 -183 -216 -203 -211 c 1,2,-1
 -162 -147 l 1,3,4
 -134 -153 -134 -153 -106 -153 c 128,-1,5
 -78 -153 -78 -153 -61 -146.5 c 128,-1,6
 -44 -140 -44 -140 -32 -131 c 128,-1,7
 -20 -122 -20 -122 -10 -103 c 128,-1,8
 0 -84 0 -84 5.5 -69.5 c 128,-1,9
 11 -55 11 -55 16.5 -26 c 128,-1,10
 22 3 22 3 24.5 21 c 128,-1,11
 27 39 27 39 32 76 c 128,-1,12
 37 113 37 113 40 133 c 2,13,-1
 87 453 l 1,14,-1
 17 402 l 1,15,-1
 19 413 l 1,16,17
 26 423 26 423 38.5 438.5 c 128,-1,18
 51 454 51 454 86 482 c 128,-1,19
 121 510 121 510 152 515 c 1,20,-1
 105 166 l 2,21,22
 80 -20 80 -20 9.5 -118 c 128,-1,23
 -61 -216 -61 -216 -154 -216 c 0,0,1
180 732 m 1,24,25
 181 724 181 724 181 695 c 0,26,27
 181 629 181 629 115 595 c 1,28,29
 125 622 125 622 127 684 c 1,30,-1
 180 732 l 1,24,25
EndSplineSet
EndChar

StartChar: k
Encoding: 107 107 78
Width: 455
GlyphClass: 2
Flags: W
LayerCount: 2
Fore
SplineSet
146 562 m 1,0,-1
 118 337 l 1,1,2
 156 414 156 414 213 464 c 128,-1,3
 270 514 270 514 330 514 c 0,4,5
 378 514 378 514 378 464 c 0,6,7
 378 355 378 355 230 279 c 1,8,9
 244 245 244 245 268 163.5 c 128,-1,10
 292 82 292 82 298 52 c 1,11,12
 336 73 336 73 404.5 144.5 c 128,-1,13
 473 216 473 216 523 286 c 1,14,-1
 533 279 l 1,15,16
 461 174 461 174 388 92.5 c 128,-1,17
 315 11 315 11 266 -10 c 1,18,19
 242 31 242 31 199.5 134 c 128,-1,20
 157 237 157 237 145 263 c 1,21,22
 223 295 223 295 272.5 340.5 c 128,-1,23
 322 386 322 386 322 437 c 0,24,25
 322 474 322 474 292 474 c 0,26,27
 257 474 257 474 229 448 c 128,-1,28
 201 422 201 422 171.5 371 c 128,-1,29
 142 320 142 320 125 271 c 128,-1,30
 108 222 108 222 99 184 c 128,-1,31
 90 146 90 146 76.5 83.5 c 128,-1,32
 63 21 63 21 55 -9 c 1,33,34
 20 14 20 14 20 58 c 0,35,36
 20 68 20 68 21 73 c 2,37,-1
 94 606 l 2,38,39
 106 692 106 692 176.5 771.5 c 128,-1,40
 247 851 247 851 327 851 c 0,41,42
 356 851 356 851 376 846 c 1,43,-1
 335 792 l 1,44,45
 307 798 307 798 275.5 798 c 128,-1,46
 244 798 244 798 222.5 781.5 c 128,-1,47
 201 765 201 765 188.5 743 c 128,-1,48
 176 721 176 721 167 685 c 0,49,50
 146 601 146 601 146 562 c 1,0,-1
EndSplineSet
EndChar

StartChar: l
Encoding: 108 108 79
Width: 226
GlyphClass: 2
Flags: W
LayerCount: 2
Fore
SplineSet
331 851 m 0,0,1
 360 851 360 851 380 846 c 1,2,-1
 339 792 l 1,3,4
 311 798 311 798 280 798 c 128,-1,5
 249 798 249 798 228 783 c 128,-1,6
 207 768 207 768 195 748 c 128,-1,7
 183 728 183 728 173.5 694 c 128,-1,8
 164 660 164 660 160.5 637.5 c 128,-1,9
 157 615 157 615 152.5 577.5 c 128,-1,10
 148 540 148 540 143.5 513.5 c 128,-1,11
 139 487 139 487 126 376 c 0,12,13
 98 137 98 137 64 54 c 1,14,-1
 67 52 l 1,15,16
 163 121 163 121 295 311 c 1,17,-1
 305 305 l 1,18,19
 230 193 230 193 151.5 102.5 c 128,-1,20
 73 12 73 12 20 -10 c 1,21,22
 18 14 18 14 18 46 c 128,-1,23
 18 78 18 78 31.5 177 c 128,-1,24
 45 276 45 276 67.5 414 c 128,-1,25
 90 552 90 552 98 606 c 0,26,27
 110 691 110 691 180 771 c 128,-1,28
 250 851 250 851 331 851 c 0,0,1
EndSplineSet
EndChar

StartChar: m
Encoding: 109 109 80
Width: 651
GlyphClass: 2
Flags: W
LayerCount: 2
Fore
SplineSet
347 514 m 1,0,1
 365 500 365 500 365 450.5 c 128,-1,2
 365 401 365 401 343 308.5 c 128,-1,3
 321 216 321 216 318 192 c 1,4,-1
 321 190 l 1,5,6
 373 300 373 300 438 393.5 c 128,-1,7
 503 487 503 487 556 514 c 1,8,9
 573 500 573 500 573 435.5 c 128,-1,10
 573 371 573 371 539.5 228.5 c 128,-1,11
 506 86 506 86 501 54 c 1,12,-1
 504 52 l 1,13,14
 593 116 593 116 714 286 c 1,15,-1
 724 279 l 1,16,17
 655 177 655 177 581.5 94 c 128,-1,18
 508 11 508 11 457 -10 c 1,19,20
 455 14 455 14 455 28 c 0,21,22
 455 92 455 92 477.5 221 c 128,-1,23
 500 350 500 350 500 418 c 1,24,-1
 496 420 l 1,25,26
 438 363 438 363 371 246 c 128,-1,27
 304 129 304 129 264 -10 c 1,28,29
 242 10 242 10 242 40 c 0,30,31
 242 58 242 58 266.5 199 c 128,-1,32
 291 340 291 340 291 418 c 1,33,-1
 287 420 l 1,34,35
 229 363 229 363 162 246 c 128,-1,36
 95 129 95 129 55 -10 c 1,37,38
 32 16 32 16 32 49 c 128,-1,39
 32 82 32 82 40 144 c 128,-1,40
 48 206 48 206 56.5 257.5 c 128,-1,41
 65 309 65 309 76 376.5 c 128,-1,42
 87 444 87 444 88 448 c 1,43,-1
 85 450 l 1,44,-1
 19 402 l 1,45,-1
 21 413 l 1,46,47
 28 423 28 423 40.5 438.5 c 128,-1,48
 53 454 53 454 88 482 c 128,-1,49
 123 510 123 510 154 515 c 1,50,51
 147 473 147 473 133 359.5 c 128,-1,52
 119 246 119 246 109 192 c 1,53,-1
 112 190 l 1,54,55
 164 300 164 300 229 393.5 c 128,-1,56
 294 487 294 487 347 514 c 1,0,1
EndSplineSet
EndChar

StartChar: n
Encoding: 110 110 81
Width: 456
GlyphClass: 2
Flags: W
LayerCount: 2
Fore
SplineSet
361 514 m 1,0,1
 378 500 378 500 378 435 c 128,-1,2
 378 370 378 370 343 216.5 c 128,-1,3
 308 63 308 63 306 54 c 1,4,-1
 309 52 l 1,5,6
 398 116 398 116 519 286 c 1,7,-1
 529 279 l 1,8,9
 460 177 460 177 386.5 94 c 128,-1,10
 313 11 313 11 262 -10 c 1,11,12
 260 14 260 14 260 28 c 0,13,14
 260 92 260 92 282.5 221 c 128,-1,15
 305 350 305 350 305 418 c 1,16,-1
 301 420 l 1,17,18
 241 366 241 366 171 248.5 c 128,-1,19
 101 131 101 131 56 -10 c 1,20,21
 33 16 33 16 33 54 c 0,22,23
 33 86 33 86 75 358 c 2,24,-1
 89 448 l 1,25,-1
 86 450 l 1,26,-1
 20 402 l 1,27,-1
 22 413 l 1,28,29
 29 423 29 423 41.5 438.5 c 128,-1,30
 54 454 54 454 89 482 c 128,-1,31
 124 510 124 510 155 515 c 1,32,33
 148 473 148 473 134 359.5 c 128,-1,34
 120 246 120 246 110 192 c 1,35,-1
 113 190 l 1,36,37
 172 305 172 305 238.5 396.5 c 128,-1,38
 305 488 305 488 361 514 c 1,0,1
EndSplineSet
EndChar

StartChar: o
Encoding: 111 111 82
Width: 367
GlyphClass: 2
Flags: W
LayerCount: 2
Fore
SplineSet
325 325 m 0,0,1
 325 222 325 222 253 120 c 128,-1,2
 181 18 181 18 87 -9 c 1,3,4
 49 8 49 8 27 65 c 128,-1,5
 5 122 5 122 5 178 c 0,6,7
 5 286 5 286 76.5 385.5 c 128,-1,8
 148 485 148 485 243 512 c 1,9,10
 279 495 279 495 302 436 c 128,-1,11
 325 377 325 377 325 325 c 0,0,1
71 227 m 0,12,13
 71 188 71 188 73 164 c 0,14,15
 78 96 78 96 114 31 c 1,16,17
 259 93 259 93 259 276 c 0,18,19
 259 315 259 315 257 340 c 0,20,21
 252 407 252 407 216 472 c 1,22,23
 139 437 139 437 105 376.5 c 128,-1,24
 71 316 71 316 71 227 c 0,12,13
EndSplineSet
EndChar

StartChar: p
Encoding: 112 112 83
Width: 386
GlyphClass: 2
Flags: W
LayerCount: 2
Fore
SplineSet
102 -144 m 1,0,-1
 -111 -260 l 1,1,-1
 -120 -249 l 1,2,3
 -48 -210 -48 -210 -29 -175 c 128,-1,4
 -10 -140 -10 -140 4 -56 c 128,-1,5
 18 28 18 28 40.5 194 c 128,-1,6
 63 360 63 360 80 452 c 1,7,-1
 7 405 l 1,8,-1
 9 416 l 1,9,10
 16 426 16 426 28.5 441.5 c 128,-1,11
 41 457 41 457 76 485 c 128,-1,12
 111 513 111 513 142 518 c 1,13,14
 130 461 130 461 120 392 c 128,-1,15
 110 323 110 323 105 294 c 1,16,-1
 108 293 l 1,17,18
 193 449 193 449 305 518 c 1,19,20
 323 489 323 489 329.5 455 c 128,-1,21
 336 421 336 421 336 355.5 c 128,-1,22
 336 290 336 290 310 207 c 128,-1,23
 284 124 284 124 237.5 62 c 128,-1,24
 191 0 191 0 141 0 c 0,25,26
 107 0 107 0 77 29 c 1,27,28
 65 -13 65 -13 54 -62.5 c 128,-1,29
 43 -112 43 -112 36 -133.5 c 128,-1,30
 29 -155 29 -155 16 -172 c 1,31,-1
 19 -177 l 1,32,33
 21 -176 21 -176 96 -129 c 1,34,-1
 102 -144 l 1,0,-1
143 54 m 0,35,36
 212 54 212 54 238 113 c 128,-1,37
 264 172 264 172 264 332 c 0,38,39
 264 406 264 406 255 429 c 1,40,41
 223 416 223 416 169.5 348 c 128,-1,42
 116 280 116 280 99.5 206.5 c 128,-1,43
 83 133 83 133 80 70 c 1,44,45
 88 64 88 64 110 59 c 128,-1,46
 132 54 132 54 143 54 c 0,35,36
EndSplineSet
EndChar

StartChar: q
Encoding: 113 113 84
Width: 388
GlyphClass: 2
Flags: W
LayerCount: 2
Fore
SplineSet
214 450 m 0,0,1
 146 450 146 450 119.5 414.5 c 128,-1,2
 93 379 93 379 81.5 275 c 128,-1,3
 70 171 70 171 70 131.5 c 128,-1,4
 70 92 70 92 80 62 c 1,5,6
 214 204 214 204 278 440 c 1,7,8
 256 450 256 450 214 450 c 0,0,1
251 501 m 1,9,-1
 311 494 l 1,10,11
 342 494 342 494 366 518 c 1,12,-1
 372 505 l 1,13,14
 344 482 344 482 340 450 c 0,15,16
 335 411 335 411 317 289.5 c 128,-1,17
 299 168 299 168 292 129 c 0,18,19
 273 31 273 31 268.5 -1 c 128,-1,20
 264 -33 264 -33 259.5 -61.5 c 128,-1,21
 255 -90 255 -90 252 -100 c 0,22,23
 242 -137 242 -137 213 -171 c 1,24,-1
 218 -176 l 1,25,26
 233 -168 233 -168 297 -128 c 1,27,-1
 305 -145 l 1,28,-1
 93 -268 l 1,29,-1
 82 -247 l 1,30,31
 137 -224 137 -224 168 -192 c 0,32,33
 189 -170 189 -170 196 -123 c 0,34,35
 198 -110 198 -110 201.5 -78 c 128,-1,36
 205 -46 205 -46 213 9.5 c 128,-1,37
 221 65 221 65 236 150 c 128,-1,38
 251 235 251 235 254 257 c 128,-1,39
 257 279 257 279 262 288 c 1,40,-1
 259 290 l 1,41,42
 256 285 256 285 236 251 c 128,-1,43
 216 217 216 217 207 202.5 c 128,-1,44
 198 188 198 188 177.5 156 c 128,-1,45
 157 124 157 124 142 105 c 128,-1,46
 127 86 127 86 106 62 c 0,47,48
 66 14 66 14 23 -8 c 1,49,50
 3 35 3 35 3 106.5 c 128,-1,51
 3 178 3 178 27 278 c 0,52,53
 81 501 81 501 251 501 c 1,9,-1
EndSplineSet
EndChar

StartChar: r
Encoding: 114 114 85
Width: 295
GlyphClass: 2
Flags: W
LayerCount: 2
Fore
SplineSet
328 515 m 0,0,1
 349 515 349 515 363 505 c 1,2,-1
 331 450 l 1,3,4
 317 459 317 459 295 459 c 0,5,6
 247 459 247 459 190 349.5 c 128,-1,7
 133 240 133 240 82 37 c 1,8,-1
 27 -10 l 1,9,10
 25 14 25 14 25 47 c 128,-1,11
 25 80 25 80 33 137.5 c 128,-1,12
 41 195 41 195 59 292.5 c 128,-1,13
 77 390 77 390 87 453 c 1,14,-1
 17 402 l 1,15,-1
 19 413 l 1,16,17
 26 423 26 423 38.5 438.5 c 128,-1,18
 51 454 51 454 86 482 c 128,-1,19
 121 510 121 510 152 515 c 1,20,21
 145 472 145 472 132.5 377.5 c 128,-1,22
 120 283 120 283 113 238 c 1,23,-1
 120 238 l 1,24,25
 171 374 171 374 220.5 444.5 c 128,-1,26
 270 515 270 515 328 515 c 0,0,1
EndSplineSet
EndChar

StartChar: s
Encoding: 115 115 86
Width: 303
GlyphClass: 2
Flags: W
LayerCount: 2
Fore
SplineSet
112 479 m 0,0,1
 156 514 156 514 209 514 c 128,-1,2
 262 514 262 514 291 487 c 1,3,-1
 244 432 l 1,4,5
 232 474 232 474 174 474 c 0,6,7
 142 474 142 474 122 455.5 c 128,-1,8
 102 437 102 437 102 412 c 0,9,10
 102 388 102 388 108 375.5 c 128,-1,11
 114 363 114 363 117 357 c 128,-1,12
 120 351 120 351 127.5 340.5 c 128,-1,13
 135 330 135 330 138.5 326.5 c 128,-1,14
 142 323 142 323 152 311.5 c 128,-1,15
 162 300 162 300 182 276 c 0,16,17
 238 213 238 213 238 157 c 128,-1,18
 238 101 238 101 171.5 46.5 c 128,-1,19
 105 -8 105 -8 47.5 -8 c 128,-1,20
 -10 -8 -10 -8 -34 19 c 1,21,-1
 16 65 l 1,22,23
 51 34 51 34 100 34 c 0,24,25
 130 34 130 34 159.5 59.5 c 128,-1,26
 189 85 189 85 189 114 c 0,27,28
 189 165 189 165 112 249 c 0,29,30
 89 274 89 274 77 288 c 128,-1,31
 65 302 65 302 51.5 327 c 128,-1,32
 38 352 38 352 38 371 c 0,33,34
 38 421 38 421 112 479 c 0,0,1
EndSplineSet
EndChar

StartChar: t
Encoding: 116 116 87
Width: 227
GlyphClass: 2
Flags: W
LayerCount: 2
Fore
SplineSet
144 509 m 1,0,1
 194 511 194 511 225 511 c 128,-1,2
 256 511 256 511 291 507 c 1,3,-1
 238 459 l 1,4,5
 198 461 198 461 172 461 c 2,6,-1
 136 461 l 1,7,-1
 131 422 l 1,8,9
 96 134 96 134 63 54 c 1,10,-1
 66 52 l 1,11,12
 162 121 162 121 294 311 c 1,13,-1
 304 305 l 1,14,15
 229 193 229 193 150.5 102.5 c 128,-1,16
 72 12 72 12 19 -10 c 1,17,18
 17 14 17 14 17 30.5 c 128,-1,19
 17 47 17 47 19 68 c 128,-1,20
 21 89 21 89 26.5 127 c 128,-1,21
 32 165 32 165 37.5 200.5 c 128,-1,22
 43 236 43 236 55.5 313 c 128,-1,23
 68 390 68 390 79 460 c 1,24,25
 50 460 50 460 0 456 c 1,26,-1
 27 498 l 1,27,28
 54 503 54 503 85 506 c 1,29,-1
 92 553 l 1,30,-1
 155 589 l 1,31,-1
 144 509 l 1,0,1
EndSplineSet
EndChar

StartChar: u
Encoding: 117 117 88
Width: 459
GlyphClass: 2
Flags: W
LayerCount: 2
Fore
SplineSet
251 28 m 0,0,1
 251 112 251 112 294 313 c 1,2,-1
 291 315 l 1,3,4
 234 200 234 200 170.5 108.5 c 128,-1,5
 107 17 107 17 53 -9 c 1,6,7
 42 28 42 28 42 83 c 128,-1,8
 42 138 42 138 57 245 c 2,9,-1
 84 449 l 1,10,-1
 19 402 l 1,11,-1
 21 413 l 1,12,13
 28 423 28 423 40.5 438.5 c 128,-1,14
 53 454 53 454 88 482 c 128,-1,15
 123 510 123 510 154 515 c 1,16,17
 100 239 100 239 100 107 c 0,18,19
 100 91 100 91 105 66 c 1,20,21
 154 114 154 114 212 206.5 c 128,-1,22
 270 299 270 299 314 414 c 0,23,24
 346 500 346 500 383 514 c 1,25,-1
 312 108 l 2,26,27
 307 81 307 81 297 54 c 1,28,-1
 300 52 l 1,29,30
 396 121 396 121 528 311 c 1,31,-1
 538 305 l 1,32,33
 463 193 463 193 384.5 102.5 c 128,-1,34
 306 12 306 12 253 -10 c 1,35,36
 251 14 251 14 251 28 c 0,0,1
EndSplineSet
EndChar

StartChar: v
Encoding: 118 118 89
Width: 341
GlyphClass: 2
Flags: W
LayerCount: 2
Fore
SplineSet
276 377 m 1,0,-1
 264 493 l 2,1,2
 264 502 264 502 271.5 510 c 128,-1,3
 279 518 279 518 289 519 c 1,4,5
 316 512 316 512 327 488 c 1,6,7
 296 318 296 318 232.5 183.5 c 128,-1,8
 169 49 169 49 95 -6 c 1,9,10
 71 77 71 77 68 188 c 0,11,12
 67 225 67 225 67 308.5 c 128,-1,13
 67 392 67 392 64 462 c 1,14,-1
 -21 401 l 1,15,-1
 -19 412 l 1,16,17
 -12 422 -12 422 0.5 437.5 c 128,-1,18
 13 453 13 453 48 481 c 128,-1,19
 83 509 83 509 114 514 c 1,20,21
 133 497 133 497 133 459 c 2,22,-1
 131 197 l 2,23,24
 131 108 131 108 133 62 c 1,25,26
 170 99 170 99 213 195 c 128,-1,27
 256 291 256 291 276 377 c 1,0,-1
EndSplineSet
EndChar

StartChar: w
Encoding: 119 119 90
Width: 550
GlyphClass: 2
Flags: W
LayerCount: 2
Fore
SplineSet
133 459 m 2,0,-1
 131 197 l 2,1,2
 131 108 131 108 133 62 c 1,3,4
 169 98 169 98 212 194 c 128,-1,5
 255 290 255 290 280 381 c 1,6,7
 280 387 280 387 270 463 c 1,8,-1
 322 518 l 1,9,10
 345 516 345 516 345 444 c 2,11,-1
 345 391 l 1,12,-1
 343 197 l 2,13,14
 343 108 343 108 345 62 c 1,15,16
 382 99 382 99 425 195 c 128,-1,17
 468 291 468 291 488 377 c 1,18,-1
 476 493 l 2,19,20
 476 502 476 502 483.5 510 c 128,-1,21
 491 518 491 518 501 519 c 1,22,23
 528 512 528 512 539 488 c 1,24,25
 508 318 508 318 444.5 183.5 c 128,-1,26
 381 49 381 49 307 -6 c 1,27,28
 289 53 289 53 286 109.5 c 128,-1,29
 283 166 283 166 281.5 219.5 c 128,-1,30
 280 273 280 273 279 297 c 2,31,-1
 278 317 l 1,32,33
 247 206 247 206 198 120.5 c 128,-1,34
 149 35 149 35 95 -6 c 1,35,36
 65 100 65 100 65 327 c 0,37,38
 65 444 65 444 64 462 c 1,39,-1
 -21 401 l 1,40,-1
 -19 412 l 1,41,42
 -12 422 -12 422 0.5 437.5 c 128,-1,43
 13 453 13 453 48 481 c 128,-1,44
 83 509 83 509 114 514 c 1,45,46
 133 497 133 497 133 459 c 2,0,-1
EndSplineSet
EndChar

StartChar: x
Encoding: 120 120 91
Width: 364
GlyphClass: 2
Flags: W
LayerCount: 2
Fore
SplineSet
392 502 m 2,0,-1
 393 502 l 1,1,-1
 368 463 l 1,2,3
 348 465 348 465 333.5 465 c 128,-1,4
 319 465 319 465 311.5 461 c 128,-1,5
 304 457 304 457 294.5 443.5 c 128,-1,6
 285 430 285 430 267 396 c 0,7,8
 206 283 206 283 196 263 c 1,9,10
 244 107 244 107 266 41 c 1,11,12
 297 55 297 55 354 100 c 1,13,-1
 359 97 l 1,14,15
 334 59 334 59 294.5 26 c 128,-1,16
 255 -7 255 -7 224 -11 c 1,17,18
 185 82 185 82 154 195 c 1,19,20
 88 89 88 89 52 42 c 0,21,22
 42 29 42 29 16.5 12 c 128,-1,23
 -9 -5 -9 -5 -31.5 -5 c 128,-1,24
 -54 -5 -54 -5 -69 -1 c 1,25,-1
 -68 0 l 1,26,-1
 -68 -1 l 1,27,28
 -60 9 -60 9 -52 19 c 128,-1,29
 -44 29 -44 29 -37 38 c 1,30,31
 1 38 1 38 23 51 c 128,-1,32
 45 64 45 64 62 90 c 0,33,34
 111 165 111 165 144 221 c 1,35,36
 109 319 109 319 63 461 c 1,37,38
 38 449 38 449 -19 405 c 1,39,-1
 -24 408 l 1,40,41
 1 446 1 446 40.5 479 c 128,-1,42
 80 512 80 512 111 516 c 1,43,44
 153 416 153 416 186 295 c 1,45,46
 198 317 198 317 219 359 c 128,-1,47
 240 401 240 401 251 419 c 128,-1,48
 262 437 262 437 282 460 c 0,49,50
 319 502 319 502 392 502 c 2,0,-1
EndSplineSet
EndChar

StartChar: y
Encoding: 121 121 92
Width: 422
GlyphClass: 2
Flags: W
LayerCount: 2
Fore
SplineSet
101 99 m 0,0,1
 101 87 101 87 101 76 c 1,2,-1
 105 66 l 1,3,4
 154 113 154 113 211.5 206 c 128,-1,5
 269 299 269 299 313 414 c 0,6,7
 314 416 314 416 321 433 c 128,-1,8
 328 450 328 450 330 454.5 c 128,-1,9
 332 459 332 459 339 472 c 128,-1,10
 346 485 346 485 352 491 c 0,11,12
 368 509 368 509 383 514 c 1,13,14
 381 499 381 499 376.5 478.5 c 128,-1,15
 372 458 372 458 366.5 429 c 128,-1,16
 361 400 361 400 352.5 344.5 c 128,-1,17
 344 289 344 289 333.5 203 c 128,-1,18
 323 117 323 117 317 75 c 0,19,20
 298 -64 298 -64 234.5 -139.5 c 128,-1,21
 171 -215 171 -215 62 -215 c 0,22,23
 21 -215 21 -215 -15 -206 c 1,24,-1
 24 -145 l 1,25,26
 67 -158 67 -158 105 -158 c 0,27,28
 176 -158 176 -158 206 -129.5 c 128,-1,29
 236 -101 236 -101 248 -8 c 0,30,31
 267 148 267 148 294 313 c 1,32,-1
 291 315 l 1,33,34
 234 200 234 200 170.5 108.5 c 128,-1,35
 107 17 107 17 53 -9 c 1,36,37
 43 25 43 25 43 77 c 128,-1,38
 43 129 43 129 46 158.5 c 128,-1,39
 49 188 49 188 59 261 c 2,40,-1
 84 449 l 1,41,-1
 19 402 l 1,42,-1
 21 413 l 1,43,44
 28 423 28 423 40.5 438.5 c 128,-1,45
 53 454 53 454 88 482 c 128,-1,46
 123 510 123 510 154 515 c 1,47,48
 101 240 101 240 101 99 c 0,0,1
EndSplineSet
EndChar

StartChar: z
Encoding: 122 122 93
Width: 336
GlyphClass: 2
Flags: W
LayerCount: 2
Fore
SplineSet
139 506 m 0,0,1
 151 506 151 506 192 501.5 c 128,-1,2
 233 497 233 497 258 497 c 0,3,4
 319 497 319 497 330 514 c 1,5,-1
 336 511 l 1,6,7
 206 335 206 335 29 73 c 0,8,9
 23 63 23 63 11 51 c 1,10,-1
 14 48 l 1,11,12
 32 56 32 56 73 56 c 128,-1,13
 114 56 114 56 165 48 c 128,-1,14
 216 40 216 40 242.5 40 c 128,-1,15
 269 40 269 40 308 65 c 1,16,-1
 313 59 l 1,17,18
 265 22 265 22 255 9 c 128,-1,19
 245 -4 245 -4 238 -7 c 128,-1,20
 231 -10 231 -10 210.5 -10 c 128,-1,21
 190 -10 190 -10 129 -1 c 128,-1,22
 68 8 68 8 30.5 8 c 128,-1,23
 -7 8 -7 8 -48 -9 c 1,24,-1
 -58 0 l 1,25,26
 95 213 95 213 242 430 c 0,27,28
 245 434 245 434 245 438 c 0,29,30
 245 444 245 444 215.5 448 c 128,-1,31
 186 452 186 452 167 452 c 0,32,33
 88 452 88 452 8 401 c 1,34,-1
 2 411 l 1,35,36
 26 445 26 445 64.5 475.5 c 128,-1,37
 103 506 103 506 139 506 c 0,0,1
EndSplineSet
EndChar

StartChar: braceleft
Encoding: 123 123 94
Width: 373
GlyphClass: 2
Flags: W
LayerCount: 2
Fore
SplineSet
234 -116 m 1,0,1
 122 -99 122 -99 122 -4 c 0,2,3
 122 43 122 43 148 138 c 128,-1,4
 174 233 174 233 174 274 c 0,5,6
 174 280 174 280 174 284 c 0,7,8
 167 347 167 347 108 351 c 2,9,-1
 95 352 l 1,10,-1
 111 379 l 1,11,12
 151 379 151 379 174 422 c 0,13,14
 189 451 189 451 193.5 490 c 128,-1,15
 198 529 198 529 200.5 574.5 c 128,-1,16
 203 620 203 620 210.5 663 c 128,-1,17
 218 706 218 706 234 741 c 128,-1,18
 250 776 250 776 287 797.5 c 128,-1,19
 324 819 324 819 380 819 c 1,20,-1
 387 806 l 1,21,22
 335 799 335 799 307.5 757 c 128,-1,23
 280 715 280 715 272.5 657 c 128,-1,24
 265 599 265 599 258 540 c 128,-1,25
 251 481 251 481 226 432 c 0,26,27
 193 366 193 366 122 366 c 1,28,-1
 120 363 l 1,29,30
 141 363 141 363 153 359 c 0,31,32
 226 333 226 333 226 255 c 0,33,34
 226 209 226 209 203.5 112 c 128,-1,35
 181 15 181 15 181 -29 c 0,36,37
 181 -99 181 -99 244 -102 c 1,38,-1
 234 -116 l 1,0,1
EndSplineSet
EndChar

StartChar: bar
Encoding: 124 124 95
Width: 257
GlyphClass: 2
Flags: W
LayerCount: 2
Fore
SplineSet
173 896 m 1,0,-1
 161 -169 l 1,1,-1
 117 -213 l 1,2,-1
 115 854 l 1,3,-1
 173 896 l 1,0,-1
EndSplineSet
EndChar

StartChar: braceright
Encoding: 125 125 96
Width: 362
GlyphClass: 2
Flags: W
LayerCount: 2
Fore
SplineSet
213 707 m 0,0,1
 213 797 213 797 146 806 c 1,2,-1
 154 819 l 1,3,4
 264 819 264 819 274 722 c 0,5,6
 274 720 274 720 274 705 c 128,-1,7
 274 690 274 690 259 602 c 128,-1,8
 244 514 244 514 244 484.5 c 128,-1,9
 244 455 244 455 245 445 c 0,10,11
 250 393 250 393 281 382 c 1,12,13
 290 377 290 377 314 376 c 1,14,-1
 303 352 l 1,15,16
 260 351 260 351 236 326 c 128,-1,17
 212 301 212 301 205.5 262 c 128,-1,18
 199 223 199 223 197.5 175.5 c 128,-1,19
 196 128 196 128 192.5 79 c 128,-1,20
 189 30 189 30 176.5 -11.5 c 128,-1,21
 164 -53 164 -53 129 -82 c 128,-1,22
 94 -111 94 -111 37 -117 c 1,23,-1
 41 -102 l 1,24,25
 108 -98 108 -98 122 -8 c 0,26,27
 129 33 129 33 131.5 82 c 128,-1,28
 134 131 134 131 139.5 179.5 c 128,-1,29
 145 228 145 228 158 268.5 c 128,-1,30
 171 309 171 309 203.5 335 c 128,-1,31
 236 361 236 361 288 363 c 1,32,-1
 291 366 l 1,33,-1
 284 366 l 2,34,35
 193 366 193 366 193 480 c 0,36,37
 193 522 193 522 203 595 c 128,-1,38
 213 668 213 668 213 707 c 0,0,1
EndSplineSet
EndChar

StartChar: asciitilde
Encoding: 126 126 97
Width: 750
GlyphClass: 2
Flags: W
LayerCount: 2
Fore
SplineSet
274 346 m 0,0,1
 305 346 305 346 399.5 315.5 c 128,-1,2
 494 285 494 285 563 285 c 0,3,4
 605 285 605 285 663 313 c 1,5,-1
 676 301 l 1,6,7
 622 234 622 234 538 234 c 0,8,9
 476 234 476 234 390 263 c 128,-1,10
 304 292 304 292 264 292 c 0,11,12
 164 292 164 292 89 237 c 1,13,-1
 80 255 l 1,14,15
 195 346 195 346 274 346 c 0,0,1
EndSplineSet
EndChar

StartChar: exclamdown
Encoding: 161 161 99
Width: 347
GlyphClass: 2
Flags: W
LayerCount: 2
Fore
SplineSet
203 381 m 1,0,-1
 228 371 l 1,1,2
 135 -8 135 -8 117 -266 c 1,3,-1
 35 -319 l 1,4,5
 59 -141 59 -141 72.5 -59.5 c 128,-1,6
 86 22 86 22 119 143.5 c 128,-1,7
 152 265 152 265 203 381 c 1,0,-1
168 511 m 1,8,-1
 240 580 l 1,9,10
 271 556 271 556 307 499 c 1,11,-1
 237 435 l 1,12,13
 236 436 236 436 210.5 466 c 128,-1,14
 185 496 185 496 168 511 c 1,8,-1
EndSplineSet
EndChar

StartChar: cent
Encoding: 162 162 100
Width: 343
GlyphClass: 2
Flags: W
LayerCount: 2
Fore
SplineSet
241 510 m 1,0,1
 258 514 258 514 278 514 c 0,2,3
 315 514 315 514 349 499 c 1,4,5
 345 493 345 493 329 474 c 128,-1,6
 313 455 313 455 306 443 c 1,7,8
 270 462 270 462 234 464 c 1,9,-1
 174 77 l 1,10,11
 238 88 238 88 300 114 c 1,12,-1
 306 101 l 1,13,14
 244 66 244 66 169 48 c 1,15,-1
 148 -86 l 1,16,-1
 110 -68 l 1,17,-1
 128 45 l 1,18,19
 72 51 72 51 43.5 93 c 128,-1,20
 15 135 15 135 15 198 c 0,21,22
 15 287 15 287 66 375 c 128,-1,23
 117 463 117 463 199 497 c 1,24,-1
 221 639 l 1,25,-1
 260 627 l 1,26,-1
 241 510 l 1,0,1
101.5 393.5 m 128,-1,28
 72 340 72 340 72 277 c 128,-1,29
 72 214 72 214 89.5 164 c 128,-1,30
 107 114 107 114 135 92 c 1,31,-1
 193 460 l 1,32,27
 131 447 131 447 101.5 393.5 c 128,-1,28
EndSplineSet
EndChar

StartChar: sterling
Encoding: 163 163 101
Width: 528
GlyphClass: 2
Flags: W
LayerCount: 2
Fore
SplineSet
254 675.5 m 128,-1,1
 320 736 320 736 387 736 c 128,-1,2
 454 736 454 736 501 690 c 1,3,-1
 447 652 l 1,4,5
 383 700 383 700 337 700 c 0,6,7
 262 700 262 700 244 574 c 2,8,-1
 221 412 l 1,9,-1
 391 412 l 1,10,-1
 350 380 l 1,11,12
 291 364 291 364 214 361 c 1,13,-1
 200 265 l 2,14,15
 188 181 188 181 164.5 141 c 128,-1,16
 141 101 141 101 84 54 c 1,17,18
 219 21 219 21 329 21 c 0,19,20
 393 21 393 21 421 41.5 c 128,-1,21
 449 62 449 62 449 100 c 128,-1,22
 449 138 449 138 432 161 c 1,23,-1
 497 193 l 1,24,25
 516 174 516 174 516 139 c 0,26,27
 516 82 516 82 434 22.5 c 128,-1,28
 352 -37 352 -37 279 -37 c 0,29,30
 234 -37 234 -37 152.5 -19 c 128,-1,31
 71 -1 71 -1 29 -1 c 128,-1,32
 -13 -1 -13 -1 -44 -32 c 1,33,34
 -50 -30 -50 -30 -50 -24 c 0,35,36
 -50 1 -50 1 15 43 c 0,37,38
 59 71 59 71 92.5 114 c 128,-1,39
 126 157 126 157 133 208 c 2,40,-1
 153 360 l 1,41,-1
 149 360 l 2,42,43
 129 360 129 360 88.5 360.5 c 128,-1,44
 48 361 48 361 29 361 c 1,45,-1
 69 410 l 1,46,-1
 160 410 l 1,47,-1
 179 547 l 2,48,0
 188 615 188 615 254 675.5 c 128,-1,1
EndSplineSet
EndChar

StartChar: currency
Encoding: 164 164 102
Width: 824
GlyphClass: 2
Flags: W
LayerCount: 2
Fore
SplineSet
674 495 m 1,0,-1
 599 421 l 1,1,2
 644 362 644 362 644 292 c 0,3,4
 644 246 644 246 614 185 c 0,5,6
 603 164 603 164 599 162 c 1,7,8
 641 123 641 123 674 89 c 1,9,10
 648 63 648 63 635 49 c 1,11,-1
 560 124 l 1,12,13
 506 78 506 78 429.5 78 c 128,-1,14
 353 78 353 78 299 124 c 1,15,-1
 224 49 l 1,16,17
 211 63 211 63 185 89 c 1,18,19
 235 139 235 139 260 162 c 1,20,21
 215 224 215 224 215 296 c 128,-1,22
 215 368 215 368 260 421 c 1,23,-1
 185 495 l 1,24,25
 203 510 203 510 224 535 c 1,26,-1
 299 460 l 1,27,28
 359 505 359 505 432.5 505 c 128,-1,29
 506 505 506 505 560 460 c 1,30,31
 578 479 578 479 602.5 503 c 128,-1,32
 627 527 627 527 635 535 c 1,33,-1
 674 495 l 1,0,-1
541.5 181 m 128,-1,35
 588 228 588 228 588 294 c 128,-1,36
 588 360 588 360 540 404.5 c 128,-1,37
 492 449 492 449 427.5 449 c 128,-1,38
 363 449 363 449 317 402.5 c 128,-1,39
 271 356 271 356 271 292 c 128,-1,40
 271 228 271 228 317.5 181 c 128,-1,41
 364 134 364 134 429.5 134 c 128,-1,34
 495 134 495 134 541.5 181 c 128,-1,35
EndSplineSet
EndChar

StartChar: yen
Encoding: 165 165 103
Width: 587
GlyphClass: 2
Flags: W
LayerCount: 2
Fore
SplineSet
220 757 m 0,0,1
 259 757 259 757 290.5 670 c 128,-1,2
 322 583 322 583 327 471 c 1,3,-1
 335 471 l 1,4,5
 385 595 385 595 458.5 665.5 c 128,-1,6
 532 736 532 736 623 736 c 0,7,8
 655 736 655 736 682 723 c 1,9,-1
 629 681 l 1,10,11
 591 700 591 700 566 700 c 0,12,13
 523 700 523 700 478 648.5 c 128,-1,14
 433 597 433 597 404 532.5 c 128,-1,15
 375 468 375 468 363 411 c 1,16,-1
 514 411 l 1,17,-1
 483 375 l 1,18,19
 415 365 415 365 356 362 c 1,20,-1
 339 277 l 1,21,-1
 499 277 l 1,22,-1
 478 246 l 1,23,24
 392 225 392 225 331 225 c 1,25,26
 320 167 320 167 302 134.5 c 128,-1,27
 284 102 284 102 244 65 c 1,28,-1
 247 57 l 1,29,-1
 308 57 l 2,30,31
 381 57 381 57 437 94 c 1,32,-1
 441 86 l 1,33,34
 429 77 429 77 414 64.5 c 128,-1,35
 399 52 399 52 390 45 c 128,-1,36
 381 38 381 38 370 29.5 c 128,-1,37
 359 21 359 21 352.5 16 c 128,-1,38
 346 11 346 11 340 7 c 0,39,40
 326 -1 326 -1 320 -1 c 0,41,42
 198 -1 198 -1 132 0 c 1,43,-1
 128 8 l 1,44,45
 184 20 184 20 211.5 73.5 c 128,-1,46
 239 127 239 127 259 227 c 1,47,48
 236 227 236 227 193 227.5 c 128,-1,49
 150 228 150 228 136 228 c 1,50,-1
 178 278 l 1,51,-1
 266 278 l 1,52,-1
 282 360 l 1,53,54
 252 360 252 360 210 360.5 c 128,-1,55
 168 361 168 361 150 361 c 1,56,-1
 192 410 l 1,57,-1
 285 410 l 1,58,59
 284 543 284 543 248 631 c 128,-1,60
 212 719 212 719 173 719 c 0,61,62
 118 719 118 719 89 668 c 128,-1,63
 60 617 60 617 56 508 c 1,64,-1
 -15 454 l 1,65,66
 -8 631 -8 631 91 712 c 0,67,68
 145 757 145 757 220 757 c 0,0,1
EndSplineSet
EndChar

StartChar: brokenbar
Encoding: 166 166 104
Width: 248
GlyphClass: 2
Flags: W
LayerCount: 2
Fore
SplineSet
92 236 m 1,0,-1
 138 236 l 1,1,-1
 134 -119 l 1,2,-1
 92 -163 l 1,3,-1
 92 236 l 1,0,-1
148 856 m 1,4,-1
 140 472 l 1,5,-1
 93 472 l 1,6,-1
 90 814 l 1,7,-1
 148 856 l 1,4,-1
EndSplineSet
EndChar

StartChar: section
Encoding: 167 167 105
Width: 540
GlyphClass: 2
Flags: W
LayerCount: 2
Fore
SplineSet
267.5 686.5 m 128,-1,1
 348 753 348 753 425.5 753 c 128,-1,2
 503 753 503 753 528 714 c 1,3,-1
 460 674 l 1,4,5
 425 702 425 702 374 702 c 128,-1,6
 323 702 323 702 293 672 c 128,-1,7
 263 642 263 642 263 604 c 128,-1,8
 263 566 263 566 281 534.5 c 128,-1,9
 299 503 299 503 325.5 476 c 128,-1,10
 352 449 352 449 378 420 c 0,11,12
 440 353 440 353 440 279 c 0,13,14
 440 238 440 238 407.5 180.5 c 128,-1,15
 375 123 375 123 336 105 c 1,16,17
 338 89 338 89 338 80 c 0,18,19
 338 9 338 9 257.5 -62 c 128,-1,20
 177 -133 177 -133 102 -133 c 0,21,22
 71 -133 71 -133 39.5 -123.5 c 128,-1,23
 8 -114 8 -114 -6 -94 c 1,24,25
 57 -57 57 -57 66 -53 c 1,26,27
 107 -83 107 -83 155.5 -83 c 128,-1,28
 204 -83 204 -83 232 -51.5 c 128,-1,29
 260 -20 260 -20 260 21 c 128,-1,30
 260 62 260 62 232 103.5 c 128,-1,31
 204 145 204 145 171 176 c 128,-1,32
 138 207 138 207 110 251.5 c 128,-1,33
 82 296 82 296 82 339.5 c 128,-1,34
 82 383 82 383 114 441 c 128,-1,35
 146 499 146 499 190 519 c 1,36,37
 187 532 187 532 187 547 c 0,38,0
 187 620 187 620 267.5 686.5 c 128,-1,1
198 493 m 1,39,40
 161 435 161 435 161 386 c 128,-1,41
 161 337 161 337 180 299.5 c 128,-1,42
 199 262 199 262 222.5 238.5 c 128,-1,43
 246 215 246 215 277.5 183 c 128,-1,44
 309 151 309 151 325 127 c 1,45,46
 362 189 362 189 362 232 c 128,-1,47
 362 275 362 275 350.5 304.5 c 128,-1,48
 339 334 339 334 319.5 357 c 128,-1,49
 300 380 300 380 279 400 c 0,50,51
 219 457 219 457 198 493 c 1,39,40
EndSplineSet
EndChar

StartChar: dieresis
Encoding: 168 168 106
Width: 498
GlyphClass: 2
Flags: W
LayerCount: 2
Fore
SplineSet
138 728 m 1,0,-1
 192 778 l 1,1,2
 225 752 225 752 240 726 c 1,3,-1
 189 671 l 1,4,5
 152 716 152 716 138 728 c 1,0,-1
327 728 m 1,6,-1
 381 778 l 1,7,8
 409 760 409 760 428 726 c 1,9,-1
 383 671 l 1,10,11
 353 709 353 709 327 728 c 1,6,-1
EndSplineSet
EndChar

StartChar: copyright
Encoding: 169 169 107
Width: 845
GlyphClass: 2
Flags: W
LayerCount: 2
Fore
SplineSet
479 666 m 0,0,1
 608 666 608 666 686.5 579 c 128,-1,2
 765 492 765 492 765 378 c 0,3,4
 765 209 765 209 667 105 c 128,-1,5
 569 1 569 1 401 1 c 0,6,7
 281 1 281 1 200.5 90 c 128,-1,8
 120 179 120 179 120 288 c 0,9,10
 120 455 120 455 213 560.5 c 128,-1,11
 306 666 306 666 479 666 c 0,0,1
618 561 m 0,12,13
 548 620 548 620 442.5 620 c 128,-1,14
 337 620 337 620 262.5 561 c 128,-1,15
 188 502 188 502 173 418 c 0,16,17
 166 380 166 380 166 338 c 0,18,19
 166 190 166 190 264 106 c 0,20,21
 333 47 333 47 428 47 c 0,22,23
 544 47 544 47 619.5 106 c 128,-1,24
 695 165 695 165 710 250 c 0,25,26
 717 287 717 287 717 329 c 0,27,28
 717 478 717 478 618 561 c 0,12,13
467 527 m 0,29,30
 503 527 503 527 537 516 c 128,-1,31
 571 505 571 505 581 491 c 1,32,-1
 581 428 l 1,33,-1
 565 428 l 1,34,35
 562 454 562 454 538 476.5 c 128,-1,36
 514 499 514 499 458.5 499 c 128,-1,37
 403 499 403 499 367 454.5 c 128,-1,38
 331 410 331 410 331 340.5 c 128,-1,39
 331 271 331 271 367.5 220.5 c 128,-1,40
 404 170 404 170 471 170 c 128,-1,41
 538 170 538 170 580 237 c 1,42,-1
 595 237 l 1,43,-1
 581 173 l 1,44,45
 571 162 571 162 532 152 c 128,-1,46
 493 142 493 142 462 142 c 0,47,48
 374 142 374 142 317.5 191.5 c 128,-1,49
 261 241 261 241 261 342 c 0,50,51
 261 410 261 410 315.5 468.5 c 128,-1,52
 370 527 370 527 467 527 c 0,29,30
EndSplineSet
EndChar

StartChar: ordfeminine
Encoding: 170 170 108
Width: 303
GlyphClass: 2
Flags: W
LayerCount: 2
Fore
SplineSet
186 398 m 1,0,1
 203 559 203 559 213 578 c 1,2,-1
 210 580 l 1,3,-1
 203 569 l 2,4,5
 126 449 126 449 53 389 c 1,6,7
 44 418 44 418 44 471.5 c 128,-1,8
 44 525 44 525 62 586 c 128,-1,9
 80 647 80 647 114.5 679.5 c 128,-1,10
 149 712 149 712 204.5 712 c 128,-1,11
 260 712 260 712 277 709 c 1,12,-1
 257 604 l 2,13,14
 235 487 235 487 215 429 c 1,15,-1
 217 425 l 1,16,17
 253 456 253 456 265 467 c 1,18,-1
 270 459 l 1,19,20
 219 406 219 406 190 390 c 1,21,-1
 186 398 l 1,0,1
213 665 m 1,22,23
 204 669 204 669 170.5 669 c 128,-1,24
 137 669 137 669 123 652 c 0,25,26
 98 621 98 621 90 516 c 0,27,28
 88 496 88 496 88 481 c 128,-1,29
 88 466 88 466 90 457 c 1,30,31
 121 485 121 485 161.5 553.5 c 128,-1,32
 202 622 202 622 213 665 c 1,22,23
EndSplineSet
EndChar

StartChar: guillemotleft
Encoding: 171 171 109
Width: 719
GlyphClass: 2
Flags: W
LayerCount: 2
Fore
SplineSet
289 483 m 1,0,-1
 331 434 l 1,1,2
 304 402 304 402 249 354 c 128,-1,3
 194 306 194 306 148 278 c 1,4,5
 193 252 193 252 246 209.5 c 128,-1,6
 299 167 299 167 327 138 c 1,7,-1
 289 80 l 1,8,9
 258 123 258 123 203 177 c 128,-1,10
 148 231 148 231 78 278 c 1,11,12
 215 374 215 374 289 483 c 1,0,-1
548 483 m 1,13,-1
 590 434 l 1,14,15
 563 402 563 402 508 354 c 128,-1,16
 453 306 453 306 407 278 c 1,17,18
 452 252 452 252 505 209.5 c 128,-1,19
 558 167 558 167 586 138 c 1,20,-1
 548 80 l 1,21,22
 517 123 517 123 462 177 c 128,-1,23
 407 231 407 231 337 278 c 1,24,25
 474 374 474 374 548 483 c 1,13,-1
EndSplineSet
EndChar

StartChar: logicalnot
Encoding: 172 172 110
Width: 596
GlyphClass: 2
Flags: W
LayerCount: 2
Fore
SplineSet
495 313 m 2,0,1
 510 313 510 313 520 302 c 128,-1,2
 530 291 530 291 530 273 c 2,3,-1
 530 83 l 1,4,-1
 488 55 l 1,5,-1
 487 235 l 2,6,7
 487 262 487 262 481.5 267.5 c 128,-1,8
 476 273 476 273 455 273 c 2,9,-1
 62 273 l 1,10,-1
 85 313 l 1,11,-1
 495 313 l 2,0,1
EndSplineSet
EndChar

StartChar: registered
Encoding: 174 174 111
Width: 770
GlyphClass: 2
Flags: W
LayerCount: 2
Fore
SplineSet
410 528 m 0,0,1
 462 528 462 528 499 502.5 c 128,-1,2
 536 477 536 477 536 419 c 0,3,4
 536 332 536 332 441 315 c 1,5,-1
 436 308 l 1,6,7
 450 290 450 290 464 268.5 c 128,-1,8
 478 247 478 247 490.5 230 c 128,-1,9
 503 213 503 213 510 205 c 2,10,11
 510 205 510 205 528 185 c 1,12,13
 546 163 546 163 567 149 c 1,14,-1
 549 123 l 1,15,16
 454 184 454 184 354 328 c 1,17,-1
 358 332 l 1,18,19
 367 329 367 329 377 329 c 0,20,21
 427 329 427 329 451 357.5 c 128,-1,22
 475 386 475 386 475 424 c 0,23,24
 475 497 475 497 396 497 c 0,25,26
 365 497 365 497 333 488 c 1,27,-1
 333 170 l 1,28,29
 341 167 341 167 359 163 c 1,30,-1
 359 147 l 1,31,-1
 235 147 l 1,32,-1
 235 163 l 1,33,34
 249 165 249 165 268 171 c 1,35,-1
 268 494 l 1,36,37
 253 500 253 500 235 503 c 1,38,-1
 235 519 l 1,39,-1
 277 519 l 2,40,41
 308 519 308 519 351.5 523.5 c 128,-1,42
 395 528 395 528 410 528 c 0,0,1
424 666 m 0,43,44
 553 666 553 666 631.5 579 c 128,-1,45
 710 492 710 492 710 378 c 0,46,47
 710 209 710 209 612 105 c 128,-1,48
 514 1 514 1 346 1 c 0,49,50
 226 1 226 1 145.5 90 c 128,-1,51
 65 179 65 179 65 288 c 0,52,53
 65 455 65 455 158 560.5 c 128,-1,54
 251 666 251 666 424 666 c 0,43,44
397 620 m 0,55,56
 257 620 257 620 183 538 c 128,-1,57
 109 456 109 456 109 340 c 0,58,59
 109 265 109 265 139 199.5 c 128,-1,60
 169 134 169 134 230.5 90.5 c 128,-1,61
 292 47 292 47 369 47 c 128,-1,62
 446 47 446 47 503 70.5 c 128,-1,63
 560 94 560 94 594 134 c 0,64,65
 664 215 664 215 664 327 c 0,66,67
 664 401 664 401 634 467 c 128,-1,68
 604 533 604 533 541.5 576.5 c 128,-1,69
 479 620 479 620 397 620 c 0,55,56
EndSplineSet
EndChar

StartChar: macron
Encoding: 175 175 112
Width: 352
GlyphClass: 2
Flags: W
LayerCount: 2
Fore
SplineSet
103 865 m 1,0,1
 145 875 145 875 182.5 875.5 c 128,-1,2
 220 876 220 876 251 876 c 128,-1,3
 282 876 282 876 316 873 c 1,4,-1
 263 819 l 1,5,6
 220 821 220 821 162 821 c 128,-1,7
 104 821 104 821 57 813 c 1,8,-1
 103 865 l 1,0,1
EndSplineSet
EndChar

StartChar: degree
Encoding: 176 176 113
Width: 366
GlyphClass: 2
Flags: W
LayerCount: 2
Fore
SplineSet
80.5 719.5 m 128,-1,1
 126 765 126 765 187 765 c 128,-1,2
 248 765 248 765 288 727 c 128,-1,3
 328 689 328 689 328 620 c 128,-1,4
 328 551 328 551 281.5 506 c 128,-1,5
 235 461 235 461 174 461 c 128,-1,6
 113 461 113 461 74 499 c 128,-1,7
 35 537 35 537 35 605.5 c 128,-1,0
 35 674 35 674 80.5 719.5 c 128,-1,1
258.5 702 m 128,-1,9
 229 737 229 737 181.5 737 c 128,-1,10
 134 737 134 737 104 705 c 128,-1,11
 74 673 74 673 74 614.5 c 128,-1,12
 74 556 74 556 105.5 521 c 128,-1,13
 137 486 137 486 183.5 486 c 128,-1,14
 230 486 230 486 259 519.5 c 128,-1,15
 288 553 288 553 288 610 c 128,-1,8
 288 667 288 667 258.5 702 c 128,-1,9
EndSplineSet
EndChar

StartChar: plusminus
Encoding: 177 177 114
Width: 621
GlyphClass: 2
Flags: W
LayerCount: 2
Fore
SplineSet
340 431 m 1,0,-1
 583 431 l 1,1,-1
 529 377 l 1,2,-1
 340 377 l 1,3,-1
 340 187 l 1,4,-1
 286 133 l 1,5,-1
 286 377 l 1,6,-1
 48 377 l 1,7,-1
 102 431 l 1,8,-1
 286 431 l 1,9,-1
 286 614 l 1,10,-1
 340 668 l 1,11,-1
 340 431 l 1,0,-1
48 -2 m 1,12,-1
 102 52 l 1,13,-1
 583 52 l 1,14,-1
 529 -2 l 1,15,-1
 48 -2 l 1,12,-1
EndSplineSet
EndChar

StartChar: twosuperior
Encoding: 178 178 115
Width: 354
GlyphClass: 2
Flags: W
LayerCount: 2
Fore
SplineSet
224 775 m 0,0,1
 298 775 298 775 298 710 c 0,2,3
 298 655 298 655 249 595 c 128,-1,4
 200 535 200 535 135 486 c 1,5,-1
 137 480 l 1,6,-1
 254 480 l 2,7,8
 301 480 301 480 339 509 c 1,9,-1
 345 500 l 1,10,-1
 276 445 l 1,11,-1
 65 446 l 1,12,-1
 62 451 l 1,13,14
 135 508 135 508 191 572.5 c 128,-1,15
 247 637 247 637 247 688.5 c 128,-1,16
 247 740 247 740 198 740 c 0,17,18
 169 740 169 740 104 714 c 1,19,-1
 99 727 l 1,20,21
 161 775 161 775 224 775 c 0,0,1
EndSplineSet
EndChar

StartChar: threesuperior
Encoding: 179 179 116
Width: 407
GlyphClass: 2
Flags: W
LayerCount: 2
Fore
SplineSet
228 782 m 0,0,1
 293 782 293 782 293 714 c 0,2,3
 293 689 293 689 272 661 c 128,-1,4
 251 633 251 633 222 615 c 1,5,-1
 224 611 l 1,6,7
 234 613 234 613 239 613 c 0,8,9
 266 613 266 613 282 594.5 c 128,-1,10
 298 576 298 576 298 553 c 0,11,12
 298 496 298 496 252 460.5 c 128,-1,13
 206 425 206 425 154 425 c 128,-1,14
 102 425 102 425 71 447 c 1,15,-1
 90 487 l 1,16,17
 129 462 129 462 175 462 c 128,-1,18
 221 462 221 462 237 478.5 c 128,-1,19
 253 495 253 495 253 525.5 c 128,-1,20
 253 556 253 556 237 575.5 c 128,-1,21
 221 595 221 595 192 599 c 1,22,-1
 186 610 l 1,23,24
 253 645 253 645 253 697.5 c 128,-1,25
 253 750 253 750 211 750 c 0,26,27
 183 750 183 750 139 727 c 1,28,-1
 129 741 l 1,29,30
 198 782 198 782 228 782 c 0,0,1
EndSplineSet
EndChar

StartChar: acute
Encoding: 180 180 117
Width: 410
GlyphClass: 2
Flags: W
LayerCount: 2
Fore
SplineSet
249 758 m 0,0,1
 253 758 253 758 257 758 c 1,2,-1
 242 719 l 1,3,4
 213 713 213 713 168 684.5 c 128,-1,5
 123 656 123 656 55 577 c 1,6,-1
 41 594 l 1,7,8
 86 657 86 657 112 688 c 0,9,10
 172 758 172 758 249 758 c 0,0,1
EndSplineSet
EndChar

StartChar: mu
Encoding: 181 181 118
AltUni2: 0003bc.ffffffff.0
Width: 464
GlyphClass: 2
Flags: W
LayerCount: 2
Fore
SplineSet
199 515 m 1,0,1
 152 274 152 274 127 62 c 1,2,-1
 136 54 l 1,3,4
 195 109 195 109 254 203 c 128,-1,5
 313 297 313 297 358 414 c 0,6,7
 359 416 359 416 366 433 c 128,-1,8
 373 450 373 450 375 454.5 c 128,-1,9
 377 459 377 459 384 472 c 128,-1,10
 391 485 391 485 396 491 c 0,11,12
 413 509 413 509 428 514 c 1,13,14
 426 499 426 499 421.5 478.5 c 128,-1,15
 417 458 417 458 399.5 352 c 128,-1,16
 382 246 382 246 357 108 c 0,17,18
 350 73 350 73 338 43 c 1,19,-1
 341 41 l 1,20,21
 450 141 450 141 519 227 c 1,22,-1
 523 223 l 1,23,24
 482 163 482 163 413 88 c 128,-1,25
 344 13 344 13 296 -9 c 1,26,27
 303 113 303 113 339 313 c 1,28,-1
 336 315 l 1,29,30
 233 105 233 105 121 5 c 1,31,32
 115 -29 115 -29 104 -110 c 128,-1,33
 93 -191 93 -191 86 -236 c 1,34,-1
 40 -235 l 1,35,36
 54 -129 54 -129 82.5 93.5 c 128,-1,37
 111 316 111 316 129 449 c 1,38,-1
 64 402 l 1,39,-1
 66 413 l 1,40,41
 73 423 73 423 85.5 438.5 c 128,-1,42
 98 454 98 454 133 482 c 128,-1,43
 168 510 168 510 199 515 c 1,0,1
EndSplineSet
EndChar

StartChar: paragraph
Encoding: 182 182 119
Width: 557
GlyphClass: 2
Flags: W
LayerCount: 2
Fore
SplineSet
354 605 m 0,0,1
 278 605 278 605 243.5 531.5 c 128,-1,2
 209 458 209 458 209 338 c 0,3,4
 209 272 209 272 237 226 c 128,-1,5
 265 180 265 180 309 180 c 0,6,7
 318 180 318 180 323 186 c 1,8,9
 376 459 376 459 376 550 c 0,10,11
 376 605 376 605 354 605 c 0,0,1
599 851 m 0,12,13
 628 851 628 851 648 846 c 1,14,-1
 607 792 l 1,15,16
 579 798 579 798 548 798 c 128,-1,17
 517 798 517 798 496 782.5 c 128,-1,18
 475 767 475 767 463 746 c 128,-1,19
 451 725 451 725 441.5 690.5 c 128,-1,20
 432 656 432 656 428.5 632 c 128,-1,21
 425 608 425 608 420 571.5 c 128,-1,22
 415 535 415 535 407.5 489 c 128,-1,23
 400 443 400 443 380.5 302.5 c 128,-1,24
 361 162 361 162 348 76 c 0,25,26
 325 -75 325 -75 265.5 -144.5 c 128,-1,27
 206 -214 206 -214 110 -214 c 0,28,29
 88 -214 88 -214 66 -208 c 1,30,-1
 104 -153 l 1,31,32
 134 -161 134 -161 168 -161 c 128,-1,33
 202 -161 202 -161 233 -124 c 128,-1,34
 264 -87 264 -87 275 -6 c 2,35,-1
 297 152 l 1,36,37
 267 147 267 147 246 147 c 0,38,39
 165 147 165 147 106.5 203.5 c 128,-1,40
 48 260 48 260 48 369 c 128,-1,41
 48 478 48 478 128 556 c 128,-1,42
 208 634 208 634 314 634 c 0,43,44
 342 634 342 634 370 628 c 1,45,46
 379 709 379 709 445 780 c 128,-1,47
 511 851 511 851 599 851 c 0,12,13
EndSplineSet
EndChar

StartChar: periodcentered
Encoding: 183 183 120
Width: 343
GlyphClass: 2
Flags: W
LayerCount: 2
Fore
SplineSet
178 390 m 1,0,1
 197 377 197 377 222 350.5 c 128,-1,2
 247 324 247 324 258 306 c 1,3,-1
 168 217 l 1,4,5
 163 222 163 222 150 238 c 0,6,7
 116 278 116 278 94 298 c 1,8,-1
 178 390 l 1,0,1
EndSplineSet
EndChar

StartChar: cedilla
Encoding: 184 184 121
Width: 391
GlyphClass: 2
Flags: W
LayerCount: 2
Fore
SplineSet
291 -130 m 0,0,1
 291 -166 291 -166 253.5 -195 c 128,-1,2
 216 -224 216 -224 165.5 -224 c 128,-1,3
 115 -224 115 -224 94 -184 c 1,4,-1
 139 -145 l 1,5,6
 160 -184 160 -184 203 -184 c 128,-1,7
 246 -184 246 -184 246 -169 c 0,8,9
 246 -143 246 -143 214 -116.5 c 128,-1,10
 182 -90 182 -90 136 -74 c 1,11,-1
 249 21 l 1,12,-1
 266 6 l 1,13,14
 254 -5 254 -5 201 -50 c 1,15,16
 231 -58 231 -58 261 -83.5 c 128,-1,17
 291 -109 291 -109 291 -130 c 0,0,1
EndSplineSet
EndChar

StartChar: onesuperior
Encoding: 185 185 122
Width: 308
GlyphClass: 2
Flags: W
LayerCount: 2
Fore
SplineSet
205 771 m 1,0,1
 213 768 213 768 213 742.5 c 128,-1,2
 213 717 213 717 207 672.5 c 128,-1,3
 201 628 201 628 189 557 c 128,-1,4
 177 486 177 486 173 461 c 1,5,-1
 122 406 l 1,6,-1
 120 410 l 1,7,8
 156 637 156 637 167 720 c 1,9,10
 112 691 112 691 76 664 c 1,11,-1
 69 675 l 1,12,13
 93 700 93 700 133.5 728 c 128,-1,14
 174 756 174 756 205 771 c 1,0,1
EndSplineSet
EndChar

StartChar: ordmasculine
Encoding: 186 186 123
Width: 331
GlyphClass: 2
Flags: W
LayerCount: 2
Fore
SplineSet
262 600 m 0,0,1
 262 536 262 536 211.5 473 c 128,-1,2
 161 410 161 410 95 394 c 1,3,4
 69 404 69 404 54 439.5 c 128,-1,5
 39 475 39 475 39 510 c 0,6,7
 39 576 39 576 89 637.5 c 128,-1,8
 139 699 139 699 205 716 c 1,9,10
 230 706 230 706 246 669 c 128,-1,11
 262 632 262 632 262 600 c 0,0,1
94 541 m 0,12,13
 94 476 94 476 120 434 c 1,14,15
 210 468 210 468 210 567 c 0,16,17
 210 633 210 633 182 674 c 1,18,19
 94 636 94 636 94 541 c 0,12,13
EndSplineSet
EndChar

StartChar: guillemotright
Encoding: 187 187 124
Width: 669
GlyphClass: 2
Flags: W
LayerCount: 2
Fore
SplineSet
346 434 m 1,0,-1
 388 483 l 1,1,2
 461 376 461 376 599 278 c 1,3,4
 529 231 529 231 474 177 c 128,-1,5
 419 123 419 123 388 80 c 1,6,-1
 350 138 l 1,7,8
 378 166 378 166 431 208.5 c 128,-1,9
 484 251 484 251 531 277 c 1,10,-1
 530 277 l 1,11,12
 484 305 484 305 428.5 353.5 c 128,-1,13
 373 402 373 402 346 434 c 1,0,-1
87 434 m 1,14,-1
 129 483 l 1,15,16
 202 376 202 376 340 278 c 1,17,18
 270 231 270 231 215 177 c 128,-1,19
 160 123 160 123 129 80 c 1,20,-1
 91 138 l 1,21,22
 119 166 119 166 172 208.5 c 128,-1,23
 225 251 225 251 272 277 c 1,24,-1
 271 277 l 1,25,26
 225 305 225 305 169.5 353.5 c 128,-1,27
 114 402 114 402 87 434 c 1,14,-1
EndSplineSet
EndChar

StartChar: onequarter
Encoding: 188 188 125
Width: 1029
GlyphClass: 2
Flags: W
LayerCount: 2
Fore
SplineSet
680 792 m 1,0,-1
 729 742 l 1,1,2
 651 613 651 613 461.5 376.5 c 128,-1,3
 272 140 272 140 122 -20 c 1,4,-1
 103 1 l 1,5,6
 118 21 118 21 262 205 c 128,-1,7
 406 389 406 389 499.5 520 c 128,-1,8
 593 651 593 651 680 792 c 1,0,-1
338 762 m 0,9,10
 338 706 338 706 309 564 c 128,-1,11
 280 422 280 422 278 408 c 1,12,-1
 227 353 l 1,13,14
 222 355 222 355 222 366 c 2,15,-1
 222 370 l 1,16,17
 228 431 228 431 250 543.5 c 128,-1,18
 272 656 272 656 280 732 c 1,19,20
 244 717 244 717 196 681 c 1,21,-1
 189 692 l 1,22,23
 229 734 229 734 325 788 c 1,24,25
 338 788 338 788 338 762 c 0,9,10
712 424 m 1,26,-1
 710 424 l 1,27,28
 653 289 653 289 549 180 c 1,29,-1
 552 176 l 1,30,-1
 687 176 l 1,31,32
 702 299 702 299 712 424 c 1,26,-1
589 136 m 2,33,34
 537 136 537 136 481 128 c 1,35,-1
 462 138 l 1,36,37
 493 155 493 155 570 262.5 c 128,-1,38
 647 370 647 370 671 437 c 1,39,40
 702 468 702 468 759 489 c 1,41,42
 771 489 771 489 771 468 c 1,43,44
 767 401 767 401 753.5 313 c 128,-1,45
 740 225 740 225 735 176 c 1,46,47
 817 176 817 176 869 197 c 1,48,-1
 878 176 l 1,49,50
 818 135 818 135 732 135 c 1,51,52
 729 117 729 117 725.5 84.5 c 128,-1,53
 722 52 722 52 718 31 c 1,54,-1
 670 -14 l 1,55,56
 667 -13 667 -13 667 -3 c 128,-1,57
 667 7 667 7 683 135 c 1,58,-1
 589 136 l 2,33,34
EndSplineSet
EndChar

StartChar: onehalf
Encoding: 189 189 126
Width: 1052
GlyphClass: 2
Flags: W
LayerCount: 2
Fore
SplineSet
726 792 m 1,0,-1
 775 742 l 1,1,2
 697 613 697 613 507.5 376.5 c 128,-1,3
 318 140 318 140 168 -20 c 1,4,-1
 149 1 l 1,5,6
 164 21 164 21 308 205 c 128,-1,7
 452 389 452 389 545.5 520 c 128,-1,8
 639 651 639 651 726 792 c 1,0,-1
384 762 m 0,9,10
 384 706 384 706 355 564 c 128,-1,11
 326 422 326 422 324 408 c 1,12,-1
 273 353 l 1,13,14
 268 355 268 355 268 366 c 2,15,-1
 268 370 l 1,16,17
 274 431 274 431 296 543.5 c 128,-1,18
 318 656 318 656 326 732 c 1,19,20
 290 717 290 717 242 681 c 1,21,-1
 235 692 l 1,22,23
 275 734 275 734 371 788 c 1,24,25
 384 788 384 788 384 762 c 0,9,10
786 445 m 0,26,27
 860 445 860 445 860 380 c 0,28,29
 860 319 860 319 808 254 c 128,-1,30
 756 189 756 189 687 136 c 1,31,-1
 689 130 l 1,32,-1
 784 130 l 2,33,34
 851 130 851 130 891 159 c 1,35,-1
 898 144 l 1,36,-1
 828 96 l 1,37,-1
 617 96 l 1,38,-1
 613 113 l 1,39,40
 802 267 802 267 802 356 c 0,41,42
 802 409 802 409 756 409 c 0,43,44
 731 409 731 409 666 384 c 1,45,-1
 661 397 l 1,46,47
 723 445 723 445 786 445 c 0,26,27
EndSplineSet
EndChar

StartChar: threequarters
Encoding: 190 190 127
Width: 1020
GlyphClass: 2
Flags: W
LayerCount: 2
Fore
SplineSet
680 792 m 1,0,-1
 729 742 l 1,1,2
 651 613 651 613 461.5 376.5 c 128,-1,3
 272 140 272 140 122 -20 c 1,4,-1
 103 1 l 1,5,6
 118 21 118 21 262 205 c 128,-1,7
 406 389 406 389 499.5 520 c 128,-1,8
 593 651 593 651 680 792 c 1,0,-1
712 424 m 1,9,-1
 710 424 l 1,10,11
 653 289 653 289 549 180 c 1,12,-1
 552 176 l 1,13,-1
 687 176 l 1,14,15
 702 299 702 299 712 424 c 1,9,-1
683 135 m 1,16,-1
 606 136 l 2,17,18
 544 136 544 136 481 128 c 1,19,-1
 462 138 l 1,20,21
 493 155 493 155 570 262.5 c 128,-1,22
 647 370 647 370 671 437 c 1,23,24
 702 468 702 468 759 489 c 1,25,26
 771 489 771 489 771 468 c 1,27,28
 767 401 767 401 753.5 313 c 128,-1,29
 740 225 740 225 735 176 c 1,30,31
 817 176 817 176 869 197 c 1,32,-1
 878 176 l 1,33,34
 818 135 818 135 732 135 c 1,35,36
 729 117 729 117 725.5 84.5 c 128,-1,37
 722 52 722 52 718 31 c 1,38,-1
 670 -14 l 1,39,40
 667 -13 667 -13 667 -3 c 128,-1,41
 667 7 667 7 683 135 c 1,16,-1
290 782 m 0,42,43
 363 782 363 782 363 711 c 0,44,45
 363 685 363 685 339.5 655.5 c 128,-1,46
 316 626 316 626 283 607 c 1,47,-1
 285 603 l 1,48,49
 297 605 297 605 302 605 c 0,50,51
 333 605 333 605 350.5 585.5 c 128,-1,52
 368 566 368 566 368 543 c 0,53,54
 368 487 368 487 314.5 442.5 c 128,-1,55
 261 398 261 398 206 398 c 0,56,57
 184 398 184 398 157 407.5 c 128,-1,58
 130 417 130 417 114 432 c 1,59,-1
 135 474 l 1,60,61
 178 448 178 448 230 448 c 128,-1,62
 282 448 282 448 300 465 c 128,-1,63
 318 482 318 482 318 513.5 c 128,-1,64
 318 545 318 545 300 566 c 128,-1,65
 282 587 282 587 250 591 c 1,66,-1
 243 612 l 1,67,68
 309 643 309 643 309 695.5 c 128,-1,69
 309 748 309 748 267 748 c 0,70,71
 240 748 240 748 190 725 c 1,72,-1
 178 746 l 1,73,74
 248 782 248 782 290 782 c 0,42,43
EndSplineSet
EndChar

StartChar: questiondown
Encoding: 191 191 128
Width: 410
GlyphClass: 2
Flags: W
LayerCount: 2
Fore
SplineSet
310 387 m 1,0,1
 327 343 327 343 327 295.5 c 128,-1,2
 327 248 327 248 298.5 203.5 c 128,-1,3
 270 159 270 159 229 124 c 128,-1,4
 188 89 188 89 147 53.5 c 128,-1,5
 106 18 106 18 77.5 -29 c 128,-1,6
 49 -76 49 -76 49 -125.5 c 128,-1,7
 49 -175 49 -175 69 -204.5 c 128,-1,8
 89 -234 89 -234 123 -234 c 0,9,10
 184 -234 184 -234 236 -190 c 1,11,-1
 239 -205 l 1,12,13
 167 -277 167 -277 99 -277 c 0,14,15
 -20 -277 -20 -277 -20 -155 c 0,16,17
 -20 -109 -20 -109 8 -61 c 128,-1,18
 36 -13 36 -13 76.5 26 c 128,-1,19
 117 65 117 65 158 102 c 0,20,21
 254 190 254 190 254 246 c 128,-1,22
 254 302 254 302 237 330 c 1,23,24
 292 364 292 364 306 388 c 1,25,-1
 310 387 l 1,0,1
169 494 m 1,26,-1
 241 563 l 1,27,28
 272 539 272 539 308 482 c 1,29,-1
 238 418 l 1,30,31
 237 419 237 419 211.5 449 c 128,-1,32
 186 479 186 479 169 494 c 1,26,-1
EndSplineSet
EndChar

StartChar: Agrave
Encoding: 192 192 129
Width: 673
GlyphClass: 2
Flags: W
LayerCount: 2
Fore
SplineSet
456 696 m 1,0,-1
 350 699 l 1,1,2
 253 699 253 699 216 678 c 0,3,4
 200 669 200 669 181.5 651 c 128,-1,5
 163 633 163 633 153 607 c 0,6,7
 129 545 129 545 129 452 c 1,8,9
 98 431 98 431 60 398 c 1,10,11
 60 591 60 591 187 695 c 0,12,13
 261 755 261 755 392 755 c 0,14,15
 395 755 395 755 557 746 c 1,16,17
 528 688 528 688 528 424 c 0,18,19
 528 196 528 196 537.5 139.5 c 128,-1,20
 547 83 547 83 557.5 69 c 128,-1,21
 568 55 568 55 593 55 c 128,-1,22
 618 55 618 55 665 83 c 1,23,-1
 669 75 l 1,24,25
 615 27 615 27 552 -11 c 1,26,27
 507 -11 507 -11 490 23 c 0,28,29
 480 43 480 43 474 61 c 128,-1,30
 468 79 468 79 464 119 c 1,31,32
 460 173 460 173 458 275 c 1,33,-1
 276 275 l 1,34,35
 269 262 269 262 254 230 c 1,36,37
 222 167 222 167 205 144 c 0,38,39
 94 -8 94 -8 -33 -8 c 2,40,-1
 -95 -8 l 1,41,-1
 -48 56 l 1,42,43
 -12 47 -12 47 29.5 47 c 128,-1,44
 71 47 71 47 94.5 66 c 128,-1,45
 118 85 118 85 152 142 c 128,-1,46
 186 199 186 199 297 410 c 128,-1,47
 408 621 408 621 456 696 c 1,0,-1
457 324 m 1,48,49
 456 361 456 361 456 422 c 128,-1,50
 456 483 456 483 457 545.5 c 128,-1,51
 458 608 458 608 458 611 c 1,52,53
 428 557 428 557 376.5 457 c 128,-1,54
 325 357 325 357 307 324 c 1,55,-1
 457 324 l 1,48,49
340 961 m 0,56,57
 417 961 417 961 476 891 c 0,58,59
 503 860 503 860 548 797 c 1,60,-1
 533 779 l 1,61,62
 458 866 458 866 410 895 c 0,63,64
 393 905 393 905 371 913.5 c 128,-1,65
 349 922 349 922 347 922 c 1,66,-1
 332 961 l 1,67,68
 336 961 336 961 340 961 c 0,56,57
EndSplineSet
EndChar

StartChar: Aacute
Encoding: 193 193 130
Width: 685
GlyphClass: 2
Flags: W
LayerCount: 2
Fore
SplineSet
456 696 m 1,0,-1
 350 699 l 1,1,2
 253 699 253 699 216 678 c 0,3,4
 200 669 200 669 181.5 651 c 128,-1,5
 163 633 163 633 153 607 c 0,6,7
 129 545 129 545 129 452 c 1,8,9
 98 431 98 431 60 398 c 1,10,11
 60 591 60 591 187 695 c 0,12,13
 261 755 261 755 392 755 c 0,14,15
 395 755 395 755 557 746 c 1,16,17
 528 688 528 688 528 424 c 0,18,19
 528 196 528 196 537.5 139.5 c 128,-1,20
 547 83 547 83 557.5 69 c 128,-1,21
 568 55 568 55 593 55 c 128,-1,22
 618 55 618 55 665 83 c 1,23,-1
 669 75 l 1,24,25
 615 27 615 27 552 -11 c 1,26,27
 507 -11 507 -11 490 23 c 0,28,29
 480 43 480 43 474 61 c 128,-1,30
 468 79 468 79 464 119 c 1,31,32
 460 173 460 173 458 275 c 1,33,-1
 276 275 l 1,34,35
 269 262 269 262 254 230 c 1,36,37
 222 167 222 167 205 144 c 0,38,39
 94 -8 94 -8 -33 -8 c 2,40,-1
 -95 -8 l 1,41,-1
 -48 56 l 1,42,43
 -12 47 -12 47 29.5 47 c 128,-1,44
 71 47 71 47 94.5 66 c 128,-1,45
 118 85 118 85 152 142 c 128,-1,46
 186 199 186 199 297 410 c 128,-1,47
 408 621 408 621 456 696 c 1,0,-1
457 324 m 1,48,49
 456 361 456 361 456 422 c 128,-1,50
 456 483 456 483 457 545.5 c 128,-1,51
 458 608 458 608 458 611 c 1,52,53
 428 557 428 557 376.5 457 c 128,-1,54
 325 357 325 357 307 324 c 1,55,-1
 457 324 l 1,48,49
605 958 m 0,56,57
 609 958 609 958 613 958 c 1,58,-1
 598 919 l 1,59,60
 569 913 569 913 524 884.5 c 128,-1,61
 479 856 479 856 411 777 c 1,62,-1
 397 794 l 1,63,64
 442 857 442 857 468 888 c 0,65,66
 528 958 528 958 605 958 c 0,56,57
EndSplineSet
EndChar

StartChar: Acircumflex
Encoding: 194 194 131
Width: 673
GlyphClass: 2
Flags: W
LayerCount: 2
Fore
SplineSet
456 696 m 1,0,-1
 350 699 l 1,1,2
 253 699 253 699 216 678 c 0,3,4
 200 669 200 669 181.5 651 c 128,-1,5
 163 633 163 633 153 607 c 0,6,7
 129 545 129 545 129 452 c 1,8,9
 98 431 98 431 60 398 c 1,10,11
 60 591 60 591 187 695 c 0,12,13
 261 755 261 755 392 755 c 0,14,15
 395 755 395 755 557 746 c 1,16,17
 528 688 528 688 528 424 c 0,18,19
 528 196 528 196 537.5 139.5 c 128,-1,20
 547 83 547 83 557.5 69 c 128,-1,21
 568 55 568 55 593 55 c 128,-1,22
 618 55 618 55 665 83 c 1,23,-1
 669 75 l 1,24,25
 615 27 615 27 552 -11 c 1,26,27
 507 -11 507 -11 490 23 c 0,28,29
 480 43 480 43 474 61 c 128,-1,30
 468 79 468 79 464 119 c 1,31,32
 460 173 460 173 458 275 c 1,33,-1
 276 275 l 1,34,35
 269 262 269 262 254 230 c 1,36,37
 222 167 222 167 205 144 c 0,38,39
 94 -8 94 -8 -33 -8 c 2,40,-1
 -95 -8 l 1,41,-1
 -48 56 l 1,42,43
 -12 47 -12 47 29.5 47 c 128,-1,44
 71 47 71 47 94.5 66 c 128,-1,45
 118 85 118 85 152 142 c 128,-1,46
 186 199 186 199 297 410 c 128,-1,47
 408 621 408 621 456 696 c 1,0,-1
457 324 m 1,48,49
 456 361 456 361 456 422 c 128,-1,50
 456 483 456 483 457 545.5 c 128,-1,51
 458 608 458 608 458 611 c 1,52,53
 428 557 428 557 376.5 457 c 128,-1,54
 325 357 325 357 307 324 c 1,55,-1
 457 324 l 1,48,49
536 912 m 1,56,57
 559 903 559 903 596.5 876 c 128,-1,58
 634 849 634 849 652 830 c 1,59,-1
 617 797 l 1,60,61
 553 859 553 859 508 873 c 1,62,63
 462 850 462 850 402 799 c 1,64,-1
 392 808 l 1,65,66
 432 852 432 852 464.5 877.5 c 128,-1,67
 497 903 497 903 536 912 c 1,56,57
EndSplineSet
EndChar

StartChar: Atilde
Encoding: 195 195 132
Width: 680
GlyphClass: 2
Flags: W
LayerCount: 2
Fore
SplineSet
456 696 m 1,0,-1
 350 699 l 1,1,2
 253 699 253 699 216 678 c 0,3,4
 200 669 200 669 181.5 651 c 128,-1,5
 163 633 163 633 153 607 c 0,6,7
 129 545 129 545 129 452 c 1,8,9
 98 431 98 431 60 398 c 1,10,11
 60 591 60 591 187 695 c 0,12,13
 261 755 261 755 392 755 c 0,14,15
 395 755 395 755 557 746 c 1,16,17
 528 688 528 688 528 424 c 0,18,19
 528 196 528 196 537.5 139.5 c 128,-1,20
 547 83 547 83 557.5 69 c 128,-1,21
 568 55 568 55 593 55 c 128,-1,22
 618 55 618 55 665 83 c 1,23,-1
 669 75 l 1,24,25
 615 27 615 27 552 -11 c 1,26,27
 507 -11 507 -11 490 23 c 0,28,29
 480 43 480 43 474 61 c 128,-1,30
 468 79 468 79 464 119 c 1,31,32
 460 173 460 173 458 275 c 1,33,-1
 276 275 l 1,34,35
 269 262 269 262 254 230 c 1,36,37
 222 167 222 167 205 144 c 0,38,39
 94 -8 94 -8 -33 -8 c 2,40,-1
 -95 -8 l 1,41,-1
 -48 56 l 1,42,43
 -12 47 -12 47 29.5 47 c 128,-1,44
 71 47 71 47 94.5 66 c 128,-1,45
 118 85 118 85 152 142 c 128,-1,46
 186 199 186 199 297 410 c 128,-1,47
 408 621 408 621 456 696 c 1,0,-1
457 324 m 1,48,49
 456 361 456 361 456 422 c 128,-1,50
 456 483 456 483 457 545.5 c 128,-1,51
 458 608 458 608 458 611 c 1,52,53
 428 557 428 557 376.5 457 c 128,-1,54
 325 357 325 357 307 324 c 1,55,-1
 457 324 l 1,48,49
489.5 845.5 m 128,-1,57
 451 864 451 864 429 864 c 128,-1,58
 407 864 407 864 376.5 850.5 c 128,-1,59
 346 837 346 837 329 822 c 1,60,-1
 324 837 l 1,61,62
 373 887 373 887 439 913 c 1,63,64
 461 913 461 913 499.5 895.5 c 128,-1,65
 538 878 538 878 560.5 878 c 128,-1,66
 583 878 583 878 614.5 888.5 c 128,-1,67
 646 899 646 899 661 910 c 1,68,-1
 669 899 l 1,69,70
 613 842 613 842 550 827 c 1,71,56
 528 827 528 827 489.5 845.5 c 128,-1,57
EndSplineSet
EndChar

StartChar: Adieresis
Encoding: 196 196 133
Width: 673
GlyphClass: 2
Flags: W
LayerCount: 2
Fore
SplineSet
456 696 m 1,0,-1
 350 699 l 1,1,2
 253 699 253 699 216 678 c 0,3,4
 200 669 200 669 181.5 651 c 128,-1,5
 163 633 163 633 153 607 c 0,6,7
 129 545 129 545 129 452 c 1,8,9
 98 431 98 431 60 398 c 1,10,11
 60 591 60 591 187 695 c 0,12,13
 261 755 261 755 392 755 c 0,14,15
 395 755 395 755 557 746 c 1,16,17
 528 688 528 688 528 424 c 0,18,19
 528 196 528 196 537.5 139.5 c 128,-1,20
 547 83 547 83 557.5 69 c 128,-1,21
 568 55 568 55 593 55 c 128,-1,22
 618 55 618 55 665 83 c 1,23,-1
 669 75 l 1,24,25
 615 27 615 27 552 -11 c 1,26,27
 507 -11 507 -11 490 23 c 0,28,29
 480 43 480 43 474 61 c 128,-1,30
 468 79 468 79 464 119 c 1,31,32
 460 173 460 173 458 275 c 1,33,-1
 276 275 l 1,34,35
 269 262 269 262 254 230 c 1,36,37
 222 167 222 167 205 144 c 0,38,39
 94 -8 94 -8 -33 -8 c 2,40,-1
 -95 -8 l 1,41,-1
 -48 56 l 1,42,43
 -12 47 -12 47 29.5 47 c 128,-1,44
 71 47 71 47 94.5 66 c 128,-1,45
 118 85 118 85 152 142 c 128,-1,46
 186 199 186 199 297 410 c 128,-1,47
 408 621 408 621 456 696 c 1,0,-1
457 324 m 1,48,49
 456 361 456 361 456 422 c 128,-1,50
 456 483 456 483 457 545.5 c 128,-1,51
 458 608 458 608 458 611 c 1,52,53
 428 557 428 557 376.5 457 c 128,-1,54
 325 357 325 357 307 324 c 1,55,-1
 457 324 l 1,48,49
360 861 m 1,56,-1
 414 911 l 1,57,58
 447 885 447 885 462 859 c 1,59,-1
 411 804 l 1,60,61
 374 849 374 849 360 861 c 1,56,-1
549 861 m 1,62,-1
 603 911 l 1,63,64
 631 893 631 893 650 859 c 1,65,-1
 605 804 l 1,66,67
 575 842 575 842 549 861 c 1,62,-1
EndSplineSet
EndChar

StartChar: Aring
Encoding: 197 197 134
Width: 673
GlyphClass: 2
Flags: W
LayerCount: 2
Fore
SplineSet
456 696 m 1,0,-1
 350 699 l 1,1,2
 253 699 253 699 216 678 c 0,3,4
 200 669 200 669 181.5 651 c 128,-1,5
 163 633 163 633 153 607 c 0,6,7
 129 545 129 545 129 452 c 1,8,9
 98 431 98 431 60 398 c 1,10,11
 60 591 60 591 187 695 c 0,12,13
 261 755 261 755 392 755 c 0,14,15
 395 755 395 755 557 746 c 1,16,17
 528 688 528 688 528 424 c 0,18,19
 528 196 528 196 537.5 139.5 c 128,-1,20
 547 83 547 83 557.5 69 c 128,-1,21
 568 55 568 55 593 55 c 128,-1,22
 618 55 618 55 665 83 c 1,23,-1
 669 75 l 1,24,25
 615 27 615 27 552 -11 c 1,26,27
 507 -11 507 -11 490 23 c 0,28,29
 480 43 480 43 474 61 c 128,-1,30
 468 79 468 79 464 119 c 1,31,32
 460 173 460 173 458 275 c 1,33,-1
 276 275 l 1,34,35
 269 262 269 262 254 230 c 1,36,37
 222 167 222 167 205 144 c 0,38,39
 94 -8 94 -8 -33 -8 c 2,40,-1
 -95 -8 l 1,41,-1
 -48 56 l 1,42,43
 -12 47 -12 47 29.5 47 c 128,-1,44
 71 47 71 47 94.5 66 c 128,-1,45
 118 85 118 85 152 142 c 128,-1,46
 186 199 186 199 297 410 c 128,-1,47
 408 621 408 621 456 696 c 1,0,-1
457 324 m 1,48,49
 456 361 456 361 456 422 c 128,-1,50
 456 483 456 483 457 545.5 c 128,-1,51
 458 608 458 608 458 611 c 1,52,53
 428 557 428 557 376.5 457 c 128,-1,54
 325 357 325 357 307 324 c 1,55,-1
 457 324 l 1,48,49
585.5 930 m 128,-1,57
 605 914 605 914 605 886 c 128,-1,58
 605 858 605 858 583 831 c 128,-1,59
 561 804 561 804 531 804 c 128,-1,60
 501 804 501 804 482.5 820 c 128,-1,61
 464 836 464 836 464 861.5 c 128,-1,62
 464 887 464 887 482.5 910.5 c 128,-1,63
 501 934 501 934 528 946 c 1,64,56
 566 946 566 946 585.5 930 c 128,-1,57
548 836 m 1,65,66
 583 847 583 847 583 870 c 128,-1,67
 583 893 583 893 565.5 906 c 128,-1,68
 548 919 548 919 523 919 c 1,69,70
 497 905 497 905 491 873 c 1,71,72
 491 861 491 861 509 848.5 c 128,-1,73
 527 836 527 836 548 836 c 1,65,66
EndSplineSet
EndChar

StartChar: AE
Encoding: 198 198 135
Width: 868
GlyphClass: 2
Flags: W
LayerCount: 2
Fore
SplineSet
665 381 m 2,0,-1
 531 383 l 1,1,2
 512 260 512 260 498 192.5 c 128,-1,3
 484 125 484 125 422 65 c 1,4,-1
 426 56 l 1,5,-1
 686 56 l 2,6,7
 755 56 755 56 809 94 c 1,8,-1
 813 86 l 1,9,10
 732 24 732 24 696 -1 c 1,11,-1
 313 -1 l 1,12,-1
 309 8 l 1,13,14
 396 26 396 26 424 177 c 0,15,16
 432 221 432 221 441 275 c 1,17,-1
 275 275 l 1,18,19
 221 171 221 171 204 144 c 0,20,21
 154 64 154 64 96.5 28 c 128,-1,22
 39 -8 39 -8 -34 -8 c 2,23,-1
 -96 -8 l 1,24,-1
 -49 56 l 1,25,26
 -13 47 -13 47 27.5 47 c 128,-1,27
 68 47 68 47 92.5 68 c 128,-1,28
 117 89 117 89 153 146 c 128,-1,29
 189 203 189 203 303 412.5 c 128,-1,30
 417 622 417 622 465 696 c 1,31,-1
 359 699 l 1,32,33
 262 699 262 699 225 678 c 0,34,35
 209 669 209 669 190.5 651 c 128,-1,36
 172 633 172 633 162 607 c 0,37,38
 138 545 138 545 138 452 c 1,39,40
 107 431 107 431 69 398 c 1,41,42
 69 591 69 591 196 695 c 0,43,44
 239 730 239 730 299 741.5 c 128,-1,45
 359 753 359 753 477 753 c 2,46,-1
 722 751 l 2,47,48
 841 751 841 751 874 752 c 1,49,-1
 818 693 l 1,50,-1
 586 694 l 1,51,52
 579 675 579 675 576 660 c 2,53,-1
 542 445 l 1,54,-1
 556 445 l 1,55,-1
 674 441 l 1,56,57
 726 441 726 441 771 451 c 1,58,-1
 776 447 l 1,59,60
 758 421 758 421 728.5 401 c 128,-1,61
 699 381 699 381 665 381 c 2,0,-1
526 694 m 1,62,63
 485 655 485 655 442.5 579 c 128,-1,64
 400 503 400 503 384 473 c 0,65,66
 314 341 314 341 308 324 c 1,67,-1
 449 324 l 1,68,69
 456 368 456 368 466.5 435 c 128,-1,70
 477 502 477 502 482 531 c 128,-1,71
 487 560 487 560 494 598 c 0,72,73
 508 665 508 665 526 694 c 1,62,63
EndSplineSet
EndChar

StartChar: Ccedilla
Encoding: 199 199 136
Width: 527
GlyphClass: 2
Flags: W
LayerCount: 2
Fore
SplineSet
411 751 m 0,0,1
 480 751 480 751 547 731 c 1,2,-1
 489 656 l 1,3,4
 434 695 434 695 376 708 c 1,5,6
 308 707 308 707 244 647 c 128,-1,7
 180 587 180 587 141.5 493 c 128,-1,8
 103 399 103 399 103 307.5 c 128,-1,9
 103 216 103 216 142.5 144.5 c 128,-1,10
 182 73 182 73 256 55 c 1,11,12
 324 67 324 67 432 148 c 1,13,-1
 441 140 l 1,14,15
 406 96 406 96 348.5 52 c 128,-1,16
 291 8 291 8 242 -6 c 1,17,18
 205 -39 205 -39 192 -50 c 1,19,20
 222 -58 222 -58 252 -83.5 c 128,-1,21
 282 -109 282 -109 282 -130 c 0,22,23
 282 -166 282 -166 244.5 -195 c 128,-1,24
 207 -224 207 -224 156.5 -224 c 128,-1,25
 106 -224 106 -224 85 -184 c 1,26,-1
 130 -145 l 1,27,28
 151 -184 151 -184 194 -184 c 128,-1,29
 237 -184 237 -184 237 -169 c 0,30,31
 237 -143 237 -143 205 -116.5 c 128,-1,32
 173 -90 173 -90 127 -74 c 1,33,-1
 208 -6 l 1,34,35
 122 5 122 5 78.5 72 c 128,-1,36
 35 139 35 139 35 226 c 0,37,38
 35 341 35 341 87.5 463 c 128,-1,39
 140 585 140 585 229 668 c 128,-1,40
 318 751 318 751 411 751 c 0,0,1
EndSplineSet
EndChar

StartChar: Egrave
Encoding: 200 200 137
Width: 624
GlyphClass: 2
Flags: W
LayerCount: 2
Fore
SplineSet
421 381 m 2,0,-1
 287 383 l 1,1,2
 268 260 268 260 254 192.5 c 128,-1,3
 240 125 240 125 178 65 c 1,4,-1
 182 57 l 1,5,-1
 419 55 l 2,6,7
 427 54 427 54 436 54 c 0,8,9
 508 54 508 54 565 94 c 1,10,-1
 569 86 l 1,11,12
 488 24 488 24 452 -1 c 1,13,-1
 69 0 l 1,14,-1
 65 8 l 1,15,16
 152 26 152 26 180 177 c 0,17,18
 198 271 198 271 214 374.5 c 128,-1,19
 230 478 230 478 238 529 c 0,20,21
 258 654 258 654 282 694 c 1,22,-1
 241 694 l 2,23,24
 141 694 141 694 100.5 639.5 c 128,-1,25
 60 585 60 585 60 452 c 1,26,-1
 -9 398 l 1,27,28
 -9 512 -9 512 32 593 c 128,-1,29
 73 674 73 674 172 731 c 0,30,31
 207 751 207 751 321 751 c 2,32,-1
 478 751 l 2,33,34
 597 751 597 751 630 752 c 1,35,-1
 574 693 l 1,36,-1
 342 694 l 1,37,38
 335 675 335 675 332 660 c 2,39,-1
 298 445 l 1,40,-1
 312 445 l 1,41,-1
 430 441 l 1,42,43
 482 441 482 441 527 451 c 1,44,-1
 532 447 l 1,45,46
 514 421 514 421 484.5 401 c 128,-1,47
 455 381 455 381 421 381 c 2,0,-1
227 965 m 0,48,49
 304 965 304 965 364 895 c 0,50,51
 390 864 390 864 435 801 c 1,52,-1
 420 783 l 1,53,54
 345 870 345 870 297 899 c 0,55,56
 280 909 280 909 258 917.5 c 128,-1,57
 236 926 236 926 234 926 c 1,58,-1
 219 965 l 1,59,60
 223 965 223 965 227 965 c 0,48,49
EndSplineSet
EndChar

StartChar: Eacute
Encoding: 201 201 138
Width: 624
GlyphClass: 2
Flags: W
LayerCount: 2
Fore
SplineSet
421 381 m 2,0,-1
 287 383 l 1,1,2
 268 260 268 260 254 192.5 c 128,-1,3
 240 125 240 125 178 65 c 1,4,-1
 182 57 l 1,5,-1
 419 55 l 2,6,7
 427 54 427 54 436 54 c 0,8,9
 508 54 508 54 565 94 c 1,10,-1
 569 86 l 1,11,12
 488 24 488 24 452 -1 c 1,13,-1
 69 0 l 1,14,-1
 65 8 l 1,15,16
 152 26 152 26 180 177 c 0,17,18
 198 271 198 271 214 374.5 c 128,-1,19
 230 478 230 478 238 529 c 0,20,21
 258 654 258 654 282 694 c 1,22,-1
 241 694 l 2,23,24
 141 694 141 694 100.5 639.5 c 128,-1,25
 60 585 60 585 60 452 c 1,26,-1
 -9 398 l 1,27,28
 -9 512 -9 512 32 593 c 128,-1,29
 73 674 73 674 172 731 c 0,30,31
 207 751 207 751 321 751 c 2,32,-1
 478 751 l 2,33,34
 597 751 597 751 630 752 c 1,35,-1
 574 693 l 1,36,-1
 342 694 l 1,37,38
 335 675 335 675 332 660 c 2,39,-1
 298 445 l 1,40,-1
 312 445 l 1,41,-1
 430 441 l 1,42,43
 482 441 482 441 527 451 c 1,44,-1
 532 447 l 1,45,46
 514 421 514 421 484.5 401 c 128,-1,47
 455 381 455 381 421 381 c 2,0,-1
530 960 m 0,48,49
 534 960 534 960 538 960 c 1,50,-1
 523 921 l 1,51,52
 494 915 494 915 449 886.5 c 128,-1,53
 404 858 404 858 336 779 c 1,54,-1
 322 796 l 1,55,56
 367 859 367 859 394 890 c 0,57,58
 453 960 453 960 530 960 c 0,48,49
EndSplineSet
EndChar

StartChar: Ecircumflex
Encoding: 202 202 139
Width: 624
GlyphClass: 2
Flags: W
LayerCount: 2
Fore
SplineSet
421 381 m 2,0,-1
 287 383 l 1,1,2
 268 260 268 260 254 192.5 c 128,-1,3
 240 125 240 125 178 65 c 1,4,-1
 182 57 l 1,5,-1
 419 55 l 2,6,7
 427 54 427 54 436 54 c 0,8,9
 508 54 508 54 565 94 c 1,10,-1
 569 86 l 1,11,12
 488 24 488 24 452 -1 c 1,13,-1
 69 0 l 1,14,-1
 65 8 l 1,15,16
 152 26 152 26 180 177 c 0,17,18
 198 271 198 271 214 374.5 c 128,-1,19
 230 478 230 478 238 529 c 0,20,21
 258 654 258 654 282 694 c 1,22,-1
 241 694 l 2,23,24
 141 694 141 694 100.5 639.5 c 128,-1,25
 60 585 60 585 60 452 c 1,26,-1
 -9 398 l 1,27,28
 -9 512 -9 512 32 593 c 128,-1,29
 73 674 73 674 172 731 c 0,30,31
 207 751 207 751 321 751 c 2,32,-1
 478 751 l 2,33,34
 597 751 597 751 630 752 c 1,35,-1
 574 693 l 1,36,-1
 342 694 l 1,37,38
 335 675 335 675 332 660 c 2,39,-1
 298 445 l 1,40,-1
 312 445 l 1,41,-1
 430 441 l 1,42,43
 482 441 482 441 527 451 c 1,44,-1
 532 447 l 1,45,46
 514 421 514 421 484.5 401 c 128,-1,47
 455 381 455 381 421 381 c 2,0,-1
409 906 m 1,48,49
 432 897 432 897 469.5 870 c 128,-1,50
 507 843 507 843 525 824 c 1,51,-1
 490 791 l 1,52,53
 426 853 426 853 381 867 c 1,54,55
 335 844 335 844 275 793 c 1,56,-1
 265 802 l 1,57,58
 305 846 305 846 337.5 871.5 c 128,-1,59
 370 897 370 897 409 906 c 1,48,49
EndSplineSet
EndChar

StartChar: Edieresis
Encoding: 203 203 140
Width: 624
GlyphClass: 2
Flags: W
LayerCount: 2
Fore
SplineSet
421 381 m 2,0,-1
 287 383 l 1,1,2
 268 260 268 260 254 192.5 c 128,-1,3
 240 125 240 125 178 65 c 1,4,-1
 182 57 l 1,5,-1
 419 55 l 2,6,7
 427 54 427 54 436 54 c 0,8,9
 508 54 508 54 565 94 c 1,10,-1
 569 86 l 1,11,12
 488 24 488 24 452 -1 c 1,13,-1
 69 0 l 1,14,-1
 65 8 l 1,15,16
 152 26 152 26 180 177 c 0,17,18
 198 271 198 271 214 374.5 c 128,-1,19
 230 478 230 478 238 529 c 0,20,21
 258 654 258 654 282 694 c 1,22,-1
 241 694 l 2,23,24
 141 694 141 694 100.5 639.5 c 128,-1,25
 60 585 60 585 60 452 c 1,26,-1
 -9 398 l 1,27,28
 -9 512 -9 512 32 593 c 128,-1,29
 73 674 73 674 172 731 c 0,30,31
 207 751 207 751 321 751 c 2,32,-1
 478 751 l 2,33,34
 597 751 597 751 630 752 c 1,35,-1
 574 693 l 1,36,-1
 342 694 l 1,37,38
 335 675 335 675 332 660 c 2,39,-1
 298 445 l 1,40,-1
 312 445 l 1,41,-1
 430 441 l 1,42,43
 482 441 482 441 527 451 c 1,44,-1
 532 447 l 1,45,46
 514 421 514 421 484.5 401 c 128,-1,47
 455 381 455 381 421 381 c 2,0,-1
188 864 m 1,48,-1
 242 914 l 1,49,50
 275 888 275 888 290 862 c 1,51,-1
 239 807 l 1,52,53
 202 852 202 852 188 864 c 1,48,-1
377 864 m 1,54,-1
 431 914 l 1,55,56
 459 896 459 896 478 862 c 1,57,-1
 433 807 l 1,58,59
 403 845 403 845 377 864 c 1,54,-1
EndSplineSet
EndChar

StartChar: Igrave
Encoding: 204 204 141
Width: 440
GlyphClass: 2
Flags: W
LayerCount: 2
Fore
SplineSet
309 -1 m 1,0,-1
 100 0 l 1,1,-1
 96 8 l 1,2,3
 183 26 183 26 211 177 c 0,4,5
 235 309 235 309 257 448.5 c 128,-1,6
 279 588 279 588 289.5 631 c 128,-1,7
 300 674 300 674 312 694 c 1,8,-1
 245 694 l 2,9,10
 145 694 145 694 104.5 639.5 c 128,-1,11
 64 585 64 585 64 452 c 1,12,-1
 -5 398 l 1,13,14
 -5 512 -5 512 36 593 c 128,-1,15
 77 674 77 674 176 731 c 0,16,17
 211 751 211 751 321 751 c 2,18,-1
 411 751 l 1,19,-1
 412 748 l 1,20,21
 374 724 374 724 363 660 c 0,22,23
 356 619 356 619 342 526 c 0,24,25
 318 374 318 374 285 186 c 1,26,27
 271 124 271 124 209 65 c 1,28,-1
 213 57 l 1,29,30
 237 56 237 56 270.5 56 c 128,-1,31
 304 56 304 56 343.5 61.5 c 128,-1,32
 383 67 383 67 422 94 c 1,33,-1
 426 86 l 1,34,35
 324 0 324 0 309 -1 c 1,0,-1
201 959 m 0,36,37
 278 959 278 959 338 889 c 0,38,39
 364 858 364 858 409 795 c 1,40,-1
 394 777 l 1,41,42
 319 864 319 864 271 893 c 0,43,44
 254 903 254 903 232 911.5 c 128,-1,45
 210 920 210 920 208 920 c 1,46,-1
 193 959 l 1,47,48
 197 959 197 959 201 959 c 0,36,37
EndSplineSet
EndChar

StartChar: Iacute
Encoding: 205 205 142
Width: 459
GlyphClass: 2
Flags: W
LayerCount: 2
Fore
SplineSet
309 -1 m 1,0,-1
 100 0 l 1,1,-1
 96 8 l 1,2,3
 183 26 183 26 211 177 c 0,4,5
 235 309 235 309 257 448.5 c 128,-1,6
 279 588 279 588 289.5 631 c 128,-1,7
 300 674 300 674 312 694 c 1,8,-1
 245 694 l 2,9,10
 145 694 145 694 104.5 639.5 c 128,-1,11
 64 585 64 585 64 452 c 1,12,-1
 -5 398 l 1,13,14
 -5 512 -5 512 36 593 c 128,-1,15
 77 674 77 674 176 731 c 0,16,17
 211 751 211 751 321 751 c 2,18,-1
 411 751 l 1,19,-1
 412 748 l 1,20,21
 374 724 374 724 363 660 c 0,22,23
 356 619 356 619 342 526 c 0,24,25
 318 374 318 374 285 186 c 1,26,27
 271 124 271 124 209 65 c 1,28,-1
 213 57 l 1,29,30
 237 56 237 56 270.5 56 c 128,-1,31
 304 56 304 56 343.5 61.5 c 128,-1,32
 383 67 383 67 422 94 c 1,33,-1
 426 86 l 1,34,35
 324 0 324 0 309 -1 c 1,0,-1
508 959 m 0,36,37
 512 959 512 959 516 959 c 1,38,-1
 501 920 l 1,39,40
 472 914 472 914 427 885.5 c 128,-1,41
 382 857 382 857 314 778 c 1,42,-1
 300 795 l 1,43,44
 345 858 345 858 372 889 c 0,45,46
 431 959 431 959 508 959 c 0,36,37
EndSplineSet
EndChar

StartChar: Icircumflex
Encoding: 206 206 143
Width: 439
GlyphClass: 2
Flags: W
LayerCount: 2
Fore
SplineSet
309 -1 m 1,0,-1
 100 0 l 1,1,-1
 96 8 l 1,2,3
 183 26 183 26 211 177 c 0,4,5
 235 309 235 309 257 448.5 c 128,-1,6
 279 588 279 588 289.5 631 c 128,-1,7
 300 674 300 674 312 694 c 1,8,-1
 245 694 l 2,9,10
 145 694 145 694 104.5 639.5 c 128,-1,11
 64 585 64 585 64 452 c 1,12,-1
 -5 398 l 1,13,14
 -5 512 -5 512 36 593 c 128,-1,15
 77 674 77 674 176 731 c 0,16,17
 211 751 211 751 321 751 c 2,18,-1
 411 751 l 1,19,-1
 412 748 l 1,20,21
 374 724 374 724 363 660 c 0,22,23
 356 619 356 619 342 526 c 0,24,25
 318 374 318 374 285 186 c 1,26,27
 271 124 271 124 209 65 c 1,28,-1
 213 57 l 1,29,30
 237 56 237 56 270.5 56 c 128,-1,31
 304 56 304 56 343.5 61.5 c 128,-1,32
 383 67 383 67 422 94 c 1,33,-1
 426 86 l 1,34,35
 324 0 324 0 309 -1 c 1,0,-1
380 915 m 1,36,37
 403 906 403 906 440.5 879 c 128,-1,38
 478 852 478 852 496 833 c 1,39,-1
 461 800 l 1,40,41
 397 862 397 862 352 876 c 1,42,43
 306 853 306 853 246 802 c 1,44,-1
 236 811 l 1,45,46
 276 855 276 855 308.5 880.5 c 128,-1,47
 341 906 341 906 380 915 c 1,36,37
EndSplineSet
EndChar

StartChar: Idieresis
Encoding: 207 207 144
Width: 440
GlyphClass: 2
Flags: W
LayerCount: 2
Fore
SplineSet
309 -1 m 1,0,-1
 100 0 l 1,1,-1
 96 8 l 1,2,3
 183 26 183 26 211 177 c 0,4,5
 235 309 235 309 257 448.5 c 128,-1,6
 279 588 279 588 289.5 631 c 128,-1,7
 300 674 300 674 312 694 c 1,8,-1
 245 694 l 2,9,10
 145 694 145 694 104.5 639.5 c 128,-1,11
 64 585 64 585 64 452 c 1,12,-1
 -5 398 l 1,13,14
 -5 512 -5 512 36 593 c 128,-1,15
 77 674 77 674 176 731 c 0,16,17
 211 751 211 751 321 751 c 2,18,-1
 411 751 l 1,19,-1
 412 748 l 1,20,21
 374 724 374 724 363 660 c 0,22,23
 356 619 356 619 342 526 c 0,24,25
 318 374 318 374 285 186 c 1,26,27
 271 124 271 124 209 65 c 1,28,-1
 213 57 l 1,29,30
 237 56 237 56 270.5 56 c 128,-1,31
 304 56 304 56 343.5 61.5 c 128,-1,32
 383 67 383 67 422 94 c 1,33,-1
 426 86 l 1,34,35
 324 0 324 0 309 -1 c 1,0,-1
207 861 m 1,36,-1
 261 911 l 1,37,38
 294 885 294 885 309 859 c 1,39,-1
 258 804 l 1,40,41
 221 849 221 849 207 861 c 1,36,-1
396 861 m 1,42,-1
 450 911 l 1,43,44
 478 893 478 893 497 859 c 1,45,-1
 452 804 l 1,46,47
 422 842 422 842 396 861 c 1,42,-1
EndSplineSet
EndChar

StartChar: Eth
Encoding: 208 208 145
Width: 720
GlyphClass: 2
Flags: W
LayerCount: 2
Fore
SplineSet
177 419 m 2,0,1
 215 419 215 419 239 418 c 1,2,3
 256 521 256 521 263 562 c 0,4,5
 281 664 281 664 309 702 c 1,6,7
 227 702 227 702 155 642 c 0,8,9
 120 612 120 612 98 560.5 c 128,-1,10
 76 509 76 509 76 444 c 1,11,-1
 11 388 l 1,12,13
 11 565 11 565 117 659.5 c 128,-1,14
 223 754 223 754 423 754 c 0,15,16
 555 754 555 754 617 684.5 c 128,-1,17
 679 615 679 615 679 503 c 0,18,19
 679 421 679 421 647 332 c 128,-1,20
 615 243 615 243 560.5 169.5 c 128,-1,21
 506 96 506 96 425.5 48 c 128,-1,22
 345 0 345 0 258 0 c 2,23,-1
 88 0 l 1,24,-1
 84 8 l 1,25,26
 171 26 171 26 199 177 c 1,27,28
 218 286 218 286 229 356 c 1,29,30
 191 357 191 357 128 357 c 1,31,-1
 160 419 l 1,32,-1
 177 419 l 2,0,1
329 57 m 2,33,34
 408 57 408 57 474 116.5 c 128,-1,35
 540 176 540 176 575.5 264 c 128,-1,36
 611 352 611 352 611 443 c 0,37,38
 611 553 611 553 554 626 c 0,39,40
 526 663 526 663 477.5 684 c 128,-1,41
 429 705 429 705 366 705 c 1,42,43
 354 680 354 680 350 655.5 c 128,-1,44
 346 631 346 631 311 416 c 1,45,46
 351 415 351 415 404 415 c 128,-1,47
 457 415 457 415 502 425 c 1,48,-1
 507 421 l 1,49,50
 489 395 489 395 459.5 375 c 128,-1,51
 430 355 430 355 388 355 c 128,-1,52
 346 355 346 355 301 356 c 1,53,54
 299 337 299 337 273 186 c 0,55,56
 263 128 263 128 197 65 c 1,57,-1
 201 57 l 1,58,-1
 329 57 l 2,33,34
EndSplineSet
EndChar

StartChar: Ntilde
Encoding: 209 209 146
Width: 813
GlyphClass: 2
Flags: W
LayerCount: 2
Fore
SplineSet
300 750 m 2,0,-1
 394 750 l 1,1,2
 520 387 520 387 578 102 c 1,3,4
 592 175 592 175 614 323.5 c 128,-1,5
 636 472 636 472 653.5 564.5 c 128,-1,6
 671 657 671 657 691 694 c 1,7,8
 670 695 670 695 631.5 695 c 128,-1,9
 593 695 593 695 545 688 c 1,10,-1
 544 690 l 1,11,12
 575 727 575 727 614 739 c 128,-1,13
 653 751 653 751 736 751 c 2,14,-1
 790 751 l 1,15,-1
 791 748 l 1,16,17
 753 724 753 724 742 660 c 2,18,-1
 666 218 l 2,19,20
 649 119 649 119 620.5 67.5 c 128,-1,21
 592 16 592 16 534 -10 c 1,22,-1
 530 -2 l 1,23,-1
 557 13 l 1,24,25
 509 160 509 160 441 350 c 128,-1,26
 373 540 373 540 338 643 c 1,27,28
 321 571 321 571 304 431 c 128,-1,29
 287 291 287 291 276 228 c 0,30,31
 255 113 255 113 198.5 56.5 c 128,-1,32
 142 0 142 0 61 0 c 0,33,34
 58 0 58 0 55 0 c 2,35,-1
 1 1 l 1,36,-1
 48 65 l 1,37,38
 84 56 84 56 116.5 56 c 128,-1,39
 149 56 149 56 164 72 c 128,-1,40
 179 88 179 88 189 138 c 0,41,42
 214 267 214 267 233 402.5 c 128,-1,43
 252 538 252 538 262 604 c 128,-1,44
 272 670 272 670 284 694 c 1,45,-1
 219 695 l 2,46,47
 217 695 217 695 216 695 c 0,48,49
 121 695 121 695 80.5 639.5 c 128,-1,50
 40 584 40 584 40 452 c 1,51,-1
 -29 398 l 1,52,53
 -29 512 -29 512 12 593 c 128,-1,54
 53 674 53 674 152 731 c 0,55,56
 185 750 185 750 300 750 c 2,0,-1
516.5 846.5 m 128,-1,58
 478 865 478 865 456 865 c 128,-1,59
 434 865 434 865 403.5 851.5 c 128,-1,60
 373 838 373 838 356 823 c 1,61,-1
 351 838 l 1,62,63
 400 888 400 888 466 914 c 1,64,65
 488 914 488 914 526.5 896.5 c 128,-1,66
 565 879 565 879 587.5 879 c 128,-1,67
 610 879 610 879 641.5 889.5 c 128,-1,68
 673 900 673 900 688 911 c 1,69,-1
 696 900 l 1,70,71
 640 843 640 843 577 828 c 1,72,57
 555 828 555 828 516.5 846.5 c 128,-1,58
EndSplineSet
EndChar

StartChar: Ograve
Encoding: 210 210 147
Width: 587
GlyphClass: 2
Flags: W
LayerCount: 2
Fore
SplineSet
510 660 m 128,-1,1
 547 589 547 589 547 487.5 c 128,-1,2
 547 386 547 386 502 281.5 c 128,-1,3
 457 177 457 177 376.5 98.5 c 128,-1,4
 296 20 296 20 201 -5 c 1,5,6
 120 16 120 16 79 81 c 128,-1,7
 38 146 38 146 38 237 c 0,8,9
 38 403 38 403 143.5 558.5 c 128,-1,10
 249 714 249 714 397 753 c 1,11,0
 473 731 473 731 510 660 c 128,-1,1
479 429 m 0,12,13
 479 523 479 523 446 595 c 128,-1,14
 413 667 413 667 345 697 c 1,15,16
 243 666 243 666 174.5 546.5 c 128,-1,17
 106 427 106 427 106 297 c 0,18,19
 106 210 106 210 142.5 144 c 128,-1,20
 179 78 179 78 253 51 c 1,21,22
 350 80 350 80 414.5 192.5 c 128,-1,23
 479 305 479 305 479 429 c 0,12,13
292 963 m 0,24,25
 369 963 369 963 428 893 c 0,26,27
 455 862 455 862 500 799 c 1,28,-1
 485 781 l 1,29,30
 410 868 410 868 362 897 c 0,31,32
 345 907 345 907 323 915.5 c 128,-1,33
 301 924 301 924 299 924 c 1,34,-1
 284 963 l 1,35,36
 288 963 288 963 292 963 c 0,24,25
EndSplineSet
EndChar

StartChar: Oacute
Encoding: 211 211 148
Width: 609
GlyphClass: 2
Flags: W
LayerCount: 2
Fore
SplineSet
510 660 m 128,-1,1
 547 589 547 589 547 487.5 c 128,-1,2
 547 386 547 386 502 281.5 c 128,-1,3
 457 177 457 177 376.5 98.5 c 128,-1,4
 296 20 296 20 201 -5 c 1,5,6
 120 16 120 16 79 81 c 128,-1,7
 38 146 38 146 38 237 c 0,8,9
 38 403 38 403 143.5 558.5 c 128,-1,10
 249 714 249 714 397 753 c 1,11,0
 473 731 473 731 510 660 c 128,-1,1
479 429 m 0,12,13
 479 523 479 523 446 595 c 128,-1,14
 413 667 413 667 345 697 c 1,15,16
 243 666 243 666 174.5 546.5 c 128,-1,17
 106 427 106 427 106 297 c 0,18,19
 106 210 106 210 142.5 144 c 128,-1,20
 179 78 179 78 253 51 c 1,21,22
 350 80 350 80 414.5 192.5 c 128,-1,23
 479 305 479 305 479 429 c 0,12,13
506 960 m 0,24,25
 510 960 510 960 514 960 c 1,26,-1
 499 921 l 1,27,28
 470 915 470 915 425 886.5 c 128,-1,29
 380 858 380 858 312 779 c 1,30,-1
 298 796 l 1,31,32
 343 859 343 859 370 890 c 0,33,34
 429 960 429 960 506 960 c 0,24,25
EndSplineSet
EndChar

StartChar: Ocircumflex
Encoding: 212 212 149
Width: 587
GlyphClass: 2
Flags: W
LayerCount: 2
Fore
SplineSet
510 660 m 128,-1,1
 547 589 547 589 547 487.5 c 128,-1,2
 547 386 547 386 502 281.5 c 128,-1,3
 457 177 457 177 376.5 98.5 c 128,-1,4
 296 20 296 20 201 -5 c 1,5,6
 120 16 120 16 79 81 c 128,-1,7
 38 146 38 146 38 237 c 0,8,9
 38 403 38 403 143.5 558.5 c 128,-1,10
 249 714 249 714 397 753 c 1,11,0
 473 731 473 731 510 660 c 128,-1,1
479 429 m 0,12,13
 479 523 479 523 446 595 c 128,-1,14
 413 667 413 667 345 697 c 1,15,16
 243 666 243 666 174.5 546.5 c 128,-1,17
 106 427 106 427 106 297 c 0,18,19
 106 210 106 210 142.5 144 c 128,-1,20
 179 78 179 78 253 51 c 1,21,22
 350 80 350 80 414.5 192.5 c 128,-1,23
 479 305 479 305 479 429 c 0,12,13
430 918 m 1,24,25
 453 909 453 909 490.5 882 c 128,-1,26
 528 855 528 855 546 836 c 1,27,-1
 511 803 l 1,28,29
 447 865 447 865 402 879 c 1,30,31
 356 856 356 856 296 805 c 1,32,-1
 286 814 l 1,33,34
 326 858 326 858 358.5 883.5 c 128,-1,35
 391 909 391 909 430 918 c 1,24,25
EndSplineSet
EndChar

StartChar: Otilde
Encoding: 213 213 150
Width: 579
GlyphClass: 2
Flags: W
LayerCount: 2
Fore
SplineSet
501 660 m 128,-1,1
 538 589 538 589 538 487.5 c 128,-1,2
 538 386 538 386 493 281.5 c 128,-1,3
 448 177 448 177 367.5 98.5 c 128,-1,4
 287 20 287 20 192 -5 c 1,5,6
 111 16 111 16 70 81 c 128,-1,7
 29 146 29 146 29 237 c 0,8,9
 29 403 29 403 134.5 558.5 c 128,-1,10
 240 714 240 714 388 753 c 1,11,0
 464 731 464 731 501 660 c 128,-1,1
470 429 m 0,12,13
 470 523 470 523 437 595 c 128,-1,14
 404 667 404 667 336 697 c 1,15,16
 234 666 234 666 165.5 546.5 c 128,-1,17
 97 427 97 427 97 297 c 0,18,19
 97 210 97 210 133.5 144 c 128,-1,20
 170 78 170 78 244 51 c 1,21,22
 341 80 341 80 405.5 192.5 c 128,-1,23
 470 305 470 305 470 429 c 0,12,13
400.5 855.5 m 128,-1,25
 362 874 362 874 340 874 c 128,-1,26
 318 874 318 874 287.5 860.5 c 128,-1,27
 257 847 257 847 240 832 c 1,28,-1
 235 847 l 1,29,30
 284 897 284 897 350 923 c 1,31,32
 372 923 372 923 410.5 905.5 c 128,-1,33
 449 888 449 888 471.5 888 c 128,-1,34
 494 888 494 888 525.5 898.5 c 128,-1,35
 557 909 557 909 572 920 c 1,36,-1
 580 909 l 1,37,38
 524 852 524 852 461 837 c 1,39,24
 439 837 439 837 400.5 855.5 c 128,-1,25
EndSplineSet
EndChar

StartChar: Odieresis
Encoding: 214 214 151
Width: 557
GlyphClass: 2
Flags: W
LayerCount: 2
Fore
SplineSet
510 660 m 128,-1,1
 547 589 547 589 547 487.5 c 128,-1,2
 547 386 547 386 502 281.5 c 128,-1,3
 457 177 457 177 376.5 98.5 c 128,-1,4
 296 20 296 20 201 -5 c 1,5,6
 120 16 120 16 79 81 c 128,-1,7
 38 146 38 146 38 237 c 0,8,9
 38 403 38 403 143.5 558.5 c 128,-1,10
 249 714 249 714 397 753 c 1,11,0
 473 731 473 731 510 660 c 128,-1,1
479 429 m 0,12,13
 479 523 479 523 446 595 c 128,-1,14
 413 667 413 667 345 697 c 1,15,16
 243 666 243 666 174.5 546.5 c 128,-1,17
 106 427 106 427 106 297 c 0,18,19
 106 210 106 210 142.5 144 c 128,-1,20
 179 78 179 78 253 51 c 1,21,22
 350 80 350 80 414.5 192.5 c 128,-1,23
 479 305 479 305 479 429 c 0,12,13
265 867 m 1,24,-1
 319 917 l 1,25,26
 352 891 352 891 367 865 c 1,27,-1
 316 810 l 1,28,29
 279 855 279 855 265 867 c 1,24,-1
454 867 m 1,30,-1
 508 917 l 1,31,32
 536 899 536 899 555 865 c 1,33,-1
 510 810 l 1,34,35
 480 848 480 848 454 867 c 1,30,-1
EndSplineSet
EndChar

StartChar: multiply
Encoding: 215 215 152
Width: 551
GlyphClass: 2
Flags: W
LayerCount: 2
Fore
SplineSet
102 501 m 1,0,1
 164 404 164 404 287 290 c 1,2,-1
 477 501 l 1,3,-1
 499 487 l 1,4,-1
 305 271 l 1,5,6
 347 229 347 229 375.5 200.5 c 128,-1,7
 404 172 404 172 427 148 c 0,8,9
 469 104 469 104 504 59 c 1,10,-1
 504 58 l 1,11,-1
 451 6 l 1,12,13
 409 58 409 58 340 127 c 2,14,-1
 256 211 l 1,15,-1
 62 -3 l 1,16,-1
 45 15 l 1,17,-1
 239 230 l 1,18,19
 115 345 115 345 49 449 c 1,20,-1
 102 501 l 1,0,1
EndSplineSet
EndChar

StartChar: Oslash
Encoding: 216 216 153
Width: 587
GlyphClass: 2
Flags: W
LayerCount: 2
Fore
SplineSet
538 788 m 1,0,-1
 488 692 l 1,1,2
 547 620 547 620 547 489 c 0,3,4
 547 386 547 386 502 281.5 c 128,-1,5
 457 177 457 177 376.5 98.5 c 128,-1,6
 296 20 296 20 201 -5 c 1,7,8
 168 3 168 3 136 23 c 1,9,10
 116 -13 116 -13 81 -83 c 1,11,-1
 38 -24 l 1,12,13
 74 36 74 36 90 64 c 1,14,15
 38 129 38 129 38 237 c 0,16,17
 38 403 38 403 143.5 558.5 c 128,-1,18
 249 714 249 714 397 753 c 1,19,20
 433 742 433 742 457 723 c 1,21,22
 489 785 489 785 506 817 c 1,23,-1
 538 788 l 1,0,-1
414.5 192.5 m 128,-1,25
 479 305 479 305 479 418 c 128,-1,26
 479 531 479 531 441 603 c 1,27,28
 254 248 254 248 176 100 c 1,29,30
 207 67 207 67 253 51 c 1,31,24
 350 80 350 80 414.5 192.5 c 128,-1,25
106 297 m 0,32,33
 106 213 106 213 140 149 c 1,34,35
 283 399 283 399 415 644 c 1,36,37
 385 678 385 678 345 697 c 1,38,39
 243 666 243 666 174.5 546.5 c 128,-1,40
 106 427 106 427 106 297 c 0,32,33
EndSplineSet
EndChar

StartChar: Ugrave
Encoding: 217 217 154
Width: 803
GlyphClass: 2
Flags: W
LayerCount: 2
Fore
SplineSet
320 750 m 2,0,-1
 414 750 l 1,1,-1
 415 747 l 1,2,3
 405 740 405 740 391 717.5 c 128,-1,4
 377 695 377 695 369 666 c 1,5,6
 297 274 297 274 297 187 c 0,7,8
 297 65 297 65 377 65 c 0,9,10
 411 65 411 65 448.5 100.5 c 128,-1,11
 486 136 486 136 515 186 c 0,12,13
 577 295 577 295 593 371 c 2,14,-1
 657 694 l 1,15,16
 664 712 664 712 684 725 c 128,-1,17
 704 738 704 738 718.5 742 c 128,-1,18
 733 746 733 746 758 751 c 1,19,-1
 759 748 l 1,20,21
 721 724 721 724 710 660 c 0,22,23
 704 625 704 625 687 528 c 0,24,25
 630 201 630 201 630 155.5 c 128,-1,26
 630 110 630 110 650.5 88 c 128,-1,27
 671 66 671 66 705.5 66 c 128,-1,28
 740 66 740 66 787 94 c 1,29,-1
 791 86 l 1,30,31
 737 38 737 38 674 0 c 1,32,33
 571 1 571 1 571 141 c 0,34,35
 571 184 571 184 583 256 c 1,36,-1
 578 256 l 1,37,38
 543 160 543 160 462 79.5 c 128,-1,39
 381 -1 381 -1 319 -1 c 0,40,41
 224 -1 224 -1 224 159 c 0,42,43
 224 212 224 212 233 268.5 c 128,-1,44
 242 325 242 325 252 398 c 2,45,-1
 268 510 l 2,46,47
 283 612 283 612 293.5 645 c 128,-1,48
 304 678 304 678 314 695 c 1,49,-1
 234 695 l 2,50,51
 139 695 139 695 99.5 638.5 c 128,-1,52
 60 582 60 582 60 452 c 1,53,-1
 -9 398 l 1,54,55
 -9 512 -9 512 32 593 c 128,-1,56
 73 674 73 674 172 731 c 0,57,58
 205 750 205 750 320 750 c 2,0,-1
397 958 m 0,59,60
 474 958 474 958 534 888 c 0,61,62
 560 857 560 857 605 794 c 1,63,-1
 590 776 l 1,64,65
 515 863 515 863 467 892 c 0,66,67
 450 902 450 902 428 910.5 c 128,-1,68
 406 919 406 919 404 919 c 1,69,-1
 389 958 l 1,70,71
 393 958 393 958 397 958 c 0,59,60
EndSplineSet
EndChar

StartChar: Uacute
Encoding: 218 218 155
Width: 803
GlyphClass: 2
Flags: W
LayerCount: 2
Fore
SplineSet
320 750 m 2,0,-1
 414 750 l 1,1,-1
 415 747 l 1,2,3
 405 740 405 740 391 717.5 c 128,-1,4
 377 695 377 695 369 666 c 1,5,6
 297 274 297 274 297 187 c 0,7,8
 297 65 297 65 377 65 c 0,9,10
 411 65 411 65 448.5 100.5 c 128,-1,11
 486 136 486 136 515 186 c 0,12,13
 577 295 577 295 593 371 c 2,14,-1
 657 694 l 1,15,16
 664 712 664 712 684 725 c 128,-1,17
 704 738 704 738 718.5 742 c 128,-1,18
 733 746 733 746 758 751 c 1,19,-1
 759 748 l 1,20,21
 721 724 721 724 710 660 c 0,22,23
 704 625 704 625 687 528 c 0,24,25
 630 201 630 201 630 155.5 c 128,-1,26
 630 110 630 110 650.5 88 c 128,-1,27
 671 66 671 66 705.5 66 c 128,-1,28
 740 66 740 66 787 94 c 1,29,-1
 791 86 l 1,30,31
 737 38 737 38 674 0 c 1,32,33
 571 1 571 1 571 141 c 0,34,35
 571 184 571 184 583 256 c 1,36,-1
 578 256 l 1,37,38
 543 160 543 160 462 79.5 c 128,-1,39
 381 -1 381 -1 319 -1 c 0,40,41
 224 -1 224 -1 224 159 c 0,42,43
 224 212 224 212 233 268.5 c 128,-1,44
 242 325 242 325 252 398 c 2,45,-1
 268 510 l 2,46,47
 283 612 283 612 293.5 645 c 128,-1,48
 304 678 304 678 314 695 c 1,49,-1
 234 695 l 2,50,51
 139 695 139 695 99.5 638.5 c 128,-1,52
 60 582 60 582 60 452 c 1,53,-1
 -9 398 l 1,54,55
 -9 512 -9 512 32 593 c 128,-1,56
 73 674 73 674 172 731 c 0,57,58
 205 750 205 750 320 750 c 2,0,-1
687 961 m 0,59,60
 691 961 691 961 695 961 c 1,61,-1
 680 922 l 1,62,63
 651 916 651 916 606 887.5 c 128,-1,64
 561 859 561 859 493 780 c 1,65,-1
 479 797 l 1,66,67
 524 860 524 860 550 891 c 0,68,69
 610 961 610 961 687 961 c 0,59,60
EndSplineSet
EndChar

StartChar: Ucircumflex
Encoding: 219 219 156
Width: 803
GlyphClass: 2
Flags: W
LayerCount: 2
Fore
SplineSet
320 750 m 2,0,-1
 414 750 l 1,1,-1
 415 747 l 1,2,3
 405 740 405 740 391 717.5 c 128,-1,4
 377 695 377 695 369 666 c 1,5,6
 297 274 297 274 297 187 c 0,7,8
 297 65 297 65 377 65 c 0,9,10
 411 65 411 65 448.5 100.5 c 128,-1,11
 486 136 486 136 515 186 c 0,12,13
 577 295 577 295 593 371 c 2,14,-1
 657 694 l 1,15,16
 664 712 664 712 684 725 c 128,-1,17
 704 738 704 738 718.5 742 c 128,-1,18
 733 746 733 746 758 751 c 1,19,-1
 759 748 l 1,20,21
 721 724 721 724 710 660 c 0,22,23
 704 625 704 625 687 528 c 0,24,25
 630 201 630 201 630 155.5 c 128,-1,26
 630 110 630 110 650.5 88 c 128,-1,27
 671 66 671 66 705.5 66 c 128,-1,28
 740 66 740 66 787 94 c 1,29,-1
 791 86 l 1,30,31
 737 38 737 38 674 0 c 1,32,33
 571 1 571 1 571 141 c 0,34,35
 571 184 571 184 583 256 c 1,36,-1
 578 256 l 1,37,38
 543 160 543 160 462 79.5 c 128,-1,39
 381 -1 381 -1 319 -1 c 0,40,41
 224 -1 224 -1 224 159 c 0,42,43
 224 212 224 212 233 268.5 c 128,-1,44
 242 325 242 325 252 398 c 2,45,-1
 268 510 l 2,46,47
 283 612 283 612 293.5 645 c 128,-1,48
 304 678 304 678 314 695 c 1,49,-1
 234 695 l 2,50,51
 139 695 139 695 99.5 638.5 c 128,-1,52
 60 582 60 582 60 452 c 1,53,-1
 -9 398 l 1,54,55
 -9 512 -9 512 32 593 c 128,-1,56
 73 674 73 674 172 731 c 0,57,58
 205 750 205 750 320 750 c 2,0,-1
586 926 m 1,59,60
 609 917 609 917 646.5 890 c 128,-1,61
 684 863 684 863 702 844 c 1,62,-1
 667 811 l 1,63,64
 603 873 603 873 558 887 c 1,65,66
 512 864 512 864 452 813 c 1,67,-1
 442 822 l 1,68,69
 482 866 482 866 514.5 891.5 c 128,-1,70
 547 917 547 917 586 926 c 1,59,60
EndSplineSet
EndChar

StartChar: Udieresis
Encoding: 220 220 157
Width: 803
GlyphClass: 2
Flags: W
LayerCount: 2
Fore
SplineSet
320 750 m 2,0,-1
 414 750 l 1,1,-1
 415 747 l 1,2,3
 405 740 405 740 391 717.5 c 128,-1,4
 377 695 377 695 369 666 c 1,5,6
 297 274 297 274 297 187 c 0,7,8
 297 65 297 65 377 65 c 0,9,10
 411 65 411 65 448.5 100.5 c 128,-1,11
 486 136 486 136 515 186 c 0,12,13
 577 295 577 295 593 371 c 2,14,-1
 657 694 l 1,15,16
 664 712 664 712 684 725 c 128,-1,17
 704 738 704 738 718.5 742 c 128,-1,18
 733 746 733 746 758 751 c 1,19,-1
 759 748 l 1,20,21
 721 724 721 724 710 660 c 0,22,23
 704 625 704 625 687 528 c 0,24,25
 630 201 630 201 630 155.5 c 128,-1,26
 630 110 630 110 650.5 88 c 128,-1,27
 671 66 671 66 705.5 66 c 128,-1,28
 740 66 740 66 787 94 c 1,29,-1
 791 86 l 1,30,31
 737 38 737 38 674 0 c 1,32,33
 571 1 571 1 571 141 c 0,34,35
 571 184 571 184 583 256 c 1,36,-1
 578 256 l 1,37,38
 543 160 543 160 462 79.5 c 128,-1,39
 381 -1 381 -1 319 -1 c 0,40,41
 224 -1 224 -1 224 159 c 0,42,43
 224 212 224 212 233 268.5 c 128,-1,44
 242 325 242 325 252 398 c 2,45,-1
 268 510 l 2,46,47
 283 612 283 612 293.5 645 c 128,-1,48
 304 678 304 678 314 695 c 1,49,-1
 234 695 l 2,50,51
 139 695 139 695 99.5 638.5 c 128,-1,52
 60 582 60 582 60 452 c 1,53,-1
 -9 398 l 1,54,55
 -9 512 -9 512 32 593 c 128,-1,56
 73 674 73 674 172 731 c 0,57,58
 205 750 205 750 320 750 c 2,0,-1
403 871 m 1,59,-1
 457 921 l 1,60,61
 490 895 490 895 505 869 c 1,62,-1
 454 814 l 1,63,64
 417 859 417 859 403 871 c 1,59,-1
592 871 m 1,65,-1
 646 921 l 1,66,67
 674 903 674 903 693 869 c 1,68,-1
 648 814 l 1,69,70
 618 852 618 852 592 871 c 1,65,-1
EndSplineSet
EndChar

StartChar: Yacute
Encoding: 221 221 158
Width: 678
GlyphClass: 2
Flags: W
LayerCount: 2
Fore
SplineSet
638 961 m 0,0,1
 642 961 642 961 646 961 c 1,2,-1
 631 922 l 1,3,4
 602 916 602 916 557 887.5 c 128,-1,5
 512 859 512 859 444 780 c 1,6,-1
 430 797 l 1,7,8
 475 860 475 860 502 891 c 0,9,10
 561 961 561 961 638 961 c 0,0,1
226 757 m 0,11,12
 259 757 259 757 287.5 721.5 c 128,-1,13
 316 686 316 686 343 598 c 128,-1,14
 370 510 370 510 381 464 c 0,15,16
 412 338 412 338 432 236 c 1,17,18
 568 473 568 473 609.5 554.5 c 128,-1,19
 651 636 651 636 651 653.5 c 128,-1,20
 651 671 651 671 632.5 677.5 c 128,-1,21
 614 684 614 684 559 684 c 1,22,-1
 558 688 l 1,23,-1
 633 733 l 1,24,-1
 672 733 l 2,25,26
 727 733 727 733 727 693 c 0,27,28
 727 648 727 648 575 380 c 0,29,30
 510 266 510 266 508 262 c 0,31,32
 387 35 387 35 318 -51 c 128,-1,33
 249 -137 249 -137 148 -183 c 1,34,35
 73 -173 73 -173 -19 -101 c 1,36,-1
 39 -59 l 1,37,38
 104 -119 104 -119 166 -119 c 0,39,40
 214 -119 214 -119 260.5 -59.5 c 128,-1,41
 307 0 307 0 388 154 c 1,42,43
 381 179 381 179 358 271 c 128,-1,44
 335 363 335 363 321.5 413.5 c 128,-1,45
 308 464 308 464 287 536 c 0,46,47
 246 676 246 676 212 718 c 1,48,49
 145 718 145 718 113 667.5 c 128,-1,50
 81 617 81 617 81 508 c 1,51,-1
 12 454 l 1,52,53
 12 572 12 572 75 664.5 c 128,-1,54
 138 757 138 757 226 757 c 0,11,12
EndSplineSet
EndChar

StartChar: Thorn
Encoding: 222 222 159
Width: 626
GlyphClass: 2
Flags: W
LayerCount: 2
Fore
SplineSet
376 756.5 m 128,-1,1
 436 813 436 813 507.5 813 c 128,-1,2
 579 813 579 813 579 746 c 0,3,4
 579 668 579 668 510 610 c 128,-1,5
 441 552 441 552 346 527 c 1,6,7
 321 358 321 358 313 316 c 1,8,-1
 316 315 l 1,9,10
 359 389 359 389 416.5 445 c 128,-1,11
 474 501 474 501 528 518 c 1,12,13
 546 489 546 489 552.5 455 c 128,-1,14
 559 421 559 421 559 354.5 c 128,-1,15
 559 288 559 288 533 206.5 c 128,-1,16
 507 125 507 125 455.5 63 c 128,-1,17
 404 1 404 1 344 1 c 0,18,19
 309 1 309 1 280 29 c 1,20,21
 278 22 278 22 273 1 c 0,22,23
 211 -257 211 -257 35 -257 c 0,24,25
 14 -257 14 -257 -9 -251 c 1,26,-1
 29 -196 l 1,27,28
 59 -204 59 -204 95 -204 c 128,-1,29
 131 -204 131 -204 160.5 -173.5 c 128,-1,30
 190 -143 190 -143 204 -54.5 c 128,-1,31
 218 34 218 34 240 200 c 0,32,33
 274 454 274 454 284 515 c 1,34,35
 271 513 271 513 247 513 c 0,36,37
 129 513 129 513 52 585 c 1,38,-1
 110 646 l 1,39,40
 187 567 187 567 292 562 c 1,41,42
 295 583 295 583 301 614 c 0,43,0
 316 700 316 700 376 756.5 c 128,-1,1
346 54 m 0,44,45
 424 54 424 54 455.5 119.5 c 128,-1,46
 487 185 487 185 487 332 c 0,47,48
 487 411 487 411 478 429 c 1,49,50
 478 429 478 429 477 429 c 0,51,52
 451 429 451 429 387 367 c 128,-1,53
 323 305 323 305 309 248 c 0,54,55
 288 161 288 161 283 70 c 1,56,57
 291 64 291 64 313 59 c 128,-1,58
 335 54 335 54 346 54 c 0,44,45
525 686 m 0,59,60
 525 720 525 720 506.5 742.5 c 128,-1,61
 488 765 488 765 455 765 c 0,62,63
 381 765 381 765 365 659 c 0,64,65
 359 622 359 622 351 566 c 1,66,67
 418 576 418 576 471.5 607 c 128,-1,68
 525 638 525 638 525 686 c 0,59,60
EndSplineSet
EndChar

StartChar: germandbls
Encoding: 223 223 160
Width: 466
GlyphClass: 2
Flags: W
LayerCount: 2
Fore
SplineSet
340 823 m 0,0,1
 440 823 440 823 440 718 c 0,2,3
 440 657 440 657 384 584 c 0,4,5
 360 553 360 553 336 523 c 0,6,7
 279 452 279 452 279 396 c 0,8,9
 279 363 279 363 354 298 c 0,10,11
 381 274 381 274 404.5 238.5 c 128,-1,12
 428 203 428 203 428 169 c 0,13,14
 428 102 428 102 369.5 49 c 128,-1,15
 311 -4 311 -4 245.5 -4 c 128,-1,16
 180 -4 180 -4 155 19 c 1,17,-1
 206 72 l 1,18,19
 254 34 254 34 302 34 c 0,20,21
 333 34 333 34 355.5 67.5 c 128,-1,22
 378 101 378 101 378 130 c 128,-1,23
 378 159 378 159 352.5 193 c 128,-1,24
 327 227 327 227 297 253.5 c 128,-1,25
 267 280 267 280 241.5 314.5 c 128,-1,26
 216 349 216 349 216 377 c 128,-1,27
 216 405 216 405 232.5 435 c 128,-1,28
 249 465 249 465 272.5 493 c 128,-1,29
 296 521 296 521 320 551 c 0,30,31
 377 622 377 622 377 699 c 0,32,33
 377 796 377 796 320 796 c 0,34,35
 259 796 259 796 213 732.5 c 128,-1,36
 167 669 167 669 152 583.5 c 128,-1,37
 137 498 137 498 113.5 307.5 c 128,-1,38
 90 117 90 117 73 13.5 c 128,-1,39
 56 -90 56 -90 -12.5 -153 c 128,-1,40
 -81 -216 -81 -216 -154 -216 c 0,41,42
 -184 -216 -184 -216 -212 -202 c 1,43,-1
 -172 -151 l 1,44,45
 -135 -156 -135 -156 -113 -156 c 0,46,47
 -50 -156 -50 -156 -27 -127 c 128,-1,48
 -4 -98 -4 -98 13.5 -3.5 c 128,-1,49
 31 91 31 91 53.5 284 c 128,-1,50
 76 477 76 477 96.5 583.5 c 128,-1,51
 117 690 117 690 182 756.5 c 128,-1,52
 247 823 247 823 340 823 c 0,0,1
EndSplineSet
EndChar

StartChar: agrave
Encoding: 224 224 161
Width: 408
GlyphClass: 2
Flags: W
LayerCount: 2
Fore
SplineSet
252 500 m 0,0,1
 324 500 324 500 349 495 c 1,2,-1
 343 466 l 2,3,4
 334 420 334 420 318 328 c 1,5,6
 293 160 293 160 258 54 c 1,7,-1
 261 52 l 1,8,9
 348 115 348 115 471 286 c 1,10,-1
 481 279 l 1,11,12
 409 174 409 174 336 92.5 c 128,-1,13
 263 11 263 11 214 -10 c 1,14,15
 213 2 213 2 213 37.5 c 128,-1,16
 213 73 213 73 218 110.5 c 128,-1,17
 223 148 223 148 234.5 201 c 128,-1,18
 246 254 246 254 252 288 c 1,19,-1
 249 290 l 1,20,21
 187 185 187 185 135 115.5 c 128,-1,22
 83 46 83 46 14 -15 c 1,23,24
 1 30 1 30 1 116 c 128,-1,25
 1 202 1 202 27.5 298 c 128,-1,26
 54 394 54 394 106 447 c 128,-1,27
 158 500 158 500 252 500 c 0,0,1
111 418 m 128,-1,29
 87 387 87 387 75 289 c 128,-1,30
 63 191 63 191 63 138 c 128,-1,31
 63 85 63 85 69 67 c 1,32,33
 79 67 79 67 101 100.5 c 128,-1,34
 123 134 123 134 124 135 c 0,35,36
 162 182 162 182 219.5 290.5 c 128,-1,37
 277 399 277 399 277 443 c 1,38,39
 256 449 256 449 215 449 c 0,40,28
 135 449 135 449 111 418 c 128,-1,29
112 758 m 0,41,42
 189 758 189 758 248 688 c 0,43,44
 275 657 275 657 320 594 c 1,45,-1
 305 576 l 1,46,47
 230 663 230 663 182 692 c 0,48,49
 165 702 165 702 143 710.5 c 128,-1,50
 121 719 121 719 119 719 c 1,51,-1
 104 758 l 1,52,53
 108 758 108 758 112 758 c 0,41,42
EndSplineSet
EndChar

StartChar: aacute
Encoding: 225 225 162
Width: 410
GlyphClass: 2
Flags: W
LayerCount: 2
Fore
SplineSet
254 500 m 0,0,1
 326 500 326 500 351 495 c 1,2,-1
 345 466 l 2,3,4
 336 420 336 420 320 328 c 1,5,6
 295 160 295 160 260 54 c 1,7,-1
 263 52 l 1,8,9
 350 115 350 115 473 286 c 1,10,-1
 483 279 l 1,11,12
 411 174 411 174 338 92.5 c 128,-1,13
 265 11 265 11 216 -10 c 1,14,15
 215 2 215 2 215 37.5 c 128,-1,16
 215 73 215 73 220 110.5 c 128,-1,17
 225 148 225 148 236.5 201 c 128,-1,18
 248 254 248 254 254 288 c 1,19,-1
 251 290 l 1,20,21
 189 185 189 185 137 115.5 c 128,-1,22
 85 46 85 46 16 -15 c 1,23,24
 3 30 3 30 3 116 c 128,-1,25
 3 202 3 202 29.5 298 c 128,-1,26
 56 394 56 394 108 447 c 128,-1,27
 160 500 160 500 254 500 c 0,0,1
113 418 m 128,-1,29
 89 387 89 387 77 289 c 128,-1,30
 65 191 65 191 65 138 c 128,-1,31
 65 85 65 85 71 67 c 1,32,33
 81 67 81 67 103 100.5 c 128,-1,34
 125 134 125 134 126 135 c 0,35,36
 164 182 164 182 221.5 290.5 c 128,-1,37
 279 399 279 399 279 443 c 1,38,39
 258 449 258 449 217 449 c 0,40,28
 137 449 137 449 113 418 c 128,-1,29
423 758 m 0,41,42
 427 758 427 758 431 758 c 1,43,-1
 416 719 l 1,44,45
 387 713 387 713 342 684.5 c 128,-1,46
 297 656 297 656 229 577 c 1,47,-1
 215 594 l 1,48,49
 260 657 260 657 286 688 c 0,50,51
 346 758 346 758 423 758 c 0,41,42
EndSplineSet
EndChar

StartChar: acircumflex
Encoding: 226 226 163
Width: 410
GlyphClass: 2
Flags: W
LayerCount: 2
Fore
SplineSet
254 500 m 0,0,1
 326 500 326 500 351 495 c 1,2,-1
 345 466 l 2,3,4
 336 420 336 420 320 328 c 1,5,6
 295 160 295 160 260 54 c 1,7,-1
 263 52 l 1,8,9
 350 115 350 115 473 286 c 1,10,-1
 483 279 l 1,11,12
 411 174 411 174 338 92.5 c 128,-1,13
 265 11 265 11 216 -10 c 1,14,15
 215 2 215 2 215 37.5 c 128,-1,16
 215 73 215 73 220 110.5 c 128,-1,17
 225 148 225 148 236.5 201 c 128,-1,18
 248 254 248 254 254 288 c 1,19,-1
 251 290 l 1,20,21
 189 185 189 185 137 115.5 c 128,-1,22
 85 46 85 46 16 -15 c 1,23,24
 3 30 3 30 3 116 c 128,-1,25
 3 202 3 202 29.5 298 c 128,-1,26
 56 394 56 394 108 447 c 128,-1,27
 160 500 160 500 254 500 c 0,0,1
113 418 m 128,-1,29
 89 387 89 387 77 289 c 128,-1,30
 65 191 65 191 65 138 c 128,-1,31
 65 85 65 85 71 67 c 1,32,33
 81 67 81 67 103 100.5 c 128,-1,34
 125 134 125 134 126 135 c 0,35,36
 164 182 164 182 221.5 290.5 c 128,-1,37
 279 399 279 399 279 443 c 1,38,39
 258 449 258 449 217 449 c 0,40,28
 137 449 137 449 113 418 c 128,-1,29
272 765 m 1,41,42
 295 756 295 756 332.5 729 c 128,-1,43
 370 702 370 702 388 683 c 1,44,-1
 353 650 l 1,45,46
 289 712 289 712 244 726 c 1,47,48
 198 703 198 703 138 652 c 1,49,-1
 128 661 l 1,50,51
 168 705 168 705 200.5 730.5 c 128,-1,52
 233 756 233 756 272 765 c 1,41,42
EndSplineSet
EndChar

StartChar: atilde
Encoding: 227 227 164
Width: 412
GlyphClass: 2
Flags: W
LayerCount: 2
Fore
SplineSet
254 500 m 0,0,1
 326 500 326 500 351 495 c 1,2,-1
 345 466 l 2,3,4
 336 420 336 420 320 328 c 1,5,6
 295 160 295 160 260 54 c 1,7,-1
 263 52 l 1,8,9
 350 115 350 115 473 286 c 1,10,-1
 483 279 l 1,11,12
 411 174 411 174 338 92.5 c 128,-1,13
 265 11 265 11 216 -10 c 1,14,15
 215 2 215 2 215 37.5 c 128,-1,16
 215 73 215 73 220 110.5 c 128,-1,17
 225 148 225 148 236.5 201 c 128,-1,18
 248 254 248 254 254 288 c 1,19,-1
 251 290 l 1,20,21
 189 185 189 185 137 115.5 c 128,-1,22
 85 46 85 46 16 -15 c 1,23,24
 3 30 3 30 3 116 c 128,-1,25
 3 202 3 202 29.5 298 c 128,-1,26
 56 394 56 394 108 447 c 128,-1,27
 160 500 160 500 254 500 c 0,0,1
113 418 m 128,-1,29
 89 387 89 387 77 289 c 128,-1,30
 65 191 65 191 65 138 c 128,-1,31
 65 85 65 85 71 67 c 1,32,33
 81 67 81 67 103 100.5 c 128,-1,34
 125 134 125 134 126 135 c 0,35,36
 164 182 164 182 221.5 290.5 c 128,-1,37
 279 399 279 399 279 443 c 1,38,39
 258 449 258 449 217 449 c 0,40,28
 137 449 137 449 113 418 c 128,-1,29
278.5 672.5 m 128,-1,42
 240 691 240 691 218 691 c 128,-1,43
 196 691 196 691 165.5 677.5 c 128,-1,44
 135 664 135 664 118 649 c 1,45,-1
 113 664 l 1,46,47
 162 714 162 714 228 740 c 1,48,49
 250 740 250 740 288.5 722.5 c 128,-1,50
 327 705 327 705 349.5 705 c 128,-1,51
 372 705 372 705 403.5 715.5 c 128,-1,52
 435 726 435 726 450 737 c 1,53,-1
 458 726 l 1,54,55
 402 669 402 669 339 654 c 1,56,41
 317 654 317 654 278.5 672.5 c 128,-1,42
EndSplineSet
EndChar

StartChar: adieresis
Encoding: 228 228 165
Width: 410
GlyphClass: 2
Flags: W
LayerCount: 2
Fore
SplineSet
254 500 m 0,0,1
 326 500 326 500 351 495 c 1,2,-1
 345 466 l 2,3,4
 336 420 336 420 320 328 c 1,5,6
 295 160 295 160 260 54 c 1,7,-1
 263 52 l 1,8,9
 350 115 350 115 473 286 c 1,10,-1
 483 279 l 1,11,12
 411 174 411 174 338 92.5 c 128,-1,13
 265 11 265 11 216 -10 c 1,14,15
 215 2 215 2 215 37.5 c 128,-1,16
 215 73 215 73 220 110.5 c 128,-1,17
 225 148 225 148 236.5 201 c 128,-1,18
 248 254 248 254 254 288 c 1,19,-1
 251 290 l 1,20,21
 189 185 189 185 137 115.5 c 128,-1,22
 85 46 85 46 16 -15 c 1,23,24
 3 30 3 30 3 116 c 128,-1,25
 3 202 3 202 29.5 298 c 128,-1,26
 56 394 56 394 108 447 c 128,-1,27
 160 500 160 500 254 500 c 0,0,1
113 418 m 128,-1,29
 89 387 89 387 77 289 c 128,-1,30
 65 191 65 191 65 138 c 128,-1,31
 65 85 65 85 71 67 c 1,32,33
 81 67 81 67 103 100.5 c 128,-1,34
 125 134 125 134 126 135 c 0,35,36
 164 182 164 182 221.5 290.5 c 128,-1,37
 279 399 279 399 279 443 c 1,38,39
 258 449 258 449 217 449 c 0,40,28
 137 449 137 449 113 418 c 128,-1,29
140 709 m 1,41,-1
 194 759 l 1,42,43
 227 733 227 733 242 707 c 1,44,-1
 191 652 l 1,45,46
 154 697 154 697 140 709 c 1,41,-1
329 709 m 1,47,-1
 383 759 l 1,48,49
 411 741 411 741 430 707 c 1,50,-1
 385 652 l 1,51,52
 355 690 355 690 329 709 c 1,47,-1
EndSplineSet
EndChar

StartChar: aring
Encoding: 229 229 166
Width: 410
GlyphClass: 2
Flags: W
LayerCount: 2
Fore
SplineSet
254 500 m 0,0,1
 326 500 326 500 351 495 c 1,2,-1
 345 466 l 2,3,4
 336 420 336 420 320 328 c 1,5,6
 295 160 295 160 260 54 c 1,7,-1
 263 52 l 1,8,9
 350 115 350 115 473 286 c 1,10,-1
 483 279 l 1,11,12
 411 174 411 174 338 92.5 c 128,-1,13
 265 11 265 11 216 -10 c 1,14,15
 215 2 215 2 215 37.5 c 128,-1,16
 215 73 215 73 220 110.5 c 128,-1,17
 225 148 225 148 236.5 201 c 128,-1,18
 248 254 248 254 254 288 c 1,19,-1
 251 290 l 1,20,21
 189 185 189 185 137 115.5 c 128,-1,22
 85 46 85 46 16 -15 c 1,23,24
 3 30 3 30 3 116 c 128,-1,25
 3 202 3 202 29.5 298 c 128,-1,26
 56 394 56 394 108 447 c 128,-1,27
 160 500 160 500 254 500 c 0,0,1
113 418 m 128,-1,29
 89 387 89 387 77 289 c 128,-1,30
 65 191 65 191 65 138 c 128,-1,31
 65 85 65 85 71 67 c 1,32,33
 81 67 81 67 103 100.5 c 128,-1,34
 125 134 125 134 126 135 c 0,35,36
 164 182 164 182 221.5 290.5 c 128,-1,37
 279 399 279 399 279 443 c 1,38,39
 258 449 258 449 217 449 c 0,40,28
 137 449 137 449 113 418 c 128,-1,29
335.5 758 m 128,-1,42
 355 742 355 742 355 714 c 128,-1,43
 355 686 355 686 333 659 c 128,-1,44
 311 632 311 632 281 632 c 128,-1,45
 251 632 251 632 232.5 648 c 128,-1,46
 214 664 214 664 214 689.5 c 128,-1,47
 214 715 214 715 232.5 738.5 c 128,-1,48
 251 762 251 762 278 774 c 1,49,41
 316 774 316 774 335.5 758 c 128,-1,42
298 664 m 1,50,51
 333 675 333 675 333 698 c 128,-1,52
 333 721 333 721 315.5 734 c 128,-1,53
 298 747 298 747 273 747 c 1,54,55
 247 733 247 733 241 701 c 1,56,57
 241 689 241 689 259 676.5 c 128,-1,58
 277 664 277 664 298 664 c 1,50,51
EndSplineSet
EndChar

StartChar: ae
Encoding: 230 230 167
Width: 527
GlyphClass: 2
Flags: W
LayerCount: 2
Fore
SplineSet
16 -15 m 1,0,1
 3 30 3 30 3 116 c 128,-1,2
 3 202 3 202 32 304.5 c 128,-1,3
 61 407 61 407 116 453.5 c 128,-1,4
 171 500 171 500 248.5 500 c 128,-1,5
 326 500 326 500 351 495 c 1,6,-1
 345 466 l 2,7,8
 344 460 344 460 340 444 c 128,-1,9
 336 428 336 428 335 422 c 1,10,11
 412 514 412 514 474 514 c 0,12,13
 525 514 525 514 525 474 c 0,14,15
 525 377 525 377 304 230 c 1,16,17
 303 219 303 219 303 202 c 0,18,19
 303 97 303 97 372 40 c 1,20,21
 469 114 469 114 593 287 c 1,22,-1
 603 280 l 1,23,24
 531 175 531 175 458 93.5 c 128,-1,25
 385 12 385 12 336 -9 c 1,26,27
 286 3 286 3 261 58.5 c 128,-1,28
 236 114 236 114 236 178 c 128,-1,29
 236 242 236 242 254 288 c 1,30,-1
 251 290 l 1,31,32
 189 185 189 185 137 115.5 c 128,-1,33
 85 46 85 46 16 -15 c 1,0,1
279 443 m 1,34,35
 258 449 258 449 209.5 449 c 128,-1,36
 161 449 161 449 135 435.5 c 128,-1,37
 109 422 109 422 97 388.5 c 128,-1,38
 85 355 85 355 75 273 c 128,-1,39
 65 191 65 191 65 138 c 128,-1,40
 65 85 65 85 71 67 c 1,41,42
 81 67 81 67 103 100.5 c 128,-1,43
 125 134 125 134 126 135 c 0,44,45
 164 182 164 182 221.5 290.5 c 128,-1,46
 279 399 279 399 279 443 c 1,34,35
440 465 m 0,47,48
 389 465 389 465 356.5 406.5 c 128,-1,49
 324 348 324 348 309 254 c 1,50,51
 371 294 371 294 419 351 c 128,-1,52
 467 408 467 408 467 444 c 0,53,54
 467 465 467 465 440 465 c 0,47,48
EndSplineSet
EndChar

StartChar: ccedilla
Encoding: 231 231 168
Width: 310
GlyphClass: 2
Flags: W
LayerCount: 2
Fore
SplineSet
233 514 m 0,0,1
 282 514 282 514 311 487 c 1,2,-1
 267 435 l 1,3,4
 244 474 244 474 207 474 c 0,5,6
 152 474 152 474 111.5 388 c 128,-1,7
 71 302 71 302 71 190.5 c 128,-1,8
 71 79 71 79 137 43 c 1,9,10
 240 117 240 117 374 311 c 1,11,-1
 384 305 l 1,12,13
 313 198 313 198 238 110.5 c 128,-1,14
 163 23 163 23 109 -5 c 1,15,16
 65 -42 65 -42 57 -50 c 1,17,18
 87 -58 87 -58 117 -83.5 c 128,-1,19
 147 -109 147 -109 147 -130 c 0,20,21
 147 -166 147 -166 109.5 -195 c 128,-1,22
 72 -224 72 -224 21.5 -224 c 128,-1,23
 -29 -224 -29 -224 -50 -184 c 1,24,-1
 -5 -145 l 1,25,26
 16 -184 16 -184 59 -184 c 128,-1,27
 102 -184 102 -184 102 -169 c 0,28,29
 102 -143 102 -143 70 -116.5 c 128,-1,30
 38 -90 38 -90 -8 -74 c 1,31,-1
 75 -4 l 1,32,33
 3 29 3 29 3 184 c 0,34,35
 3 256 3 256 30 321 c 128,-1,36
 57 386 57 386 95.5 426.5 c 128,-1,37
 134 467 134 467 171.5 490.5 c 128,-1,38
 209 514 209 514 233 514 c 0,0,1
EndSplineSet
EndChar

StartChar: egrave
Encoding: 232 232 169
Width: 298
GlyphClass: 2
Flags: W
LayerCount: 2
Fore
SplineSet
209 474 m 0,0,1
 159 474 159 474 126 412 c 128,-1,2
 93 350 93 350 78 254 c 1,3,4
 140 294 140 294 188 351 c 128,-1,5
 236 408 236 408 236 441 c 128,-1,6
 236 474 236 474 209 474 c 0,0,1
137.5 465.5 m 128,-1,8
 193 514 193 514 243.5 514 c 128,-1,9
 294 514 294 514 294 474 c 0,10,11
 294 377 294 377 73 230 c 1,12,13
 72 219 72 219 72 202 c 0,14,15
 72 89 72 89 140 39 c 1,16,17
 239 115 239 115 362 286 c 1,18,-1
 372 279 l 1,19,20
 300 174 300 174 227 92.5 c 128,-1,21
 154 11 154 11 105 -10 c 1,22,23
 55 2 55 2 30 56.5 c 128,-1,24
 5 111 5 111 5 185 c 128,-1,25
 5 259 5 259 43.5 338 c 128,-1,7
 82 417 82 417 137.5 465.5 c 128,-1,8
69 758 m 0,26,27
 146 758 146 758 206 688 c 0,28,29
 232 657 232 657 277 594 c 1,30,-1
 262 576 l 1,31,32
 187 663 187 663 139 692 c 0,33,34
 122 702 122 702 100 710.5 c 128,-1,35
 78 719 78 719 76 719 c 1,36,-1
 61 758 l 1,37,38
 65 758 65 758 69 758 c 0,26,27
EndSplineSet
EndChar

StartChar: eacute
Encoding: 233 233 170
Width: 305
GlyphClass: 2
Flags: W
LayerCount: 2
Fore
SplineSet
209 474 m 0,0,1
 159 474 159 474 126 412 c 128,-1,2
 93 350 93 350 78 254 c 1,3,4
 140 294 140 294 188 351 c 128,-1,5
 236 408 236 408 236 441 c 128,-1,6
 236 474 236 474 209 474 c 0,0,1
137.5 465.5 m 128,-1,8
 193 514 193 514 243.5 514 c 128,-1,9
 294 514 294 514 294 474 c 0,10,11
 294 377 294 377 73 230 c 1,12,13
 72 219 72 219 72 202 c 0,14,15
 72 89 72 89 140 39 c 1,16,17
 239 115 239 115 362 286 c 1,18,-1
 372 279 l 1,19,20
 300 174 300 174 227 92.5 c 128,-1,21
 154 11 154 11 105 -10 c 1,22,23
 55 2 55 2 30 56.5 c 128,-1,24
 5 111 5 111 5 185 c 128,-1,25
 5 259 5 259 43.5 338 c 128,-1,7
 82 417 82 417 137.5 465.5 c 128,-1,8
389 758 m 0,26,27
 393 758 393 758 397 758 c 1,28,-1
 382 719 l 1,29,30
 353 713 353 713 308 684.5 c 128,-1,31
 263 656 263 656 195 577 c 1,32,-1
 181 594 l 1,33,34
 226 657 226 657 252 688 c 0,35,36
 312 758 312 758 389 758 c 0,26,27
EndSplineSet
EndChar

StartChar: ecircumflex
Encoding: 234 234 171
Width: 298
GlyphClass: 2
Flags: W
LayerCount: 2
Fore
SplineSet
208 474 m 0,0,1
 158 474 158 474 125 412 c 128,-1,2
 92 350 92 350 77 254 c 1,3,4
 139 294 139 294 187 351 c 128,-1,5
 235 408 235 408 235 441 c 128,-1,6
 235 474 235 474 208 474 c 0,0,1
136.5 465.5 m 128,-1,8
 192 514 192 514 242.5 514 c 128,-1,9
 293 514 293 514 293 474 c 0,10,11
 293 377 293 377 72 230 c 1,12,13
 71 219 71 219 71 202 c 0,14,15
 71 89 71 89 139 39 c 1,16,17
 238 115 238 115 361 286 c 1,18,-1
 371 279 l 1,19,20
 299 174 299 174 226 92.5 c 128,-1,21
 153 11 153 11 104 -10 c 1,22,23
 54 2 54 2 29 56.5 c 128,-1,24
 4 111 4 111 4 185 c 128,-1,25
 4 259 4 259 42.5 338 c 128,-1,7
 81 417 81 417 136.5 465.5 c 128,-1,8
264 762 m 1,26,27
 287 753 287 753 324.5 726 c 128,-1,28
 362 699 362 699 380 680 c 1,29,-1
 345 647 l 1,30,31
 281 709 281 709 236 723 c 1,32,33
 190 700 190 700 130 649 c 1,34,-1
 120 658 l 1,35,36
 160 702 160 702 192.5 727.5 c 128,-1,37
 225 753 225 753 264 762 c 1,26,27
EndSplineSet
EndChar

StartChar: edieresis
Encoding: 235 235 172
Width: 300
GlyphClass: 2
Flags: W
LayerCount: 2
Fore
SplineSet
209 474 m 0,0,1
 159 474 159 474 126 412 c 128,-1,2
 93 350 93 350 78 254 c 1,3,4
 140 294 140 294 188 351 c 128,-1,5
 236 408 236 408 236 441 c 128,-1,6
 236 474 236 474 209 474 c 0,0,1
137.5 465.5 m 128,-1,8
 193 514 193 514 243.5 514 c 128,-1,9
 294 514 294 514 294 474 c 0,10,11
 294 377 294 377 73 230 c 1,12,13
 72 219 72 219 72 202 c 0,14,15
 72 89 72 89 140 39 c 1,16,17
 239 115 239 115 362 286 c 1,18,-1
 372 279 l 1,19,20
 300 174 300 174 227 92.5 c 128,-1,21
 154 11 154 11 105 -10 c 1,22,23
 55 2 55 2 30 56.5 c 128,-1,24
 5 111 5 111 5 185 c 128,-1,25
 5 259 5 259 43.5 338 c 128,-1,7
 82 417 82 417 137.5 465.5 c 128,-1,8
95 682 m 1,26,-1
 149 732 l 1,27,28
 182 706 182 706 197 680 c 1,29,-1
 146 625 l 1,30,31
 109 670 109 670 95 682 c 1,26,-1
284 682 m 1,32,-1
 338 732 l 1,33,34
 366 714 366 714 385 680 c 1,35,-1
 340 625 l 1,36,37
 310 663 310 663 284 682 c 1,32,-1
EndSplineSet
EndChar

StartChar: igrave
Encoding: 236 236 173
Width: 222
GlyphClass: 2
Flags: W
LayerCount: 2
Fore
SplineSet
27 -10 m 1,0,1
 25 14 25 14 25 47 c 128,-1,2
 25 80 25 80 33 137.5 c 128,-1,3
 41 195 41 195 59 292.5 c 128,-1,4
 77 390 77 390 87 453 c 1,5,-1
 17 402 l 1,6,-1
 19 413 l 1,7,8
 26 423 26 423 38.5 438.5 c 128,-1,9
 51 454 51 454 86 482 c 128,-1,10
 121 510 121 510 152 515 c 1,11,12
 146 476 146 476 131 364 c 0,13,14
 101 136 101 136 72 55 c 1,15,-1
 74 52 l 1,16,17
 160 113 160 113 284 286 c 1,18,-1
 295 279 l 1,19,20
 223 174 223 174 150 92.5 c 128,-1,21
 77 11 77 11 27 -10 c 1,0,1
-50 763 m 0,22,23
 27 763 27 763 86 693 c 0,24,25
 113 662 113 662 158 599 c 1,26,-1
 143 581 l 1,27,28
 68 668 68 668 20 697 c 0,29,30
 3 707 3 707 -19 715.5 c 128,-1,31
 -41 724 -41 724 -43 724 c 1,32,-1
 -58 763 l 1,33,34
 -54 763 -54 763 -50 763 c 0,22,23
EndSplineSet
EndChar

StartChar: iacute
Encoding: 237 237 174
Width: 219
GlyphClass: 2
Flags: W
LayerCount: 2
Fore
SplineSet
22 -10 m 1,0,1
 20 14 20 14 20 47 c 128,-1,2
 20 80 20 80 28 137.5 c 128,-1,3
 36 195 36 195 54 292.5 c 128,-1,4
 72 390 72 390 82 453 c 1,5,-1
 12 402 l 1,6,-1
 14 413 l 1,7,8
 21 423 21 423 33.5 438.5 c 128,-1,9
 46 454 46 454 81 482 c 128,-1,10
 116 510 116 510 147 515 c 1,11,12
 141 476 141 476 126 364 c 0,13,14
 96 136 96 136 67 55 c 1,15,-1
 69 52 l 1,16,17
 155 113 155 113 279 286 c 1,18,-1
 290 279 l 1,19,20
 218 174 218 174 145 92.5 c 128,-1,21
 72 11 72 11 22 -10 c 1,0,1
286 760 m 0,22,23
 290 760 290 760 294 760 c 1,24,-1
 279 721 l 1,25,26
 250 715 250 715 205 686.5 c 128,-1,27
 160 658 160 658 92 579 c 1,28,-1
 78 596 l 1,29,30
 123 659 123 659 150 690 c 0,31,32
 209 760 209 760 286 760 c 0,22,23
EndSplineSet
EndChar

StartChar: icircumflex
Encoding: 238 238 175
Width: 221
GlyphClass: 2
Flags: W
LayerCount: 2
Fore
SplineSet
26 -10 m 1,0,1
 24 14 24 14 24 47 c 128,-1,2
 24 80 24 80 32 137.5 c 128,-1,3
 40 195 40 195 58 292.5 c 128,-1,4
 76 390 76 390 86 453 c 1,5,-1
 16 402 l 1,6,-1
 18 413 l 1,7,8
 25 423 25 423 37.5 438.5 c 128,-1,9
 50 454 50 454 85 482 c 128,-1,10
 120 510 120 510 151 515 c 1,11,12
 145 476 145 476 130 364 c 0,13,14
 100 136 100 136 71 55 c 1,15,-1
 73 52 l 1,16,17
 159 113 159 113 283 286 c 1,18,-1
 294 279 l 1,19,20
 222 174 222 174 149 92.5 c 128,-1,21
 76 11 76 11 26 -10 c 1,0,1
153 766 m 1,22,23
 176 757 176 757 213.5 730 c 128,-1,24
 251 703 251 703 269 684 c 1,25,-1
 234 651 l 1,26,27
 170 713 170 713 125 727 c 1,28,29
 79 704 79 704 19 653 c 1,30,-1
 9 662 l 1,31,32
 49 706 49 706 81.5 731.5 c 128,-1,33
 114 757 114 757 153 766 c 1,22,23
EndSplineSet
EndChar

StartChar: idieresis
Encoding: 239 239 176
Width: 224
GlyphClass: 2
Flags: W
LayerCount: 2
Fore
SplineSet
30 -10 m 1,0,1
 28 14 28 14 28 47 c 128,-1,2
 28 80 28 80 36 137.5 c 128,-1,3
 44 195 44 195 62 292.5 c 128,-1,4
 80 390 80 390 90 453 c 1,5,-1
 20 402 l 1,6,-1
 22 413 l 1,7,8
 29 423 29 423 41.5 438.5 c 128,-1,9
 54 454 54 454 89 482 c 128,-1,10
 124 510 124 510 155 515 c 1,11,12
 149 476 149 476 134 364 c 0,13,14
 104 136 104 136 75 55 c 1,15,-1
 77 52 l 1,16,17
 163 113 163 113 287 286 c 1,18,-1
 298 279 l 1,19,20
 226 174 226 174 153 92.5 c 128,-1,21
 80 11 80 11 30 -10 c 1,0,1
-15 708 m 1,22,-1
 39 758 l 1,23,24
 72 732 72 732 87 706 c 1,25,-1
 36 651 l 1,26,27
 -1 696 -1 696 -15 708 c 1,22,-1
174 708 m 1,28,-1
 228 758 l 1,29,30
 256 740 256 740 275 706 c 1,31,-1
 230 651 l 1,32,33
 200 689 200 689 174 708 c 1,28,-1
EndSplineSet
EndChar

StartChar: eth
Encoding: 240 240 177
Width: 370
GlyphClass: 2
Flags: W
LayerCount: 2
Fore
SplineSet
331 304 m 0,0,1
 331 197 331 197 277.5 114.5 c 128,-1,2
 224 32 224 32 107 -9 c 1,3,4
 65 9 65 9 38.5 66.5 c 128,-1,5
 12 124 12 124 12 178 c 0,6,7
 12 270 12 270 56 351 c 128,-1,8
 100 432 100 432 167 479 c 1,9,-1
 183 461 l 1,10,11
 130 415 130 415 101 348 c 128,-1,12
 72 281 72 281 72 210 c 0,13,14
 72 102 72 102 134 31 c 1,15,16
 277 93 277 93 277 294 c 128,-1,17
 277 495 277 495 180 640 c 1,18,-1
 61 575 l 1,19,-1
 46 611 l 1,20,-1
 155 675 l 1,21,22
 74 777 74 777 -44 812 c 1,23,-1
 4 850 l 1,24,25
 123 824 123 824 209 707 c 1,26,-1
 313 768 l 1,27,-1
 329 722 l 1,28,-1
 234 670 l 1,29,30
 331 510 331 510 331 304 c 0,0,1
EndSplineSet
EndChar

StartChar: ntilde
Encoding: 241 241 178
Width: 452
GlyphClass: 2
Flags: W
LayerCount: 2
Fore
SplineSet
359 514 m 1,0,1
 376 500 376 500 376 435 c 128,-1,2
 376 370 376 370 341 216.5 c 128,-1,3
 306 63 306 63 304 54 c 1,4,-1
 307 52 l 1,5,6
 396 116 396 116 517 286 c 1,7,-1
 527 279 l 1,8,9
 458 177 458 177 384.5 94 c 128,-1,10
 311 11 311 11 260 -10 c 1,11,12
 258 14 258 14 258 28 c 0,13,14
 258 92 258 92 280.5 221 c 128,-1,15
 303 350 303 350 303 418 c 1,16,-1
 299 420 l 1,17,18
 239 366 239 366 169 248.5 c 128,-1,19
 99 131 99 131 54 -10 c 1,20,21
 31 16 31 16 31 54 c 0,22,23
 31 86 31 86 73 358 c 2,24,-1
 87 448 l 1,25,-1
 84 450 l 1,26,-1
 18 402 l 1,27,-1
 20 413 l 1,28,29
 27 423 27 423 39.5 438.5 c 128,-1,30
 52 454 52 454 87 482 c 128,-1,31
 122 510 122 510 153 515 c 1,32,33
 146 473 146 473 132 359.5 c 128,-1,34
 118 246 118 246 108 192 c 1,35,-1
 111 190 l 1,36,37
 170 305 170 305 236.5 396.5 c 128,-1,38
 303 488 303 488 359 514 c 1,0,1
262.5 670.5 m 128,-1,40
 224 689 224 689 202 689 c 128,-1,41
 180 689 180 689 149.5 675.5 c 128,-1,42
 119 662 119 662 102 647 c 1,43,-1
 97 662 l 1,44,45
 146 712 146 712 212 738 c 1,46,47
 234 738 234 738 272.5 720.5 c 128,-1,48
 311 703 311 703 333.5 703 c 128,-1,49
 356 703 356 703 387.5 713.5 c 128,-1,50
 419 724 419 724 434 735 c 1,51,-1
 442 724 l 1,52,53
 386 667 386 667 323 652 c 1,54,39
 301 652 301 652 262.5 670.5 c 128,-1,40
EndSplineSet
EndChar

StartChar: ograve
Encoding: 242 242 179
Width: 367
GlyphClass: 2
Flags: W
LayerCount: 2
Fore
SplineSet
328 325 m 0,0,1
 328 222 328 222 256 120 c 128,-1,2
 184 18 184 18 90 -9 c 1,3,4
 52 8 52 8 30 65 c 128,-1,5
 8 122 8 122 8 178 c 0,6,7
 8 286 8 286 79.5 385.5 c 128,-1,8
 151 485 151 485 246 512 c 1,9,10
 282 495 282 495 305 436 c 128,-1,11
 328 377 328 377 328 325 c 0,0,1
74 227 m 0,12,13
 74 188 74 188 76 164 c 0,14,15
 81 96 81 96 117 31 c 1,16,17
 262 93 262 93 262 276 c 0,18,19
 262 315 262 315 260 340 c 0,20,21
 255 407 255 407 219 472 c 1,22,23
 142 437 142 437 108 376.5 c 128,-1,24
 74 316 74 316 74 227 c 0,12,13
78 758 m 0,25,26
 155 758 155 758 214 688 c 0,27,28
 241 657 241 657 286 594 c 1,29,-1
 271 576 l 1,30,31
 196 663 196 663 148 692 c 0,32,33
 131 702 131 702 109 710.5 c 128,-1,34
 87 719 87 719 85 719 c 1,35,-1
 70 758 l 1,36,37
 74 758 74 758 78 758 c 0,25,26
EndSplineSet
EndChar

StartChar: oacute
Encoding: 243 243 180
Width: 365
GlyphClass: 2
Flags: W
LayerCount: 2
Fore
SplineSet
325 325 m 0,0,1
 325 222 325 222 253 120 c 128,-1,2
 181 18 181 18 87 -9 c 1,3,4
 49 8 49 8 27 65 c 128,-1,5
 5 122 5 122 5 178 c 0,6,7
 5 286 5 286 76.5 385.5 c 128,-1,8
 148 485 148 485 243 512 c 1,9,10
 279 495 279 495 302 436 c 128,-1,11
 325 377 325 377 325 325 c 0,0,1
71 227 m 0,12,13
 71 188 71 188 73 164 c 0,14,15
 78 96 78 96 114 31 c 1,16,17
 259 93 259 93 259 276 c 0,18,19
 259 315 259 315 257 340 c 0,20,21
 252 407 252 407 216 472 c 1,22,23
 139 437 139 437 105 376.5 c 128,-1,24
 71 316 71 316 71 227 c 0,12,13
399 760 m 0,25,26
 403 760 403 760 407 760 c 1,27,-1
 392 721 l 1,28,29
 363 715 363 715 318 686.5 c 128,-1,30
 273 658 273 658 205 579 c 1,31,-1
 191 596 l 1,32,33
 236 659 236 659 262 690 c 0,34,35
 322 760 322 760 399 760 c 0,25,26
EndSplineSet
EndChar

StartChar: ocircumflex
Encoding: 244 244 181
Width: 359
GlyphClass: 2
Flags: W
LayerCount: 2
Fore
SplineSet
325 325 m 0,0,1
 325 222 325 222 253 120 c 128,-1,2
 181 18 181 18 87 -9 c 1,3,4
 49 8 49 8 27 65 c 128,-1,5
 5 122 5 122 5 178 c 0,6,7
 5 286 5 286 76.5 385.5 c 128,-1,8
 148 485 148 485 243 512 c 1,9,10
 279 495 279 495 302 436 c 128,-1,11
 325 377 325 377 325 325 c 0,0,1
71 227 m 0,12,13
 71 188 71 188 73 164 c 0,14,15
 78 96 78 96 114 31 c 1,16,17
 259 93 259 93 259 276 c 0,18,19
 259 315 259 315 257 340 c 0,20,21
 252 407 252 407 216 472 c 1,22,23
 139 437 139 437 105 376.5 c 128,-1,24
 71 316 71 316 71 227 c 0,12,13
273 765 m 1,25,26
 296 756 296 756 333.5 729 c 128,-1,27
 371 702 371 702 389 683 c 1,28,-1
 354 650 l 1,29,30
 290 712 290 712 245 726 c 1,31,32
 199 703 199 703 139 652 c 1,33,-1
 129 661 l 1,34,35
 169 705 169 705 201.5 730.5 c 128,-1,36
 234 756 234 756 273 765 c 1,25,26
EndSplineSet
EndChar

StartChar: otilde
Encoding: 245 245 182
Width: 364
GlyphClass: 2
Flags: W
LayerCount: 2
Fore
SplineSet
325 325 m 0,0,1
 325 222 325 222 253 120 c 128,-1,2
 181 18 181 18 87 -9 c 1,3,4
 49 8 49 8 27 65 c 128,-1,5
 5 122 5 122 5 178 c 0,6,7
 5 286 5 286 76.5 385.5 c 128,-1,8
 148 485 148 485 243 512 c 1,9,10
 279 495 279 495 302 436 c 128,-1,11
 325 377 325 377 325 325 c 0,0,1
71 227 m 0,12,13
 71 188 71 188 73 164 c 0,14,15
 78 96 78 96 114 31 c 1,16,17
 259 93 259 93 259 276 c 0,18,19
 259 315 259 315 257 340 c 0,20,21
 252 407 252 407 216 472 c 1,22,23
 139 437 139 437 105 376.5 c 128,-1,24
 71 316 71 316 71 227 c 0,12,13
229.5 654.5 m 128,-1,26
 191 673 191 673 169 673 c 128,-1,27
 147 673 147 673 116.5 659.5 c 128,-1,28
 86 646 86 646 69 631 c 1,29,-1
 64 646 l 1,30,31
 113 696 113 696 179 722 c 1,32,33
 201 722 201 722 239.5 704.5 c 128,-1,34
 278 687 278 687 300.5 687 c 128,-1,35
 323 687 323 687 354.5 697.5 c 128,-1,36
 386 708 386 708 401 719 c 1,37,-1
 409 708 l 1,38,39
 353 651 353 651 290 636 c 1,40,25
 268 636 268 636 229.5 654.5 c 128,-1,26
EndSplineSet
EndChar

StartChar: odieresis
Encoding: 246 246 183
Width: 367
GlyphClass: 2
Flags: W
LayerCount: 2
Fore
SplineSet
327 325 m 0,0,1
 327 222 327 222 255 120 c 128,-1,2
 183 18 183 18 89 -9 c 1,3,4
 51 8 51 8 29 65 c 128,-1,5
 7 122 7 122 7 178 c 0,6,7
 7 286 7 286 78.5 385.5 c 128,-1,8
 150 485 150 485 245 512 c 1,9,10
 281 495 281 495 304 436 c 128,-1,11
 327 377 327 377 327 325 c 0,0,1
73 227 m 0,12,13
 73 188 73 188 75 164 c 0,14,15
 80 96 80 96 116 31 c 1,16,17
 261 93 261 93 261 276 c 0,18,19
 261 315 261 315 259 340 c 0,20,21
 254 407 254 407 218 472 c 1,22,23
 141 437 141 437 107 376.5 c 128,-1,24
 73 316 73 316 73 227 c 0,12,13
107 682 m 1,25,-1
 161 732 l 1,26,27
 194 706 194 706 209 680 c 1,28,-1
 158 625 l 1,29,30
 121 670 121 670 107 682 c 1,25,-1
296 682 m 1,31,-1
 350 732 l 1,32,33
 378 714 378 714 397 680 c 1,34,-1
 352 625 l 1,35,36
 322 663 322 663 296 682 c 1,31,-1
EndSplineSet
EndChar

StartChar: divide
Encoding: 247 247 184
Width: 539
GlyphClass: 2
Flags: W
LayerCount: 2
Fore
SplineSet
208 489 m 1,0,-1
 280 558 l 1,1,2
 309 540 309 540 342 477 c 1,3,-1
 277 414 l 1,4,5
 262 424 262 424 241 450.5 c 128,-1,6
 220 477 220 477 208 489 c 1,0,-1
208 134 m 1,7,-1
 280 202 l 1,8,9
 296 192 296 192 311.5 161.5 c 128,-1,10
 327 131 327 131 342 122 c 1,11,-1
 277 58 l 1,12,13
 264 67 264 67 244 95.5 c 128,-1,14
 224 124 224 124 208 134 c 1,7,-1
343 286 m 1,15,-1
 51 291 l 2,16,17
 38 291 38 291 29 291 c 1,18,-1
 83 345 l 1,19,20
 108 346 108 346 148 346 c 2,21,-1
 410 342 l 2,22,23
 474 342 474 342 508 345 c 1,24,-1
 454 291 l 1,25,26
 421 286 421 286 343 286 c 1,15,-1
EndSplineSet
EndChar

StartChar: oslash
Encoding: 248 248 185
Width: 365
GlyphClass: 2
Flags: W
LayerCount: 2
Fore
SplineSet
325 325 m 0,0,1
 325 222 325 222 253 120 c 128,-1,2
 181 18 181 18 87 -9 c 1,3,4
 64 1 64 1 46 27 c 1,5,-1
 9 -36 l 1,6,-1
 -12 -13 l 1,7,-1
 30 57 l 1,8,9
 5 113 5 113 5 178 c 0,10,11
 5 286 5 286 76.5 385.5 c 128,-1,12
 148 485 148 485 243 512 c 1,13,14
 264 502 264 502 280 477 c 1,15,-1
 327 555 l 1,16,-1
 348 540 l 1,17,-1
 295 451 l 1,18,19
 325 388 325 388 325 325 c 0,0,1
259 276 m 0,20,21
 259 336 259 336 251 376 c 1,22,-1
 86 95 l 1,23,24
 99 57 99 57 114 31 c 1,25,26
 259 93 259 93 259 276 c 0,20,21
105 376.5 m 128,-1,28
 71 316 71 316 71 241.5 c 128,-1,29
 71 167 71 167 76 135 c 1,30,-1
 242 413 l 1,31,32
 235 437 235 437 216 472 c 1,33,27
 139 437 139 437 105 376.5 c 128,-1,28
EndSplineSet
EndChar

StartChar: ugrave
Encoding: 249 249 186
Width: 460
GlyphClass: 2
Flags: W
LayerCount: 2
Fore
SplineSet
251 28 m 0,0,1
 251 112 251 112 294 313 c 1,2,-1
 291 315 l 1,3,4
 234 200 234 200 170.5 108.5 c 128,-1,5
 107 17 107 17 53 -9 c 1,6,7
 42 28 42 28 42 83 c 128,-1,8
 42 138 42 138 57 245 c 2,9,-1
 84 449 l 1,10,-1
 19 402 l 1,11,-1
 21 413 l 1,12,13
 28 423 28 423 40.5 438.5 c 128,-1,14
 53 454 53 454 88 482 c 128,-1,15
 123 510 123 510 154 515 c 1,16,17
 100 239 100 239 100 107 c 0,18,19
 100 91 100 91 105 66 c 1,20,21
 154 114 154 114 212 206.5 c 128,-1,22
 270 299 270 299 314 414 c 0,23,24
 346 500 346 500 383 514 c 1,25,-1
 312 108 l 2,26,27
 307 81 307 81 297 54 c 1,28,-1
 300 52 l 1,29,30
 396 121 396 121 528 311 c 1,31,-1
 538 305 l 1,32,33
 463 193 463 193 384.5 102.5 c 128,-1,34
 306 12 306 12 253 -10 c 1,35,36
 251 14 251 14 251 28 c 0,0,1
83 758 m 0,37,38
 160 758 160 758 220 688 c 0,39,40
 246 657 246 657 291 594 c 1,41,-1
 276 576 l 1,42,43
 201 663 201 663 153 692 c 0,44,45
 136 702 136 702 114 710.5 c 128,-1,46
 92 719 92 719 90 719 c 1,47,-1
 75 758 l 1,48,49
 79 758 79 758 83 758 c 0,37,38
EndSplineSet
EndChar

StartChar: uacute
Encoding: 250 250 187
Width: 461
GlyphClass: 2
Flags: W
LayerCount: 2
Fore
SplineSet
251 28 m 0,0,1
 251 112 251 112 294 313 c 1,2,-1
 291 315 l 1,3,4
 234 200 234 200 170.5 108.5 c 128,-1,5
 107 17 107 17 53 -9 c 1,6,7
 42 28 42 28 42 83 c 128,-1,8
 42 138 42 138 57 245 c 2,9,-1
 84 449 l 1,10,-1
 19 402 l 1,11,-1
 21 413 l 1,12,13
 28 423 28 423 40.5 438.5 c 128,-1,14
 53 454 53 454 88 482 c 128,-1,15
 123 510 123 510 154 515 c 1,16,17
 100 239 100 239 100 107 c 0,18,19
 100 91 100 91 105 66 c 1,20,21
 154 114 154 114 212 206.5 c 128,-1,22
 270 299 270 299 314 414 c 0,23,24
 346 500 346 500 383 514 c 1,25,-1
 312 108 l 2,26,27
 307 81 307 81 297 54 c 1,28,-1
 300 52 l 1,29,30
 396 121 396 121 528 311 c 1,31,-1
 538 305 l 1,32,33
 463 193 463 193 384.5 102.5 c 128,-1,34
 306 12 306 12 253 -10 c 1,35,36
 251 14 251 14 251 28 c 0,0,1
437 758 m 0,37,38
 441 758 441 758 445 758 c 1,39,-1
 430 719 l 1,40,41
 401 713 401 713 356 684.5 c 128,-1,42
 311 656 311 656 243 577 c 1,43,-1
 229 594 l 1,44,45
 274 657 274 657 300 688 c 0,46,47
 360 758 360 758 437 758 c 0,37,38
EndSplineSet
EndChar

StartChar: ucircumflex
Encoding: 251 251 188
Width: 461
GlyphClass: 2
Flags: W
LayerCount: 2
Fore
SplineSet
251 28 m 0,0,1
 251 112 251 112 294 313 c 1,2,-1
 291 315 l 1,3,4
 234 200 234 200 170.5 108.5 c 128,-1,5
 107 17 107 17 53 -9 c 1,6,7
 42 28 42 28 42 83 c 128,-1,8
 42 138 42 138 57 245 c 2,9,-1
 84 449 l 1,10,-1
 19 402 l 1,11,-1
 21 413 l 1,12,13
 28 423 28 423 40.5 438.5 c 128,-1,14
 53 454 53 454 88 482 c 128,-1,15
 123 510 123 510 154 515 c 1,16,17
 100 239 100 239 100 107 c 0,18,19
 100 91 100 91 105 66 c 1,20,21
 154 114 154 114 212 206.5 c 128,-1,22
 270 299 270 299 314 414 c 0,23,24
 346 500 346 500 383 514 c 1,25,-1
 312 108 l 2,26,27
 307 81 307 81 297 54 c 1,28,-1
 300 52 l 1,29,30
 396 121 396 121 528 311 c 1,31,-1
 538 305 l 1,32,33
 463 193 463 193 384.5 102.5 c 128,-1,34
 306 12 306 12 253 -10 c 1,35,36
 251 14 251 14 251 28 c 0,0,1
298 765 m 1,37,38
 321 756 321 756 358.5 729 c 128,-1,39
 396 702 396 702 414 683 c 1,40,-1
 379 650 l 1,41,42
 315 712 315 712 270 726 c 1,43,44
 224 703 224 703 164 652 c 1,45,-1
 154 661 l 1,46,47
 194 705 194 705 226.5 730.5 c 128,-1,48
 259 756 259 756 298 765 c 1,37,38
EndSplineSet
EndChar

StartChar: udieresis
Encoding: 252 252 189
Width: 461
GlyphClass: 2
Flags: W
LayerCount: 2
Fore
SplineSet
251 28 m 0,0,1
 251 112 251 112 294 313 c 1,2,-1
 291 315 l 1,3,4
 234 200 234 200 170.5 108.5 c 128,-1,5
 107 17 107 17 53 -9 c 1,6,7
 42 28 42 28 42 83 c 128,-1,8
 42 138 42 138 57 245 c 2,9,-1
 84 449 l 1,10,-1
 19 402 l 1,11,-1
 21 413 l 1,12,13
 28 423 28 423 40.5 438.5 c 128,-1,14
 53 454 53 454 88 482 c 128,-1,15
 123 510 123 510 154 515 c 1,16,17
 100 239 100 239 100 107 c 0,18,19
 100 91 100 91 105 66 c 1,20,21
 154 114 154 114 212 206.5 c 128,-1,22
 270 299 270 299 314 414 c 0,23,24
 346 500 346 500 383 514 c 1,25,-1
 312 108 l 2,26,27
 307 81 307 81 297 54 c 1,28,-1
 300 52 l 1,29,30
 396 121 396 121 528 311 c 1,31,-1
 538 305 l 1,32,33
 463 193 463 193 384.5 102.5 c 128,-1,34
 306 12 306 12 253 -10 c 1,35,36
 251 14 251 14 251 28 c 0,0,1
142 728 m 1,37,-1
 196 778 l 1,38,39
 229 752 229 752 244 726 c 1,40,-1
 193 671 l 1,41,42
 156 716 156 716 142 728 c 1,37,-1
331 728 m 1,43,-1
 385 778 l 1,44,45
 413 760 413 760 432 726 c 1,46,-1
 387 671 l 1,47,48
 357 709 357 709 331 728 c 1,43,-1
EndSplineSet
EndChar

StartChar: yacute
Encoding: 253 253 190
Width: 421
GlyphClass: 2
Flags: W
LayerCount: 2
Fore
SplineSet
101 99 m 0,0,1
 101 87 101 87 101 76 c 1,2,-1
 105 66 l 1,3,4
 154 113 154 113 211.5 206 c 128,-1,5
 269 299 269 299 313 414 c 0,6,7
 314 416 314 416 321 433 c 128,-1,8
 328 450 328 450 330 454.5 c 128,-1,9
 332 459 332 459 339 472 c 128,-1,10
 346 485 346 485 352 491 c 0,11,12
 368 509 368 509 383 514 c 1,13,14
 381 499 381 499 376.5 478.5 c 128,-1,15
 372 458 372 458 366.5 429 c 128,-1,16
 361 400 361 400 352.5 344.5 c 128,-1,17
 344 289 344 289 333.5 203 c 128,-1,18
 323 117 323 117 317 75 c 0,19,20
 298 -64 298 -64 234.5 -139.5 c 128,-1,21
 171 -215 171 -215 62 -215 c 0,22,23
 21 -215 21 -215 -15 -206 c 1,24,-1
 24 -145 l 1,25,26
 67 -158 67 -158 105 -158 c 0,27,28
 176 -158 176 -158 206 -129.5 c 128,-1,29
 236 -101 236 -101 248 -8 c 0,30,31
 267 148 267 148 294 313 c 1,32,-1
 291 315 l 1,33,34
 234 200 234 200 170.5 108.5 c 128,-1,35
 107 17 107 17 53 -9 c 1,36,37
 43 25 43 25 43 77 c 128,-1,38
 43 129 43 129 46 158.5 c 128,-1,39
 49 188 49 188 59 261 c 2,40,-1
 84 449 l 1,41,-1
 19 402 l 1,42,-1
 21 413 l 1,43,44
 28 423 28 423 40.5 438.5 c 128,-1,45
 53 454 53 454 88 482 c 128,-1,46
 123 510 123 510 154 515 c 1,47,48
 101 240 101 240 101 99 c 0,0,1
445 758 m 0,49,50
 449 758 449 758 453 758 c 1,51,-1
 438 719 l 1,52,53
 409 713 409 713 364 684.5 c 128,-1,54
 319 656 319 656 251 577 c 1,55,-1
 237 594 l 1,56,57
 282 657 282 657 308 688 c 0,58,59
 368 758 368 758 445 758 c 0,49,50
EndSplineSet
EndChar

StartChar: thorn
Encoding: 254 254 191
Width: 365
GlyphClass: 2
Flags: W
LayerCount: 2
Fore
SplineSet
92 -144 m 1,0,-1
 -121 -260 l 1,1,-1
 -130 -249 l 1,2,3
 -59 -210 -59 -210 -41 -176.5 c 128,-1,4
 -23 -143 -23 -143 -8.5 -48 c 128,-1,5
 6 47 6 47 27 207 c 128,-1,6
 48 367 48 367 61 450 c 2,7,-1
 85 606 l 2,8,9
 98 692 98 692 169 771.5 c 128,-1,10
 240 851 240 851 318 851 c 0,11,12
 347 851 347 851 367 846 c 1,13,-1
 326 792 l 1,14,15
 298 798 298 798 259 798 c 0,16,17
 207 798 207 798 175 719 c 0,18,19
 159 678 159 678 152.5 644 c 128,-1,20
 146 610 146 610 143.5 596 c 128,-1,21
 141 582 141 582 137 553 c 128,-1,22
 133 524 133 524 128.5 496.5 c 128,-1,23
 124 469 124 469 113 403.5 c 128,-1,24
 102 338 102 338 95 294 c 1,25,-1
 98 293 l 1,26,27
 183 449 183 449 295 518 c 1,28,29
 313 489 313 489 319.5 455 c 128,-1,30
 326 421 326 421 326 355.5 c 128,-1,31
 326 290 326 290 300 207 c 128,-1,32
 274 124 274 124 227.5 62.5 c 128,-1,33
 181 1 181 1 131 1 c 0,34,35
 96 1 96 1 67 29 c 1,36,37
 55 -13 55 -13 44 -62.5 c 128,-1,38
 33 -112 33 -112 26 -133.5 c 128,-1,39
 19 -155 19 -155 6 -172 c 1,40,-1
 9 -177 l 1,41,42
 11 -176 11 -176 86 -129 c 1,43,-1
 92 -144 l 1,0,-1
133 54 m 0,44,45
 202 54 202 54 228 113 c 128,-1,46
 254 172 254 172 254 332 c 0,47,48
 254 406 254 406 245 429 c 1,49,50
 213 416 213 416 159.5 348 c 128,-1,51
 106 280 106 280 89.5 206.5 c 128,-1,52
 73 133 73 133 70 70 c 1,53,54
 78 64 78 64 100 59 c 128,-1,55
 122 54 122 54 133 54 c 0,44,45
EndSplineSet
EndChar

StartChar: ydieresis
Encoding: 255 255 192
Width: 420
GlyphClass: 2
Flags: W
LayerCount: 2
Fore
SplineSet
101 99 m 0,0,1
 101 87 101 87 101 76 c 1,2,-1
 105 66 l 1,3,4
 154 113 154 113 211.5 206 c 128,-1,5
 269 299 269 299 313 414 c 0,6,7
 314 416 314 416 321 433 c 128,-1,8
 328 450 328 450 330 454.5 c 128,-1,9
 332 459 332 459 339 472 c 128,-1,10
 346 485 346 485 352 491 c 0,11,12
 368 509 368 509 383 514 c 1,13,14
 381 499 381 499 376.5 478.5 c 128,-1,15
 372 458 372 458 366.5 429 c 128,-1,16
 361 400 361 400 352.5 344.5 c 128,-1,17
 344 289 344 289 333.5 203 c 128,-1,18
 323 117 323 117 317 75 c 0,19,20
 298 -64 298 -64 234.5 -139.5 c 128,-1,21
 171 -215 171 -215 62 -215 c 0,22,23
 21 -215 21 -215 -15 -206 c 1,24,-1
 24 -145 l 1,25,26
 67 -158 67 -158 105 -158 c 0,27,28
 176 -158 176 -158 206 -129.5 c 128,-1,29
 236 -101 236 -101 248 -8 c 0,30,31
 267 148 267 148 294 313 c 1,32,-1
 291 315 l 1,33,34
 234 200 234 200 170.5 108.5 c 128,-1,35
 107 17 107 17 53 -9 c 1,36,37
 43 25 43 25 43 77 c 128,-1,38
 43 129 43 129 46 158.5 c 128,-1,39
 49 188 49 188 59 261 c 2,40,-1
 84 449 l 1,41,-1
 19 402 l 1,42,-1
 21 413 l 1,43,44
 28 423 28 423 40.5 438.5 c 128,-1,45
 53 454 53 454 88 482 c 128,-1,46
 123 510 123 510 154 515 c 1,47,48
 101 240 101 240 101 99 c 0,0,1
135 690 m 1,49,-1
 189 740 l 1,50,51
 222 714 222 714 237 688 c 1,52,-1
 186 633 l 1,53,54
 149 678 149 678 135 690 c 1,49,-1
324 690 m 1,55,-1
 378 740 l 1,56,57
 406 722 406 722 425 688 c 1,58,-1
 380 633 l 1,59,60
 350 671 350 671 324 690 c 1,55,-1
EndSplineSet
EndChar

StartChar: hbar
Encoding: 295 295 193
Width: 455
GlyphClass: 2
Flags: W
LayerCount: 2
Fore
SplineSet
339 851 m 0,0,1
 368 851 368 851 388 846 c 1,2,-1
 347 792 l 1,3,4
 319 798 319 798 284 798 c 0,5,6
 204 798 204 798 173 666 c 1,7,8
 224 670 224 670 251.5 670 c 128,-1,9
 279 670 279 670 357 667 c 1,10,-1
 308 622 l 1,11,12
 288 623 288 623 249 623 c 128,-1,13
 210 623 210 623 165 620 c 1,14,15
 154 547 154 547 154 530 c 1,16,-1
 109 188 l 1,17,18
 266 470 266 470 359 514 c 1,19,20
 376 501 376 501 376 430 c 128,-1,21
 376 359 376 359 342 219 c 128,-1,22
 308 79 308 79 304 54 c 1,23,-1
 306 52 l 1,24,25
 393 115 393 115 516 286 c 1,26,-1
 526 279 l 1,27,28
 454 174 454 174 381 92.5 c 128,-1,29
 308 11 308 11 259 -10 c 1,30,31
 257 14 257 14 257 28 c 0,32,33
 257 91 257 91 280 221.5 c 128,-1,34
 303 352 303 352 303 423 c 1,35,36
 240 367 240 367 169.5 249.5 c 128,-1,37
 99 132 99 132 54 -10 c 1,38,39
 31 16 31 16 31 54 c 0,40,41
 31 61 31 61 33 73 c 2,42,-1
 106 606 l 2,43,44
 106 608 106 608 106.5 610 c 128,-1,45
 107 612 107 612 107 614 c 1,46,47
 74 610 74 610 13 600 c 1,48,-1
 59 652 l 1,49,50
 110 659 110 659 120 660 c 1,51,52
 148 736 148 736 210 793.5 c 128,-1,53
 272 851 272 851 339 851 c 0,0,1
EndSplineSet
EndChar

StartChar: Itilde
Encoding: 296 296 194
Width: 468
GlyphClass: 2
Flags: W
LayerCount: 2
Fore
SplineSet
317 -1 m 1,0,-1
 108 0 l 1,1,-1
 104 8 l 1,2,3
 191 26 191 26 219 177 c 0,4,5
 243 309 243 309 265 448.5 c 128,-1,6
 287 588 287 588 297.5 631 c 128,-1,7
 308 674 308 674 320 694 c 1,8,-1
 253 694 l 2,9,10
 153 694 153 694 112.5 639.5 c 128,-1,11
 72 585 72 585 72 452 c 1,12,-1
 3 398 l 1,13,14
 3 512 3 512 44 593 c 128,-1,15
 85 674 85 674 184 731 c 0,16,17
 219 751 219 751 329 751 c 2,18,-1
 419 751 l 1,19,-1
 420 748 l 1,20,21
 382 724 382 724 371 660 c 0,22,23
 364 619 364 619 350 526 c 0,24,25
 326 374 326 374 293 186 c 1,26,27
 279 124 279 124 217 65 c 1,28,-1
 221 57 l 1,29,30
 245 56 245 56 278.5 56 c 128,-1,31
 312 56 312 56 351.5 61.5 c 128,-1,32
 391 67 391 67 430 94 c 1,33,-1
 434 86 l 1,34,35
 332 0 332 0 317 -1 c 1,0,-1
339.5 847.5 m 128,-1,37
 301 866 301 866 279 866 c 128,-1,38
 257 866 257 866 226.5 852.5 c 128,-1,39
 196 839 196 839 179 824 c 1,40,-1
 174 839 l 1,41,42
 223 889 223 889 289 915 c 1,43,44
 311 915 311 915 349.5 897.5 c 128,-1,45
 388 880 388 880 410.5 880 c 128,-1,46
 433 880 433 880 464.5 890.5 c 128,-1,47
 496 901 496 901 511 912 c 1,48,-1
 519 901 l 1,49,50
 463 844 463 844 400 829 c 1,51,36
 378 829 378 829 339.5 847.5 c 128,-1,37
EndSplineSet
EndChar

StartChar: itilde
Encoding: 297 297 195
Width: 237
GlyphClass: 2
Flags: W
LayerCount: 2
Fore
SplineSet
47 -10 m 1,0,1
 45 14 45 14 45 47 c 128,-1,2
 45 80 45 80 53 137.5 c 128,-1,3
 61 195 61 195 79 292.5 c 128,-1,4
 97 390 97 390 107 453 c 1,5,-1
 37 402 l 1,6,-1
 39 413 l 1,7,8
 46 423 46 423 58.5 438.5 c 128,-1,9
 71 454 71 454 106 482 c 128,-1,10
 141 510 141 510 172 515 c 1,11,12
 165 472 165 472 152 364 c 0,13,14
 125 137 125 137 92 55 c 1,15,-1
 94 52 l 1,16,17
 180 113 180 113 304 286 c 1,18,-1
 315 279 l 1,19,20
 243 174 243 174 170 92.5 c 128,-1,21
 97 11 97 11 47 -10 c 1,0,1
145.5 672.5 m 128,-1,23
 107 691 107 691 85 691 c 128,-1,24
 63 691 63 691 32.5 677.5 c 128,-1,25
 2 664 2 664 -15 649 c 1,26,-1
 -20 664 l 1,27,28
 29 714 29 714 95 740 c 1,29,30
 117 740 117 740 155.5 722.5 c 128,-1,31
 194 705 194 705 216.5 705 c 128,-1,32
 239 705 239 705 270.5 715.5 c 128,-1,33
 302 726 302 726 317 737 c 1,34,-1
 325 726 l 1,35,36
 269 669 269 669 206 654 c 1,37,22
 184 654 184 654 145.5 672.5 c 128,-1,23
EndSplineSet
EndChar

StartChar: dotlessi
Encoding: 305 305 196
Width: 225
GlyphClass: 2
Flags: W
LayerCount: 2
Fore
SplineSet
31 -10 m 1,0,1
 29 14 29 14 29 47 c 128,-1,2
 29 80 29 80 37 137.5 c 128,-1,3
 45 195 45 195 63 292.5 c 128,-1,4
 81 390 81 390 91 453 c 1,5,-1
 21 402 l 1,6,-1
 23 413 l 1,7,8
 30 423 30 423 42.5 438.5 c 128,-1,9
 55 454 55 454 90 482 c 128,-1,10
 125 510 125 510 156 515 c 1,11,12
 149 472 149 472 136 364 c 0,13,14
 109 137 109 137 76 55 c 1,15,-1
 78 52 l 1,16,17
 164 113 164 113 288 286 c 1,18,-1
 299 279 l 1,19,20
 227 174 227 174 154 92.5 c 128,-1,21
 81 11 81 11 31 -10 c 1,0,1
EndSplineSet
EndChar

StartChar: IJ
Encoding: 306 306 197
Width: 810
GlyphClass: 2
Flags: W
LayerCount: 2
Fore
SplineSet
694 751 m 2,0,-1
 784 751 l 1,1,-1
 785 748 l 1,2,3
 770 739 770 739 756 716 c 128,-1,4
 742 693 742 693 737 660 c 0,5,6
 692 356 692 356 626 11 c 0,7,8
 615 -44 615 -44 549 -113.5 c 128,-1,9
 483 -183 483 -183 411 -202 c 1,10,11
 352 -202 352 -202 266 -136 c 0,12,13
 245 -121 245 -121 244 -120 c 1,14,-1
 302 -81 l 1,15,16
 323 -101 323 -101 336 -111.5 c 128,-1,17
 349 -122 349 -122 375.5 -135 c 128,-1,18
 402 -148 402 -148 427 -148 c 0,19,20
 480 -148 480 -148 517.5 -106 c 128,-1,21
 555 -64 555 -64 570 41 c 128,-1,22
 585 146 585 146 602 257 c 0,23,24
 633 449 633 449 667 643 c 0,25,26
 673 676 673 676 688 694 c 1,27,-1
 619 694 l 2,28,29
 539 694 539 694 508.5 665.5 c 128,-1,30
 478 637 478 637 478 562 c 1,31,-1
 409 508 l 1,32,33
 409 591 409 591 440.5 641.5 c 128,-1,34
 472 692 472 692 550 731 c 0,35,36
 591 751 591 751 694 751 c 2,0,-1
259 -1 m 1,37,-1
 100 0 l 1,38,-1
 96 8 l 1,39,40
 183 26 183 26 211 177 c 0,41,42
 235 309 235 309 257 448.5 c 128,-1,43
 279 588 279 588 289.5 631 c 128,-1,44
 300 674 300 674 312 694 c 1,45,-1
 245 694 l 2,46,47
 145 694 145 694 104.5 639.5 c 128,-1,48
 64 585 64 585 64 452 c 1,49,-1
 -5 398 l 1,50,51
 -5 512 -5 512 36 593 c 128,-1,52
 77 674 77 674 176 731 c 0,53,54
 211 751 211 751 321 751 c 2,55,-1
 411 751 l 1,56,-1
 412 748 l 1,57,58
 374 724 374 724 363 660 c 0,59,60
 361 649 361 649 331.5 468 c 128,-1,61
 302 287 302 287 285 186 c 0,62,63
 280 155 280 155 263 127.5 c 128,-1,64
 246 100 246 100 209 65 c 1,65,-1
 213 57 l 1,66,67
 227 56 227 56 253 56 c 0,68,69
 330 56 330 56 372 94 c 1,70,-1
 376 86 l 1,71,72
 375 85 375 85 345 58 c 0,73,74
 281 1 281 1 259 -1 c 1,37,-1
EndSplineSet
EndChar

